<svg width="1440" height="858" viewBox="0 0 1440 858" fill="none" xmlns="http://www.w3.org/2000/svg">
<g clip-path="url(#clip0_3059_1718)">
<path d="M1422.25 230.42C1400.31 230.42 1372.89 225.959 1339.08 216.921C1310.58 209.299 1282.78 201.741 1256.18 193.072C1251.38 191.508 1246.56 189.922 1241.74 188.336C1194.36 172.754 1145.38 156.644 1086.25 151.337C1006.15 144.138 912.387 148.25 815.093 163.24L814.367 162.278C912.036 147.225 1006.22 143.102 1086.67 150.333C1146.27 155.692 1195.47 171.866 1243.05 187.512C1247.87 189.097 1252.67 190.673 1257.47 192.248C1284 200.895 1311.75 208.443 1340.2 216.043C1383.24 227.555 1415.67 231.572 1439.32 228.327L1439.98 229.3C1434.52 230.05 1428.6 230.431 1422.23 230.431L1422.25 230.42Z" fill="#5931FF"/>
<path d="M287.504 237.175C227.371 237.175 161.571 232.302 98.863 217.819C55.8241 207.872 22.5498 196.159 0 182.998L1.77963 182.374C24.1421 195.419 57.1354 207.037 99.8933 216.91C210.558 242.482 330.964 237.936 412.499 229.617C468.112 223.94 519.511 214.701 576.155 204.098C626.968 194.584 678.694 185.556 727.329 177.11L728.149 178.061C679.537 186.497 627.811 195.525 577.021 205.039C520.284 215.663 468.768 224.913 412.991 230.61C377.258 234.258 334.055 237.175 287.48 237.175H287.504Z" fill="#5931FF"/>
<path d="M1422.25 250.854C1400.31 250.854 1372.89 246.393 1339.08 237.355C1325.89 233.835 1310.58 229.712 1295.62 225.452L1296.81 224.595C1311.75 228.845 1327.06 232.957 1340.22 236.488C1383.26 248 1415.69 252.017 1439.34 248.772L1440 249.744C1434.52 250.495 1428.62 250.875 1422.25 250.875V250.854Z" fill="#5931FF"/>
<path d="M287.504 257.609C227.371 257.609 161.595 252.736 98.8865 238.253C55.8476 228.306 22.5732 216.593 0.0234375 203.432L1.80307 202.808C24.1655 215.853 57.1589 227.471 99.9168 237.344C210.582 262.916 330.987 258.36 412.522 250.051C468.136 244.374 519.558 235.135 576.178 224.532C632.447 214.003 690.238 203.982 746.109 194.298C759.597 191.962 773.084 189.626 786.572 187.269C861.715 174.181 974.791 160.703 1086.7 170.767C1136.25 175.228 1178.77 187.247 1217.34 199.563L1216.02 200.398C1177.67 188.135 1135.38 176.179 1086.25 171.761C974.861 161.739 862.23 175.186 787.368 188.22C773.881 190.567 760.393 192.903 746.905 195.25C691.034 204.933 633.267 214.944 577.044 225.473C520.307 236.097 468.792 245.347 413.014 251.045C377.281 254.692 334.078 257.609 287.504 257.609Z" fill="#5931FF"/>
<path d="M1422.25 271.278C1400.31 271.278 1372.89 266.817 1339.08 257.768C1310.58 250.146 1282.78 242.588 1256.18 233.919C1251.36 232.355 1246.56 230.769 1241.74 229.183C1194.36 213.601 1145.38 197.491 1086.25 192.184C974.861 182.173 862.229 195.609 787.368 208.644C773.857 211.001 760.322 213.337 746.811 215.684C690.987 225.367 633.243 235.368 577.021 245.896L576.154 244.956C632.4 234.427 690.144 224.416 745.992 214.733C759.503 212.386 773.037 210.05 786.548 207.692C861.691 194.605 974.768 181.116 1086.67 191.191C1146.27 196.55 1195.46 212.724 1243.05 228.369C1247.87 229.955 1252.67 231.53 1257.49 233.105C1284.02 241.752 1311.77 249.29 1340.22 256.901C1383.26 268.413 1415.69 272.43 1439.34 269.185L1440 270.157C1434.54 270.908 1428.62 271.288 1422.25 271.288V271.278Z" fill="#5931FF"/>
<path d="M287.504 278.033C227.371 278.033 161.571 273.16 98.863 258.677C55.8241 248.73 22.5498 237.017 0 223.855L1.77963 223.232C24.1421 236.277 57.1354 247.894 99.8933 257.768C210.558 283.34 330.964 278.783 412.499 270.474C428.118 268.878 443.853 266.965 460.596 264.607L461.275 265.58C444.462 267.937 428.68 269.861 412.991 271.468C377.258 275.115 334.055 278.033 287.48 278.033H287.504Z" fill="#5931FF"/>
<path d="M1422.25 291.712C1400.31 291.712 1372.89 287.251 1339.08 278.213C1310.58 270.591 1282.78 263.032 1256.18 254.364C1251.38 252.799 1246.56 251.214 1241.74 249.628C1194.36 234.046 1145.38 217.936 1086.25 212.629C1037.73 208.263 984.579 207.999 928.31 211.847L927.982 210.842C984.532 206.984 1037.92 207.248 1086.7 211.635C1146.29 216.995 1195.49 233.169 1243.07 248.814C1247.89 250.4 1252.69 251.975 1257.49 253.55C1284.03 262.197 1311.77 269.745 1340.22 277.346C1383.26 288.858 1415.69 292.875 1439.34 289.629L1440 290.602C1434.54 291.353 1428.62 291.733 1422.25 291.733V291.712Z" fill="#5931FF"/>
<path d="M287.504 298.467C227.371 298.467 161.571 293.594 98.863 279.111C55.8241 269.164 22.5498 257.451 0 244.29L1.77963 243.666C24.1421 256.711 57.1354 268.328 99.8933 278.202C210.558 303.774 330.964 299.217 412.499 290.909C468.112 285.232 519.511 275.993 576.155 265.39C632.424 254.861 690.191 244.839 746.039 235.156C759.55 232.82 773.038 230.473 786.525 228.126C810.621 223.929 834.973 220.325 858.881 217.418L859.467 218.401C835.652 221.297 811.37 224.891 787.345 229.078C773.857 231.424 760.346 233.771 746.835 236.108C690.987 245.791 633.22 255.802 576.998 266.331C520.26 276.955 468.745 286.204 412.967 291.902C377.234 295.549 334.031 298.467 287.457 298.467H287.504Z" fill="#5931FF"/>
<path d="M287.878 318.88C284.857 318.88 281.86 318.869 278.863 318.848L278.91 317.833C321.925 318.182 366.884 316.005 412.522 311.343C468.136 305.666 519.557 296.427 576.178 285.824C632.447 275.295 690.238 265.273 746.109 255.59C759.596 253.254 773.084 250.918 786.572 248.56C861.714 235.473 974.791 221.984 1086.7 232.059C1146.29 237.418 1195.49 253.592 1243.05 269.238C1247.87 270.823 1252.67 272.398 1257.49 273.974C1284.02 282.621 1311.77 290.169 1340.22 297.769C1383.26 309.281 1415.69 313.298 1439.34 310.053L1440 311.026C1415.69 314.366 1382.7 310.317 1339.08 298.647C1310.58 291.025 1282.78 283.466 1256.18 274.798C1251.36 273.234 1246.56 271.648 1241.74 270.062C1194.36 254.48 1145.38 238.38 1086.28 233.063C974.885 223.042 862.253 236.488 787.391 249.522C773.904 251.869 760.416 254.205 746.928 256.552C691.057 266.235 633.29 276.246 577.068 286.775C520.33 297.399 468.815 306.649 413.037 312.347C370.397 316.692 328.365 318.89 287.925 318.89L287.878 318.88Z" fill="#5931FF"/>
<path d="M211.354 316.089C171.055 313.045 133.191 307.474 98.863 299.545C55.8241 289.598 22.5498 277.885 0 264.724L1.77963 264.1C24.1421 277.145 57.1354 288.763 99.8933 298.636C134.034 306.522 171.64 312.051 211.729 315.085L211.354 316.089Z" fill="#5931FF"/>
<path d="M1422.25 332.58C1400.31 332.58 1372.89 328.119 1339.08 319.07C1310.58 311.448 1282.78 303.89 1256.18 295.222C1251.36 293.657 1246.56 292.071 1241.74 290.486C1194.36 274.904 1145.38 258.804 1086.28 253.487C974.885 243.476 862.253 256.912 787.392 269.946C773.927 272.293 760.44 274.629 746.952 276.965C725.877 280.623 704.826 284.27 683.775 287.959L682.956 287.008C703.983 283.318 725.058 279.671 746.132 276.014C759.62 273.678 773.084 271.341 786.572 268.994C861.715 255.907 974.791 242.419 1086.7 252.493C1146.29 257.852 1195.49 274.026 1243.05 289.672C1247.87 291.257 1252.67 292.832 1257.49 294.408C1284.02 303.055 1311.77 310.603 1340.22 318.203C1383.26 329.715 1415.69 333.732 1439.34 330.487L1440 331.46C1434.54 332.21 1428.62 332.591 1422.25 332.591V332.58Z" fill="#5931FF"/>
<path d="M287.504 339.335C227.371 339.335 161.595 334.462 98.8864 319.979C55.8476 310.032 22.5732 298.319 0.0234375 285.158L1.80307 284.534C24.1655 297.579 57.1589 309.197 99.9168 319.07C210.581 344.642 330.987 340.086 412.522 331.777C468.136 326.1 519.558 316.861 576.178 306.258C590.977 303.488 606.104 300.708 622.425 297.759L623.268 298.7C606.947 301.649 591.82 304.429 577.044 307.199C520.307 317.823 468.791 327.073 413.014 332.77C377.281 336.418 334.078 339.335 287.504 339.335Z" fill="#5931FF"/>
<path d="M1422.25 353.014C1400.31 353.014 1372.89 348.553 1339.08 339.515C1310.58 331.893 1282.78 324.335 1256.18 315.666C1251.38 314.102 1246.56 312.516 1241.74 310.93C1194.36 295.348 1145.38 279.238 1086.25 273.931C1064.52 271.976 1041.62 270.834 1018.18 270.527L1018.25 269.512C1041.81 269.819 1064.85 270.971 1086.7 272.927C1146.29 278.287 1195.49 294.46 1243.07 310.106C1247.89 311.692 1252.69 313.267 1257.49 314.842C1284.03 323.489 1311.75 331.026 1340.22 338.637C1383.26 350.15 1415.69 354.167 1439.34 350.921L1440 351.894C1434.54 352.644 1428.62 353.025 1422.25 353.025V353.014Z" fill="#5931FF"/>
<path d="M287.504 359.769C227.371 359.769 161.571 354.896 98.863 340.413C55.8241 330.466 22.5498 318.753 0 305.592L1.77963 304.968C24.1421 318.013 57.1354 329.631 99.8933 339.504C210.558 365.076 330.964 360.53 412.499 352.211C468.112 346.534 519.511 337.295 576.155 326.692C632.4 316.163 690.144 306.152 745.992 296.469C759.503 294.122 773.038 291.786 786.549 289.429C841.928 279.788 896.581 273.54 948.963 270.876L949.221 271.891C897.026 274.544 842.56 280.771 787.345 290.38C773.834 292.737 760.299 295.074 746.788 297.42C690.964 307.104 633.22 317.104 576.998 327.633C520.26 338.257 468.745 347.507 412.967 353.205C377.234 356.852 334.031 359.769 287.457 359.769H287.504Z" fill="#5931FF"/>
<path d="M343.398 378.85L343.164 377.835C365.947 376.757 389.293 375.013 412.499 372.645C468.112 366.968 519.534 357.729 576.154 347.126C632.423 336.597 690.214 326.576 746.085 316.893C759.573 314.556 773.061 312.22 786.548 309.863C861.691 296.776 974.768 283.287 1086.67 293.361C1146.27 298.721 1195.46 314.895 1243.05 330.54C1247.87 332.126 1252.67 333.701 1257.47 335.276C1284 343.923 1311.75 351.471 1340.2 359.072C1383.24 370.584 1415.67 374.601 1439.32 371.355L1439.98 372.328C1415.69 375.658 1382.68 371.62 1339.05 359.949C1310.56 352.327 1282.76 344.769 1256.16 336.1C1251.36 334.536 1246.54 332.95 1241.71 331.364C1194.34 315.783 1145.35 299.672 1086.23 294.365C974.838 284.354 862.206 297.79 787.345 310.825C773.857 313.171 760.369 315.508 746.881 317.855C691.011 327.538 633.243 337.549 577.021 348.078C520.283 358.702 468.791 367.951 412.991 373.649C389.691 376.028 366.252 377.783 343.374 378.861L343.398 378.85Z" fill="#5931FF"/>
<path d="M272.892 380.077C208.896 379.199 150.332 372.73 98.863 360.837C55.8241 350.889 22.5498 339.177 0 326.015L1.77963 325.392C24.1421 338.437 57.1354 350.054 99.8933 359.928C151.058 371.746 209.294 378.184 272.962 379.051L272.892 380.066V380.077Z" fill="#5931FF"/>
<path d="M1422.25 393.883C1400.31 393.883 1372.89 389.421 1339.08 380.373C1310.58 372.751 1282.78 365.192 1256.18 356.524C1251.36 354.959 1246.56 353.374 1241.74 351.788C1194.36 336.206 1145.38 320.106 1086.28 314.789C974.885 304.767 862.253 318.214 787.392 331.248C776.948 333.066 766.504 334.874 756.084 336.692L755.265 335.741C765.708 333.933 776.152 332.115 786.572 330.297C861.714 317.21 974.791 303.731 1086.7 313.795C1146.29 319.155 1195.49 335.329 1243.05 350.974C1247.87 352.56 1252.67 354.135 1257.49 355.71C1284.02 364.357 1311.77 371.905 1340.22 379.506C1383.26 391.018 1415.69 395.035 1439.34 391.789L1440 392.762C1434.54 393.513 1428.62 393.893 1422.25 393.893V393.883Z" fill="#5931FF"/>
<path d="M287.504 400.638C227.371 400.638 161.595 395.764 98.8864 381.282C55.8476 371.334 22.5732 359.621 0.0234375 346.46L1.80307 345.836C24.1655 358.881 57.1589 370.499 99.9168 380.373C210.581 405.944 330.987 401.388 412.522 393.079C468.136 387.402 519.558 378.163 576.178 367.56C603.715 362.402 633.22 357.063 669 350.763L669.819 351.714C634.063 358.014 604.582 363.353 577.044 368.501C520.307 379.125 468.791 388.375 413.014 394.073C377.281 397.72 334.078 400.638 287.504 400.638Z" fill="#5931FF"/>
<path d="M1422.25 414.306C1400.31 414.306 1372.89 409.845 1339.08 400.807C1310.58 393.185 1282.78 385.626 1256.18 376.958C1251.38 375.394 1246.56 373.808 1241.74 372.222C1200.43 358.638 1157.72 344.6 1108.36 337.75L1109.01 336.777C1158.73 343.68 1201.6 357.771 1243.05 371.398C1247.87 372.983 1252.67 374.558 1257.47 376.133C1284 384.781 1311.73 392.318 1340.2 399.929C1383.24 411.441 1415.67 415.458 1439.32 412.202L1439.98 413.175C1434.52 413.926 1428.6 414.306 1422.23 414.306H1422.25Z" fill="#5931FF"/>
<path d="M287.504 421.072C227.371 421.072 161.571 416.198 98.863 401.716C55.8241 391.768 22.5498 380.055 0 366.894L1.77963 366.271C24.1421 379.315 57.1354 390.933 99.8933 400.807C210.558 426.368 330.964 421.822 412.499 413.513C468.112 407.836 519.511 398.597 576.155 387.994C632.4 377.465 690.144 367.455 745.992 357.771C759.503 355.425 773.038 353.088 786.549 350.731C861.597 337.665 937.068 330.741 1004.81 330.72V331.734C937.349 331.756 862.159 338.648 787.368 351.672C773.857 354.029 760.323 356.365 746.811 358.712C690.987 368.395 633.243 378.396 577.021 388.925C520.284 399.549 468.768 408.798 412.991 414.496C377.258 418.143 334.055 421.061 287.48 421.061L287.504 421.072Z" fill="#5931FF"/>
<path d="M1422.25 434.74C1400.31 434.74 1372.89 430.279 1339.08 421.241C1310.58 413.619 1282.78 406.061 1256.18 397.392C1251.38 395.828 1246.56 394.242 1241.74 392.656C1194.36 377.074 1145.38 360.964 1086.25 355.657C974.862 345.646 862.23 359.082 787.368 372.116C773.857 374.463 760.346 376.81 746.835 379.157C703.351 386.694 658.369 394.496 614.393 402.477L613.55 401.536C657.526 393.544 702.508 385.743 746.016 378.205C759.527 375.859 773.038 373.522 786.549 371.176C861.691 358.088 974.768 344.6 1086.67 354.674C1146.27 360.034 1195.47 376.207 1243.05 391.853C1247.87 393.438 1252.67 395.014 1257.47 396.589C1284 405.236 1311.75 412.784 1340.2 420.384C1383.24 431.896 1415.67 435.914 1439.32 432.668L1439.98 433.641C1434.5 434.391 1428.6 434.772 1422.23 434.772L1422.25 434.74Z" fill="#5931FF"/>
<path d="M287.504 441.495C227.371 441.495 161.571 436.622 98.863 422.139C55.8241 412.192 22.5498 400.479 0 387.318L1.77963 386.694C24.1186 399.739 57.1354 411.357 99.8933 421.23C210.558 446.791 330.964 442.246 412.499 433.937C460.853 429 506.702 421.167 545.175 414.158L546.018 415.099C507.451 422.129 461.486 429.973 412.991 434.92C377.258 438.567 334.055 441.485 287.48 441.485L287.504 441.495Z" fill="#5931FF"/>
<path d="M331.479 461.084L331.292 460.069C357.893 459.075 385.219 457.151 412.523 454.371C468.136 448.694 519.558 439.455 576.178 428.852C632.424 418.323 690.168 408.312 745.992 398.629C759.527 396.282 773.038 393.935 786.572 391.589C861.715 378.501 974.791 365.013 1086.7 375.087C1146.29 380.447 1195.49 396.62 1243.05 412.266C1247.87 413.851 1252.67 415.427 1257.49 417.002C1284.03 425.649 1311.77 433.197 1340.22 440.797C1383.26 452.309 1415.69 456.327 1439.34 453.081L1440 454.054C1415.72 457.394 1382.7 453.345 1339.08 441.675C1310.58 434.053 1282.78 426.495 1256.18 417.826C1251.36 416.262 1246.56 414.676 1241.74 413.09C1194.36 397.508 1145.38 381.408 1086.28 376.091C974.885 366.07 862.253 379.516 787.392 392.551C773.881 394.908 760.346 397.255 746.812 399.591C690.988 409.274 633.243 419.274 577.045 429.803C520.307 440.427 468.792 449.677 413.014 455.375C385.641 458.166 358.197 460.09 331.479 461.094V461.084Z" fill="#5931FF"/>
<path d="M213.321 459.265C172.273 456.253 133.753 450.639 98.863 442.573C55.8241 432.626 22.5498 420.913 0 407.752L1.77963 407.128C24.1421 420.173 57.1354 431.791 99.8933 441.664C134.596 449.677 172.881 455.259 213.696 458.261L213.345 459.265H213.321Z" fill="#5931FF"/>
<path d="M290.243 216.17V215.155C329.77 215.071 370.912 212.883 412.499 208.633C468.112 202.956 519.534 193.717 576.154 183.114C632.4 172.585 690.144 162.574 745.968 152.891C759.503 150.544 773.014 148.198 786.549 145.851C861.691 132.764 974.768 119.285 1086.67 129.349C1146.27 134.709 1195.46 150.883 1243.02 166.528C1247.85 168.114 1252.65 169.689 1257.47 171.264C1284 179.911 1311.75 187.459 1340.2 195.06C1383.24 206.572 1415.67 210.589 1439.32 207.343L1439.98 208.316C1415.69 211.656 1382.68 207.608 1339.05 195.937C1310.56 188.315 1282.76 180.757 1256.16 172.088C1251.34 170.524 1246.54 168.938 1241.71 167.352C1194.34 151.771 1145.35 135.671 1086.25 130.353C974.861 120.332 862.23 133.778 787.368 146.813C773.857 149.17 760.323 151.517 746.788 153.853C690.964 163.536 633.22 173.537 577.021 184.066C520.283 194.69 468.768 203.939 412.991 209.637C371.24 213.897 329.934 216.096 290.243 216.181V216.17Z" fill="#5931FF"/>
<path d="M194.822 211.984C160.728 208.77 128.438 203.675 98.863 196.836C55.8241 186.888 22.5498 175.175 0 162.014L1.77963 161.39C24.1421 174.435 57.1354 186.053 99.8933 195.926C129.304 202.724 161.408 207.787 195.291 210.98L194.822 211.973V211.984Z" fill="#5931FF"/>
<path d="M287.504 195.229C227.371 195.229 161.571 190.355 98.863 175.873C55.8241 165.925 22.5498 154.213 0 141.051L1.77963 140.428C24.1421 153.473 57.1354 165.09 99.8933 174.964C210.558 200.535 330.964 195.99 412.499 187.67C468.112 181.994 519.511 172.754 576.155 162.151C632.424 151.623 690.191 141.601 746.039 131.918C759.55 129.582 773.038 127.235 786.525 124.888C861.668 111.801 974.744 98.3121 1086.65 108.386C1146.24 113.746 1195.44 129.92 1243.02 145.565C1247.85 147.151 1252.65 148.726 1257.45 150.301C1283.98 158.948 1311.73 166.496 1340.18 174.097C1383.22 185.609 1415.65 189.626 1439.3 186.381L1439.95 187.353C1415.67 190.694 1382.65 186.645 1339.03 174.974C1310.53 167.353 1282.74 159.794 1256.14 151.126C1251.34 149.561 1246.51 147.976 1241.69 146.39C1194.32 130.808 1145.33 114.697 1086.21 109.391C974.815 99.3798 862.183 112.816 787.321 125.85C773.834 128.197 760.323 130.544 746.811 132.88C690.964 142.563 633.196 152.574 576.974 163.103C520.237 173.727 468.721 182.977 412.944 188.675C377.211 192.322 334.008 195.239 287.433 195.239L287.504 195.229Z" fill="#5931FF"/>
<path d="M1422.25 167.49C1400.31 167.49 1372.89 163.029 1339.08 153.98C1310.58 146.358 1282.78 138.8 1256.18 130.131C1251.36 128.567 1246.56 126.981 1241.74 125.395C1194.36 109.814 1145.38 93.7136 1086.28 88.3963C974.885 78.3748 862.253 91.8213 787.391 104.856C773.88 107.213 760.346 109.56 746.811 111.896C690.987 121.579 633.243 131.58 577.044 142.108L576.178 141.168C632.423 130.639 690.168 120.628 745.992 110.945C759.526 108.598 773.037 106.251 786.572 103.904C861.714 90.8171 974.791 77.3282 1086.7 87.4026C1146.29 92.7622 1195.49 108.936 1243.05 124.581C1247.87 126.167 1252.67 127.742 1257.49 129.317C1284.02 137.965 1311.77 145.512 1340.22 153.113C1383.26 164.625 1415.69 168.642 1439.34 165.397L1440 166.369C1434.54 167.12 1428.62 167.5 1422.25 167.5V167.49Z" fill="#5931FF"/>
<path d="M287.504 174.255C227.371 174.255 161.595 169.382 98.8864 154.9C55.8241 144.942 22.5498 133.229 0 120.068L1.77963 119.444C24.1421 132.489 57.1354 144.106 99.8933 153.98C210.558 179.552 330.964 174.995 412.499 166.687C426.713 165.238 440.996 163.526 456.123 161.443L456.779 162.416C441.605 164.498 427.275 166.221 412.991 167.68C377.258 171.327 334.055 174.245 287.48 174.245L287.504 174.255Z" fill="#5931FF"/>
<path d="M1422.25 146.517C1400.31 146.517 1372.89 142.056 1339.08 133.017C1310.58 125.395 1282.78 117.837 1256.18 109.169C1251.36 107.594 1246.54 106.008 1241.71 104.422C1230.78 100.828 1219.47 97.1069 1208.18 93.5762L1209.47 92.741C1220.78 96.2824 1232.11 100.003 1243.05 103.608C1247.87 105.194 1252.69 106.78 1257.52 108.344C1284.05 116.991 1311.8 124.539 1340.25 132.14C1383.29 143.652 1415.72 147.669 1439.37 144.424L1440.02 145.396C1434.57 146.147 1428.64 146.527 1422.27 146.527L1422.25 146.517Z" fill="#5931FF"/>
<path d="M287.504 153.272C227.371 153.272 161.571 148.398 98.863 133.916C55.8241 123.968 22.5498 112.255 0 99.0943L1.77963 98.4706C24.1421 111.515 57.1354 123.133 99.8933 133.007C210.558 158.578 330.987 154.033 412.499 145.713C468.112 140.037 519.511 130.797 576.155 120.194C632.424 109.666 690.191 99.644 746.039 89.9608C759.55 87.6246 773.038 85.2778 786.525 82.931C861.668 69.8438 974.744 56.355 1086.65 66.4294C1110.42 68.5647 1134.18 72.5606 1159.26 78.6285L1158.19 79.5271C1133.3 73.5121 1109.76 69.5479 1086.21 67.4336C974.815 57.4227 862.183 70.8587 787.321 83.893C773.834 86.2398 760.323 88.5866 746.811 90.9228C690.964 100.606 633.196 110.617 576.974 121.146C520.237 131.77 468.721 141.02 412.944 146.718C377.211 150.365 334.008 153.282 287.433 153.282L287.504 153.272Z" fill="#5931FF"/>
<path d="M1422.25 125.543C1400.31 125.543 1372.89 121.082 1339.08 112.033C1310.58 104.412 1282.78 96.8532 1256.18 88.1849C1251.36 86.6203 1246.56 85.0346 1241.74 83.449C1194.36 67.867 1145.38 51.7671 1086.28 46.4498C1004.83 39.124 909.483 43.4899 810.503 59.0718L809.754 58.1098C909.109 42.4645 1004.9 38.088 1086.7 45.4455C1146.29 50.8051 1195.49 66.9791 1243.05 82.6244C1247.87 84.2101 1252.67 85.7852 1257.49 87.3603C1284.02 96.0075 1311.77 103.555 1340.22 111.156C1383.26 122.668 1415.69 126.685 1439.34 123.44L1440 124.412C1434.54 125.163 1428.62 125.543 1422.25 125.543Z" fill="#5931FF"/>
<path d="M287.504 132.298C227.371 132.298 161.595 127.425 98.8864 112.943C55.8241 102.995 22.5498 91.2822 0 78.1211L1.77963 77.4974C24.1421 90.5422 57.1354 102.16 99.8933 112.033C210.558 137.595 330.964 133.049 412.499 124.74C468.112 119.063 519.534 109.824 576.155 99.2212C627.717 89.5697 678.46 80.711 734.658 70.9644L735.478 71.9158C679.279 81.6624 628.583 90.5105 577.021 100.162C520.284 110.786 468.768 120.036 412.991 125.734C377.258 129.381 334.055 132.298 287.48 132.298H287.504Z" fill="#5931FF"/>
<path d="M296.94 111.272L296.894 110.258C334.383 109.951 373.277 107.773 412.499 103.767C468.112 98.0901 519.511 88.8508 576.155 78.2479C632.424 67.719 690.191 57.6976 746.039 48.0143C759.55 45.6781 773.038 43.3313 786.525 40.9845C861.668 27.8974 974.744 14.4085 1086.65 24.4829C1146.24 29.8425 1195.44 46.0164 1243.02 61.6617C1247.85 63.2474 1252.65 64.8225 1257.45 66.3976C1283.98 75.0449 1311.73 82.5927 1340.18 90.1934C1383.22 101.705 1415.65 105.722 1439.3 102.477L1439.95 103.45C1415.67 106.79 1382.65 102.741 1339.03 91.0708C1310.53 83.449 1282.74 75.8906 1256.14 67.2222C1251.34 65.6577 1246.51 64.072 1241.69 62.4863C1194.32 46.9044 1145.33 30.7939 1086.21 25.4871C974.815 15.4762 862.183 28.9122 787.322 41.9465C773.834 44.2933 760.323 46.6401 746.812 48.9763C690.964 58.6595 633.196 68.6704 576.974 79.1993C520.237 89.8234 468.721 99.0732 412.944 104.771C373.558 108.788 334.5 110.976 296.87 111.283L296.94 111.272Z" fill="#5931FF"/>
<path d="M195.174 107.15C160.939 103.936 128.555 98.83 98.863 91.9693C55.8241 82.0219 22.5498 70.309 0 57.1479L1.77963 56.5242C24.1421 69.569 57.1354 81.1867 99.8933 91.0602C129.398 97.8786 161.618 102.953 195.642 106.145L195.174 107.139V107.15Z" fill="#5931FF"/>
<path d="M287.504 90.3519C227.371 90.3519 161.595 85.4785 98.8864 70.996C55.8241 61.0485 22.5498 49.3356 0 36.1745L1.77963 35.5508C24.1421 48.5956 57.1354 60.2134 99.8933 70.0869C210.558 95.6586 330.964 91.1024 412.499 82.7935C468.112 77.1167 519.534 67.8775 576.155 57.2746C632.4 46.7457 690.144 36.7348 745.969 27.0516C759.503 24.7048 773.014 22.358 786.549 20.0112C861.691 6.92402 974.768 -6.56482 1086.67 3.50952C1146.27 8.86912 1195.47 25.043 1243.02 40.6884C1247.85 42.2741 1252.65 43.8492 1257.47 45.4243C1284 54.0715 1311.75 61.6194 1340.2 69.22C1383.24 80.7321 1415.67 84.7491 1439.32 81.5038L1439.98 82.4763C1415.69 85.8168 1382.68 81.768 1339.05 70.0975C1310.56 62.4756 1282.76 54.9172 1256.16 46.2488C1251.34 44.6843 1246.54 43.0986 1241.71 41.513C1194.34 25.931 1145.35 9.8311 1086.25 4.51379C974.861 -5.5077 862.23 7.93885 787.368 20.9731C773.857 23.3305 760.323 25.6773 746.788 28.0135C690.964 37.6968 633.22 47.6971 577.021 58.226C520.284 68.8501 468.768 78.0998 412.991 83.7977C377.258 87.4448 334.055 90.3624 287.48 90.3624L287.504 90.3519Z" fill="#5931FF"/>
<path d="M1422.25 627.337C1400.31 627.337 1372.89 622.876 1339.08 613.827C1310.58 606.205 1282.78 598.646 1256.18 589.978C1251.36 588.414 1246.56 586.828 1241.74 585.242C1194.36 569.66 1145.38 553.56 1086.25 548.243C1006.15 541.033 912.387 545.156 815.093 560.146L814.367 559.184C912.036 544.131 1006.22 540.008 1086.67 547.249C1146.27 552.609 1195.47 568.783 1243.05 584.428C1247.87 586.014 1252.67 587.589 1257.49 589.164C1284.03 597.811 1311.77 605.359 1340.22 612.96C1383.26 624.472 1415.69 628.489 1439.34 625.244L1440 626.216C1434.52 626.967 1428.62 627.347 1422.25 627.347V627.337Z" fill="#5931FF"/>
<path d="M287.504 634.092C227.371 634.092 161.571 629.218 98.863 614.736C55.8241 604.788 22.5498 593.075 0 579.914L1.77963 579.291C24.1186 592.325 57.1354 603.953 99.8933 613.827C210.558 639.398 330.964 634.842 412.499 626.533C468.112 620.856 519.511 611.617 576.155 601.014C626.968 591.5 678.694 582.473 727.329 574.026L728.149 574.977C679.537 583.413 627.811 592.452 577.021 601.955C520.284 612.579 468.768 621.829 412.991 627.527C377.258 631.174 334.055 634.092 287.48 634.092H287.504Z" fill="#5931FF"/>
<path d="M1422.25 647.771C1400.31 647.771 1372.89 643.31 1339.08 634.261C1322.78 629.905 1309.15 626.216 1295.62 622.358L1296.81 621.501C1310.32 625.349 1323.95 629.039 1340.22 633.394C1383.26 644.906 1415.69 648.923 1439.34 645.667L1440 646.64C1434.54 647.39 1428.62 647.771 1422.25 647.771Z" fill="#5931FF"/>
<path d="M287.504 654.526C227.371 654.526 161.571 649.652 98.863 635.17C55.8241 625.222 22.5498 613.509 0 600.348L1.77963 599.725C24.1421 612.77 57.1354 624.387 99.8933 634.261C210.558 659.822 330.964 655.276 412.499 646.967C468.112 641.291 519.534 632.051 576.155 621.448C632.424 610.92 690.215 600.898 746.086 591.215C759.573 588.879 773.061 586.542 786.549 584.185C861.691 571.098 974.768 557.62 1086.67 567.673C1136.22 572.134 1178.75 584.153 1217.31 596.479L1216 597.314C1177.65 585.052 1135.36 573.096 1086.23 568.677C974.838 558.666 862.206 572.102 787.345 585.136C773.857 587.483 760.369 589.819 746.882 592.166C691.011 601.849 633.243 611.86 577.021 622.389C520.284 633.013 468.791 642.263 412.991 647.961C377.258 651.608 334.055 654.526 287.48 654.526H287.504Z" fill="#5931FF"/>
<path d="M1422.25 668.205C1400.31 668.205 1372.89 663.744 1339.08 654.695C1310.58 647.073 1282.81 639.525 1256.18 630.846C1251.38 629.282 1246.56 627.696 1241.74 626.11C1194.36 610.528 1145.38 594.418 1086.25 589.111C974.861 579.09 862.229 592.536 787.368 605.571C773.88 607.917 760.393 610.254 746.905 612.6C691.034 622.284 633.266 632.295 577.044 642.823L576.178 641.883C632.447 631.354 690.238 621.332 746.109 611.649C759.596 609.313 773.084 606.977 786.572 604.619C861.714 591.532 974.791 578.043 1086.7 588.107C1146.31 593.467 1195.49 609.64 1243.07 625.286C1247.89 626.872 1252.69 628.447 1257.49 630.011C1284.05 638.658 1311.77 646.206 1340.22 653.807C1383.26 665.319 1415.69 669.336 1439.34 666.08L1440 667.053C1434.54 667.803 1428.62 668.184 1422.25 668.184V668.205Z" fill="#5931FF"/>
<path d="M287.504 674.96C227.371 674.96 161.571 670.087 98.863 655.604C55.8241 645.656 22.5498 633.944 0 620.782L1.77963 620.159C24.1421 633.204 57.1354 644.821 99.8933 654.695C210.558 680.267 330.964 675.71 412.499 667.401C428.118 665.805 443.853 663.892 460.596 661.534L461.275 662.507C444.462 664.864 428.68 666.788 412.991 668.395C377.258 672.042 334.055 674.96 287.48 674.96H287.504Z" fill="#5931FF"/>
<path d="M1422.25 688.639C1400.31 688.639 1372.89 684.178 1339.08 675.129C1310.58 667.507 1282.78 659.949 1256.18 651.28C1251.36 649.716 1246.56 648.13 1241.74 646.544C1194.36 630.963 1145.38 614.863 1086.25 609.545C1037.73 605.179 984.579 604.915 928.31 608.763L927.982 607.759C984.532 603.9 1037.92 604.165 1086.7 608.552C1146.29 613.911 1195.49 630.085 1243.07 645.731C1247.89 647.316 1252.69 648.891 1257.52 650.466C1284.05 659.114 1311.8 666.661 1340.25 674.262C1383.29 685.774 1415.72 689.791 1439.37 686.546L1440.02 687.518C1434.54 688.269 1428.64 688.65 1422.27 688.65L1422.25 688.639Z" fill="#5931FF"/>
<path d="M287.504 695.394C227.371 695.394 161.571 690.521 98.863 676.038C55.8241 666.091 22.5498 654.378 0 641.217L1.77963 640.593C24.1186 653.627 57.1354 665.256 99.8933 675.129C210.558 700.701 330.964 696.155 412.499 687.836C468.112 682.159 519.511 672.92 576.155 662.317C632.353 651.798 690.074 641.787 745.875 632.115C759.433 629.768 772.991 627.411 786.549 625.053C810.644 620.857 834.973 617.252 858.905 614.345L859.49 615.328C835.652 618.224 811.393 621.818 787.368 626.005C773.81 628.362 760.252 630.719 746.694 633.066C690.894 642.739 633.196 652.739 577.044 663.258C520.307 673.882 468.791 683.131 413.014 688.829C377.281 692.476 334.078 695.394 287.504 695.394Z" fill="#5931FF"/>
<path d="M287.878 715.796C284.857 715.796 281.86 715.786 278.863 715.754L278.91 714.739C321.925 715.088 366.884 712.91 412.522 708.259C468.136 702.582 519.557 693.343 576.178 682.74C632.447 672.211 690.238 662.19 746.109 652.507C759.597 650.17 773.084 647.834 786.572 645.477C861.714 632.39 974.791 618.901 1086.7 628.965C1146.29 634.324 1195.49 650.498 1243.07 666.143C1247.89 667.729 1252.69 669.304 1257.52 670.879C1284.05 679.527 1311.8 687.074 1340.25 694.675C1383.29 706.187 1415.72 710.204 1439.37 706.948L1440.02 707.921C1415.74 711.251 1382.72 707.213 1339.1 695.542C1310.6 687.92 1282.81 680.362 1256.21 671.693C1251.38 670.129 1246.58 668.543 1241.76 666.957C1194.39 651.376 1145.4 635.276 1086.28 629.958C974.885 619.937 862.253 633.383 787.392 646.418C773.904 648.764 760.416 651.101 746.928 653.447C691.057 663.131 633.29 673.142 577.068 683.67C520.33 694.295 468.838 703.544 413.037 709.242C370.397 713.587 328.365 715.786 287.925 715.786L287.878 715.796Z" fill="#5931FF"/>
<path d="M211.354 713.006C171.055 709.961 133.191 704.39 98.863 696.462C55.8241 686.514 22.5498 674.801 0 661.64L1.77963 661.016C24.1421 674.061 57.1354 685.679 99.8933 695.553C134.011 703.439 171.64 708.967 211.729 712.001L211.354 713.006Z" fill="#5931FF"/>
<path d="M1422.25 729.497C1400.31 729.497 1372.89 725.036 1339.08 715.987C1310.58 708.365 1282.81 700.817 1256.18 692.138C1251.38 690.573 1246.56 688.988 1241.74 687.402C1194.36 671.82 1145.38 655.71 1086.25 650.403C974.861 640.381 862.23 653.828 787.368 666.862C773.81 669.22 760.252 671.577 746.694 673.924C725.713 677.56 704.709 681.197 683.752 684.876L682.932 683.924C703.89 680.256 724.87 676.609 745.875 672.972C759.433 670.626 772.991 668.268 786.549 665.911C861.691 652.824 974.768 639.345 1086.67 649.399C1146.29 654.758 1195.46 670.932 1243.05 686.578C1247.87 688.163 1252.67 689.738 1257.47 691.303C1284.02 699.95 1311.75 707.498 1340.2 715.099C1383.24 726.611 1415.67 730.628 1439.32 727.372L1439.98 728.344C1434.52 729.095 1428.6 729.475 1422.23 729.475L1422.25 729.497Z" fill="#5931FF"/>
<path d="M287.504 736.252C227.371 736.252 161.571 731.378 98.863 716.896C55.8241 706.948 22.5498 695.235 0 682.074L1.77963 681.451C24.1186 694.485 57.1354 706.113 99.8933 715.987C210.558 741.558 330.964 737.013 412.499 728.693C468.112 723.016 519.534 713.777 576.154 703.174C590.86 700.426 605.987 697.646 622.401 694.675L623.244 695.616C606.83 698.586 591.703 701.356 577.021 704.115C520.284 714.739 468.791 723.989 412.991 729.687C377.258 733.334 334.055 736.252 287.48 736.252H287.504Z" fill="#5931FF"/>
<path d="M1422.25 749.931C1400.31 749.931 1372.89 745.47 1339.08 736.421C1310.58 728.799 1282.78 721.241 1256.18 712.572C1251.36 711.008 1246.56 709.422 1241.74 707.836C1194.36 692.254 1145.38 676.154 1086.25 670.837C1064.55 668.881 1041.64 667.74 1018.18 667.433L1018.25 666.418C1041.83 666.725 1064.85 667.877 1086.7 669.843C1146.29 675.203 1195.49 691.377 1243.07 707.022C1247.89 708.608 1252.69 710.183 1257.52 711.758C1284.05 720.405 1311.8 727.953 1340.25 735.554C1383.29 747.066 1415.72 751.083 1439.37 747.838L1440.02 748.81C1434.54 749.561 1428.64 749.941 1422.27 749.941L1422.25 749.931Z" fill="#5931FF"/>
<path d="M287.504 756.686C227.371 756.686 161.571 751.812 98.863 737.33C55.8241 727.382 22.5498 715.669 0 702.508L1.77963 701.885C24.1186 714.919 57.1354 726.547 99.8933 736.421C210.558 761.992 330.964 757.436 412.499 749.127C468.112 743.451 519.511 734.211 576.155 723.608C632.353 713.09 690.074 703.079 745.875 693.407C759.433 691.06 772.991 688.702 786.549 686.345C841.951 676.704 896.581 670.457 948.963 667.793L949.221 668.807C897.026 671.461 842.56 677.677 787.345 687.296C773.787 689.654 760.229 692.011 746.671 694.358C690.87 704.031 633.173 714.031 577.021 724.549C520.284 735.173 468.768 744.434 412.991 750.121C377.258 753.768 334.055 756.686 287.48 756.686H287.504Z" fill="#5931FF"/>
<path d="M343.398 775.767L343.164 774.752C365.947 773.674 389.27 771.929 412.499 769.561C468.112 763.885 519.534 754.645 576.154 744.043C632.423 733.514 690.214 723.492 746.085 713.809C759.573 711.473 773.061 709.136 786.548 706.779C861.691 693.692 974.768 680.214 1086.67 690.267C1146.27 695.626 1195.46 711.8 1243.05 727.446C1247.87 729.031 1252.67 730.607 1257.49 732.182C1284.02 740.829 1311.77 748.377 1340.22 755.977C1383.26 767.489 1415.69 771.506 1439.34 768.251L1440 769.223C1415.72 772.553 1382.7 768.515 1339.08 756.844C1310.58 749.222 1282.78 741.664 1256.18 732.996C1251.36 731.431 1246.56 729.845 1241.74 728.26C1194.36 712.678 1145.38 696.578 1086.25 691.261C974.861 681.25 862.23 694.686 787.368 707.72C773.88 710.067 760.393 712.403 746.905 714.75C691.034 724.433 633.266 734.444 577.044 744.973C520.307 755.597 468.815 764.847 413.014 770.544C389.691 772.923 366.275 774.678 343.398 775.756V775.767Z" fill="#5931FF"/>
<path d="M272.892 776.993C208.896 776.116 150.332 769.646 98.863 757.753C55.8241 747.806 22.5498 736.093 0 722.932L1.77963 722.308C24.1421 735.353 57.1354 746.971 99.8933 756.844C151.058 768.663 209.294 775.101 272.962 775.968L272.892 776.982V776.993Z" fill="#5931FF"/>
<path d="M1422.25 790.799C1400.31 790.799 1372.89 786.338 1339.08 777.289C1310.58 769.667 1282.81 762.119 1256.18 753.44C1251.38 751.876 1246.56 750.29 1241.74 748.705C1194.36 733.123 1145.38 717.012 1086.25 711.705C974.861 701.684 862.23 715.13 787.368 728.165C776.925 729.983 766.481 731.791 756.061 733.598L755.241 732.647C765.685 730.839 776.128 729.021 786.549 727.213C861.691 714.126 974.768 700.637 1086.67 710.701C1146.27 716.061 1195.46 732.235 1243.05 747.88C1247.87 749.466 1252.67 751.041 1257.47 752.605C1284.02 761.253 1311.75 768.8 1340.2 776.401C1383.24 787.913 1415.67 791.93 1439.32 788.674L1439.98 789.647C1434.52 790.397 1428.6 790.778 1422.23 790.778L1422.25 790.799Z" fill="#5931FF"/>
<path d="M287.504 797.554C227.371 797.554 161.571 792.681 98.863 778.198C55.8241 768.251 22.5498 756.538 0 743.377L1.77963 742.753C24.1186 755.787 57.1354 767.415 99.8933 777.289C210.558 802.861 330.964 798.304 412.499 789.996C468.089 784.329 519.511 775.09 576.154 764.477C603.692 759.318 633.196 753.98 668.976 747.679L669.796 748.63C634.039 754.931 604.558 760.269 577.021 765.418C520.284 776.042 468.768 785.302 412.991 790.989C377.258 794.636 334.055 797.554 287.48 797.554H287.504Z" fill="#5931FF"/>
<path d="M1422.25 811.233C1400.31 811.233 1372.89 806.772 1339.08 797.723C1310.58 790.101 1282.78 782.543 1256.18 773.874C1251.36 772.31 1246.56 770.724 1241.74 769.139C1200.43 755.555 1157.72 741.516 1108.38 734.666L1109.04 733.693C1158.75 740.596 1201.62 754.688 1243.07 768.314C1247.89 769.9 1252.69 771.475 1257.52 773.05C1284.05 781.697 1311.8 789.245 1340.25 796.846C1383.29 808.358 1415.72 812.375 1439.37 809.129L1440.02 810.102C1434.54 810.852 1428.64 811.233 1422.27 811.233H1422.25Z" fill="#5931FF"/>
<path d="M287.504 817.988C227.371 817.988 161.571 813.115 98.863 798.632C55.8241 788.685 22.5498 776.972 0 763.811L1.77963 763.187C24.1186 776.221 57.1354 787.85 99.8933 797.723C210.558 823.295 330.964 818.739 412.499 810.43C468.112 804.753 519.511 795.514 576.155 784.911C632.424 774.382 690.215 764.36 746.086 754.677C759.573 752.341 773.061 750.005 786.549 747.647C861.597 734.581 937.068 727.657 1004.81 727.636V728.651C937.349 728.672 862.159 735.565 787.368 748.588C773.881 750.935 760.393 753.271 746.905 755.618C691.034 765.301 633.267 775.312 577.044 785.841C520.307 796.465 468.791 805.715 413.014 811.413C377.281 815.06 334.078 817.978 287.504 817.978V817.988Z" fill="#5931FF"/>
<path d="M1422.25 831.667C1400.31 831.667 1372.89 827.206 1339.08 818.157C1310.58 810.535 1282.78 802.977 1256.18 794.309C1251.36 792.744 1246.56 791.158 1241.74 789.573C1194.36 773.991 1145.38 757.891 1086.25 752.574C974.862 742.552 862.23 755.999 787.368 769.033C773.904 771.38 760.44 773.705 746.976 776.042C703.445 783.589 658.416 791.391 614.417 799.393L613.574 798.452C657.596 790.45 702.625 782.649 746.179 775.101C759.644 772.764 773.108 770.428 786.572 768.092C861.715 755.005 974.791 741.516 1086.7 751.58C1146.29 756.939 1195.49 773.113 1243.07 788.759C1247.89 790.344 1252.69 791.919 1257.52 793.495C1284.05 802.142 1311.8 809.69 1340.25 817.29C1383.29 828.802 1415.72 832.819 1439.37 829.563L1440.02 830.536C1434.57 831.287 1428.64 831.667 1422.27 831.667H1422.25Z" fill="#5931FF"/>
<path d="M287.504 838.422C227.371 838.422 161.571 833.549 98.863 819.066C55.8241 809.119 22.5498 797.406 0 784.245L1.77963 783.621C24.1421 796.666 57.1354 808.284 99.8933 818.157C210.558 843.718 330.964 839.173 412.499 830.864C460.853 825.927 506.702 818.094 545.175 811.085L546.018 812.026C507.451 819.056 461.486 826.91 412.991 831.857C377.258 835.504 334.055 838.422 287.48 838.422H287.504Z" fill="#5931FF"/>
<path d="M331.479 858L331.292 856.985C357.916 855.981 385.243 854.067 412.523 851.287C468.113 845.621 519.534 836.382 576.178 825.768C632.424 815.24 690.191 805.229 746.039 795.545C759.55 793.199 773.061 790.862 786.572 788.505C861.715 775.418 974.791 761.94 1086.7 771.993C1146.29 777.352 1195.49 793.526 1243.07 809.172C1247.89 810.757 1252.69 812.332 1257.49 813.897C1284.05 822.544 1311.77 830.092 1340.22 837.693C1383.26 849.205 1415.69 853.222 1439.34 849.966L1440 850.938C1415.72 854.268 1382.7 850.23 1339.08 838.56C1310.58 830.938 1282.81 823.39 1256.18 814.711C1251.38 813.146 1246.56 811.561 1241.74 809.975C1194.36 794.393 1145.38 778.283 1086.25 772.976C974.862 762.954 862.23 776.401 787.368 789.435C773.857 791.782 760.346 794.129 746.835 796.476C690.988 806.159 633.243 816.17 577.021 826.688C520.284 837.312 468.768 846.562 412.991 852.26C385.617 855.051 358.174 856.975 331.456 857.979L331.479 858Z" fill="#5931FF"/>
<path d="M213.321 856.182C172.273 853.169 133.753 847.556 98.863 839.49C55.8241 829.542 22.5498 817.829 0 804.668L1.77963 804.045C24.1186 817.079 57.1354 828.707 99.8933 838.581C134.573 846.594 172.881 852.175 213.696 855.177L213.345 856.182H213.321Z" fill="#5931FF"/>
<path d="M290.243 613.097V612.082C329.77 611.998 370.912 609.799 412.499 605.56C468.089 599.894 519.511 590.655 576.154 580.041C632.4 569.512 690.168 559.501 746.015 549.818C759.526 547.482 773.037 545.135 786.549 542.778C861.691 529.691 974.768 516.212 1086.67 526.265C1146.27 531.625 1195.46 547.799 1243.05 563.444C1247.87 565.03 1252.67 566.605 1257.47 568.17C1284.02 576.817 1311.75 584.365 1340.2 591.965C1383.24 603.477 1415.67 607.495 1439.32 604.239L1439.98 605.211C1415.69 608.541 1382.68 604.503 1339.05 592.832C1310.56 585.21 1282.78 577.663 1256.16 568.984C1251.36 567.419 1246.54 565.833 1241.71 564.248C1194.34 548.666 1145.35 532.555 1086.23 527.249C974.838 517.227 862.206 530.674 787.345 543.708C773.834 546.055 760.322 548.402 746.811 550.748C690.964 560.432 633.22 570.443 576.997 580.961C520.26 591.585 468.745 600.835 412.967 606.533C371.216 610.793 329.91 612.992 290.22 613.076L290.243 613.097Z" fill="#5931FF"/>
<path d="M194.822 608.9C160.728 605.687 128.438 600.592 98.863 593.752C55.8241 583.804 22.5498 572.092 0 558.93L1.77963 558.307C24.1186 571.341 57.1354 582.969 99.8933 592.843C129.304 599.64 161.408 604.704 195.291 607.896L194.822 608.89V608.9Z" fill="#5931FF"/>
<path d="M287.504 592.145C227.371 592.145 161.595 587.272 98.8865 572.789C55.8476 562.842 22.5732 551.129 0.0234375 537.968L1.80307 537.344C24.1655 550.389 57.1589 562.007 99.9168 571.88C210.582 597.452 330.987 592.896 412.522 584.587C468.136 578.91 519.558 569.671 576.178 559.068C632.447 548.539 690.238 538.518 746.109 528.834C759.597 526.498 773.084 524.162 786.572 521.804C861.715 508.717 974.791 495.239 1086.7 505.292C1146.29 510.652 1195.49 526.826 1243.05 542.471C1247.87 544.057 1252.67 545.643 1257.49 547.207C1284.03 555.854 1311.75 563.402 1340.22 571.003C1383.26 582.515 1415.69 586.532 1439.34 583.276L1440 584.248C1415.72 587.578 1382.7 583.54 1339.08 571.87C1310.58 564.248 1282.78 556.689 1256.18 548.021C1251.36 546.456 1246.56 544.871 1241.74 543.285C1194.36 527.703 1145.38 511.603 1086.28 506.286C974.885 496.264 862.253 509.711 787.392 522.745C773.904 525.092 760.416 527.428 746.929 529.775C691.058 539.458 633.29 549.469 577.068 559.998C520.33 570.622 468.838 579.872 413.038 585.57C377.305 589.217 334.102 592.135 287.527 592.135L287.504 592.145Z" fill="#5931FF"/>
<path d="M1422.25 564.417C1400.31 564.417 1372.89 559.956 1339.08 550.907C1310.58 543.285 1282.78 535.727 1256.18 527.058C1251.36 525.494 1246.56 523.908 1241.74 522.322C1194.36 506.741 1145.38 490.641 1086.25 485.323C974.861 475.302 862.23 488.748 787.368 501.783C773.88 504.129 760.393 506.466 746.905 508.812C691.034 518.496 633.266 528.507 577.044 539.036L576.178 538.095C632.447 527.566 690.238 517.544 746.109 507.861C759.597 505.525 773.084 503.189 786.572 500.831C861.714 487.744 974.791 474.266 1086.7 484.319C1146.29 489.679 1195.49 505.853 1243.07 521.498C1247.89 523.084 1252.69 524.659 1257.52 526.234C1284.05 534.881 1311.8 542.429 1340.25 550.03C1383.29 561.542 1415.72 565.559 1439.37 562.313L1440.02 563.286C1434.57 564.036 1428.64 564.417 1422.27 564.417H1422.25Z" fill="#5931FF"/>
<path d="M287.504 571.172C227.371 571.172 161.571 566.299 98.863 551.816C55.8241 541.869 22.5498 530.156 0 516.995L1.77963 516.371C24.1421 529.416 57.1354 541.033 99.8933 550.907C210.558 576.468 330.964 571.933 412.499 563.613C426.736 562.165 440.996 560.442 456.123 558.37L456.779 559.343C441.605 561.425 427.275 563.148 412.991 564.607C377.258 568.254 334.055 571.172 287.48 571.172H287.504Z" fill="#5931FF"/>
<path d="M1422.25 543.444C1400.31 543.444 1372.89 538.983 1339.08 529.934C1310.58 522.312 1282.78 514.753 1256.18 506.085C1251.38 504.521 1246.58 502.935 1241.76 501.36C1230.8 497.755 1219.49 494.034 1208.18 490.493L1209.47 489.657C1220.8 493.209 1232.13 496.93 1243.09 500.535C1247.89 502.121 1252.69 503.696 1257.49 505.261C1284.03 513.908 1311.77 521.456 1340.22 529.056C1383.26 540.568 1415.69 544.585 1439.34 541.34L1440 542.313C1434.52 543.063 1428.62 543.444 1422.25 543.444Z" fill="#5931FF"/>
<path d="M287.504 550.199C227.371 550.199 161.571 545.325 98.863 530.843C55.8241 520.895 22.5498 509.182 0 496.021L1.77963 495.398C24.1186 508.432 57.1354 520.06 99.8933 529.934C210.558 555.505 330.964 550.949 412.499 542.64C468.112 536.964 519.511 527.724 576.155 517.121C632.353 506.603 690.074 496.592 745.875 486.92C759.433 484.573 772.991 482.215 786.549 479.858C861.691 466.771 974.768 453.293 1086.67 463.356C1110.44 465.492 1134.18 469.477 1159.29 475.545L1158.21 476.444C1133.32 470.429 1109.76 466.464 1086.23 464.35C974.838 454.329 862.206 467.775 787.345 480.809C773.787 483.167 760.229 485.524 746.671 487.871C690.87 497.544 633.173 507.544 577.021 518.062C520.284 528.686 468.768 537.936 412.991 543.634C377.258 547.281 334.055 550.199 287.48 550.199H287.504Z" fill="#5931FF"/>
<path d="M1422.25 522.47C1400.31 522.47 1372.89 518.009 1339.08 508.96C1310.58 501.339 1282.81 493.791 1256.18 485.112C1251.38 483.547 1246.56 481.962 1241.74 480.376C1194.36 464.794 1145.38 448.684 1086.25 443.377C1004.81 436.051 909.46 440.417 810.48 455.999L809.73 455.037C909.109 439.391 1004.88 435.015 1086.67 442.373C1146.27 447.732 1195.46 463.906 1243.05 479.551C1247.87 481.137 1252.67 482.712 1257.47 484.287C1284.02 492.935 1311.75 500.482 1340.2 508.083C1383.24 519.595 1415.67 523.612 1439.32 520.356L1439.98 521.329C1434.52 522.079 1428.6 522.46 1422.23 522.46L1422.25 522.47Z" fill="#5931FF"/>
<path d="M287.504 529.225C227.371 529.225 161.571 524.352 98.863 509.87C55.8241 499.922 22.5498 488.209 0 475.048L1.77963 474.424C24.1186 487.459 57.1354 499.087 99.8933 508.96C210.558 534.532 330.964 529.976 412.499 521.667C468.089 516.001 519.511 506.762 576.155 496.148C627.787 486.476 678.483 477.627 734.658 467.891L735.478 468.843C679.326 478.579 628.654 487.427 577.021 497.089C520.284 507.713 468.768 516.963 412.991 522.661C377.258 526.308 334.055 529.225 287.48 529.225H287.504Z" fill="#5931FF"/>
<path d="M296.94 508.189L296.894 507.174C334.383 506.867 373.277 504.69 412.499 500.683C468.112 495.006 519.534 485.767 576.155 475.164C632.424 464.635 690.215 454.614 746.086 444.931C759.573 442.595 773.061 440.258 786.549 437.901C861.691 424.814 974.768 411.325 1086.67 421.399C1146.29 426.759 1195.47 442.933 1243.05 458.578C1247.87 460.164 1252.67 461.739 1257.47 463.303C1284 471.951 1311.75 479.499 1340.2 487.099C1383.24 498.611 1415.67 502.628 1439.32 499.372L1439.98 500.345C1415.69 503.675 1382.68 499.637 1339.05 487.966C1310.56 480.344 1282.76 472.786 1256.16 464.117C1251.36 462.553 1246.54 460.967 1241.71 459.382C1194.34 443.8 1145.35 427.689 1086.23 422.372C974.838 412.361 862.206 425.797 787.345 438.831C773.857 441.178 760.37 443.514 746.882 445.861C691.011 455.544 633.243 465.555 577.021 476.084C520.284 486.708 468.792 495.958 412.991 501.656C373.605 505.673 334.547 507.861 296.917 508.168L296.94 508.189Z" fill="#5931FF"/>
<path d="M195.174 504.066C160.963 500.852 128.555 495.746 98.863 488.886C55.8241 478.938 22.5498 467.225 0 454.064L1.77963 453.441C24.1421 466.485 57.1354 478.103 99.8933 487.977C129.398 494.795 161.618 499.869 195.642 503.062L195.174 504.055V504.066Z" fill="#5931FF"/>
<path d="M287.504 487.279C227.371 487.279 161.571 482.406 98.863 467.923C55.8241 457.976 22.5498 446.263 0 433.102L1.77963 432.478C24.1421 445.523 57.1354 457.14 99.8933 467.014C210.558 492.586 330.964 488.029 412.499 479.721C468.112 474.044 519.534 464.805 576.155 454.202C632.4 443.673 690.144 433.662 745.969 423.979C759.503 421.632 773.014 419.285 786.549 416.938C861.691 403.851 974.768 390.362 1086.67 400.437C1146.27 405.796 1195.46 421.97 1243.05 437.616C1247.87 439.201 1252.67 440.776 1257.49 442.351C1284.03 450.999 1311.77 458.546 1340.22 466.147C1383.26 477.659 1415.69 481.676 1439.34 478.431L1440 479.403C1415.69 482.733 1382.7 478.695 1339.08 467.025C1310.58 459.403 1282.78 451.844 1256.18 443.176C1251.36 441.611 1246.56 440.026 1241.74 438.44C1194.36 422.858 1145.38 406.748 1086.25 401.441C974.861 391.43 862.23 404.866 787.368 417.9C773.857 420.258 760.323 422.604 746.788 424.941C690.964 434.624 633.22 444.624 577.021 455.153C520.284 465.777 468.791 475.027 412.991 480.725C377.258 484.372 334.055 487.29 287.48 487.29L287.504 487.279Z" fill="#5931FF"/>
</g>
<defs>
<clipPath id="clip0_3059_1718">
<rect width="1440" height="858" fill="white"/>
</clipPath>
</defs>
</svg>
