<svg width="1440" height="844" viewBox="0 0 1440 844" fill="none" xmlns="http://www.w3.org/2000/svg">
<g clip-path="url(#clip0_5012_110)">
<mask id="mask0_5012_110" style="mask-type:luminance" maskUnits="userSpaceOnUse" x="0" y="0" width="600" height="844">
<path d="M599.542 0H0.24707V844H599.542V0Z" fill="white"/>
</mask>
<g mask="url(#mask0_5012_110)">
<path d="M707.318 409.284L707.177 409.354L657.296 509.125L557.658 558.949L557.516 559.019L507.636 658.79L407.997 708.613L407.856 708.684L357.975 808.455L290.99 841.953H293.003L358.522 809.196L358.663 809.125L408.544 709.355L508.183 659.531L508.324 659.46L558.205 559.69L657.843 509.866L657.984 509.796L707.865 410.025L807.504 360.219L807.645 360.149L840.475 294.511V292.499L806.974 359.478L707.336 409.284H707.318ZM694.839 396.823L694.698 396.894L644.817 496.665L545.179 546.488L545.037 546.559L495.156 646.33L395.518 696.153L395.377 696.224L345.496 795.994L253.571 841.953H255.583L346.043 796.736L346.184 796.665L396.065 696.894L495.704 647.071L495.845 647L545.726 547.23L645.364 497.406L645.505 497.335L695.386 397.565L795.025 347.741L795.166 347.671L840.458 257.078V255.066L794.495 347L694.857 396.823H694.839ZM744.597 147.476L694.716 247.247L595.077 297.07L594.936 297.141L545.055 396.912L445.417 446.735L445.275 446.806L395.394 546.577L295.756 596.382L295.615 596.453L245.734 696.224L146.095 746.03L145.954 746.1L98.0325 841.935H99.0386L146.625 746.753L246.263 696.947L246.405 696.877L296.286 597.106L395.924 547.3L396.065 547.23L445.946 447.459L545.585 397.653L545.726 397.582L595.607 297.812L695.245 247.988L695.386 247.918L745.267 148.147L840.458 100.565V99.5588L744.738 147.423L744.597 147.494V147.476ZM757.076 159.937L707.195 259.707L607.556 309.531L607.415 309.601L557.534 409.372L457.896 459.196L457.755 459.266L407.874 559.037L308.235 608.86L308.094 608.931L258.213 708.702L158.575 758.508L158.433 758.578L116.742 841.953H117.748L159.104 759.249L258.742 709.443L258.884 709.372L308.765 609.602L408.403 559.796L408.544 559.725L458.425 459.954L558.064 410.131L558.205 410.06L608.086 310.29L707.724 260.466L707.865 260.396L757.746 160.625L840.458 119.273V118.267L757.217 159.884L757.076 159.954V159.937ZM819.436 521.585L769.555 621.356L669.916 671.18L669.775 671.25L619.894 771.021L520.256 820.844L520.115 820.915L509.595 841.935H510.601L520.785 821.586L620.424 771.762L620.565 771.691L670.446 671.921L770.084 622.097L770.225 622.027L820.106 522.256L840.458 512.072V511.066L819.559 521.515L819.418 521.585H819.436ZM831.897 534.063L782.016 633.834L682.378 683.657L682.237 683.728L632.356 783.499L532.717 833.322L532.576 833.393L528.305 841.935H529.311L533.247 834.064L632.885 784.24L633.026 784.169L682.907 684.399L782.546 634.575L782.687 634.505L832.568 534.734L840.458 530.798V529.792L832.038 533.993L831.897 534.063ZM732.259 434.222L732.118 434.293L682.237 534.063L582.598 583.869L582.457 583.94L532.576 683.71L432.938 733.534L432.796 733.605L382.915 833.375L365.812 841.917H367.824L383.445 834.099L383.586 834.028L433.467 734.258L533.106 684.434L533.247 684.363L583.128 584.593L682.766 534.787L682.907 534.716L732.788 434.946L832.427 385.14L832.568 385.069L840.458 369.308V367.296L831.897 384.398L732.259 434.204V434.222ZM719.78 421.762L719.638 421.832L669.758 521.603L570.119 571.409L569.978 571.479L520.097 671.25L420.459 721.074L420.317 721.144L370.436 820.915L328.392 841.935H330.404L370.983 821.656L371.125 821.586L421.006 721.815L520.644 671.991L520.785 671.921L570.666 572.15L670.305 522.344L670.446 522.274L720.327 422.503L819.965 372.697L820.106 372.627L840.458 331.928V329.916L819.436 371.956L719.797 421.762H719.78ZM806.957 209.831L757.076 309.601L657.437 359.425L657.296 359.496L607.415 459.266L507.777 509.09L507.636 509.16L457.755 608.931L358.116 658.755L357.975 658.825L308.094 758.596L208.456 808.419L208.314 808.49L191.564 841.988H192.57L208.985 809.161L308.623 759.337L308.765 759.266L358.646 659.496L458.284 609.672L458.425 609.602L508.306 509.831L607.945 460.007L608.086 459.937L657.967 360.166L757.605 310.343L757.746 310.272L807.627 210.501L840.458 194.088V193.082L807.098 209.76L806.957 209.831ZM831.897 234.769L782.016 334.54L682.378 384.363L682.237 384.434L632.356 484.204L532.717 534.028L532.576 534.099L482.695 633.869L383.057 683.693L382.915 683.763L333.034 783.534L233.396 833.358L233.255 833.428L228.983 841.97H229.989L233.926 834.099L333.564 784.275L333.705 784.205L383.586 684.434L483.225 634.611L483.366 634.54L533.247 534.769L632.885 484.946L633.026 484.875L682.907 385.104L782.546 335.281L782.687 335.21L832.568 235.44L840.458 231.504V230.498L832.038 234.698L831.897 234.769ZM819.436 222.291L769.555 322.062L669.916 371.885L669.775 371.956L619.894 471.726L520.256 521.55L520.115 521.621L470.234 621.391L370.595 671.215L370.454 671.285L320.573 771.056L220.935 820.88L220.793 820.95L210.274 841.97H211.28L221.446 821.621L321.085 771.797L321.226 771.727L371.107 671.956L470.745 622.133L470.887 622.062L520.768 522.291L620.406 472.468L620.547 472.397L670.428 372.627L770.067 322.803L770.208 322.732L820.089 222.962L840.44 212.778V211.772L819.542 222.22L819.4 222.291H819.436ZM769.537 172.415L719.656 272.185L620.018 322.009L619.877 322.079L569.996 421.85L470.357 471.674L470.216 471.744L420.335 571.515L320.697 621.338L320.555 621.409L270.674 721.18L171.036 770.985L170.895 771.056L135.434 841.953H136.441L171.565 771.727L271.204 721.921L271.345 721.85L321.226 622.08L420.864 572.256L421.006 572.185L470.887 472.415L570.525 422.591L570.666 422.521L620.547 322.75L720.186 272.926L720.327 272.856L770.208 173.085L840.458 137.963V136.957L769.678 172.344L769.537 172.415ZM732.259 134.928L732.118 134.998L682.237 234.769L582.598 284.593L582.457 284.663L532.576 384.434L432.938 434.24L432.796 434.31L382.915 534.081L283.277 583.887L283.136 583.957L233.255 683.728L133.616 733.552L133.475 733.622L83.5942 833.393L66.4907 841.935H68.5029L84.1237 834.116L84.265 834.046L134.146 734.275L233.784 684.452L233.926 684.381L283.807 584.61L383.445 534.805L383.586 534.734L433.467 434.963L533.106 385.157L533.247 385.087L583.128 285.316L682.766 235.493L682.907 235.422L732.788 135.651L832.427 85.8278L832.568 85.7572L840.458 69.9965V67.9845L831.897 85.0865L732.259 134.91V134.928ZM782.016 184.892L732.135 284.663L632.497 334.487L632.356 334.557L582.475 434.328L482.836 484.152L482.695 484.222L432.814 583.993L333.176 633.816L333.034 633.887L283.153 733.658L183.515 783.463L183.374 783.534L154.162 841.97H155.168L184.045 784.205L283.683 734.399L283.824 734.328L333.705 634.558L433.344 584.734L433.485 584.663L483.366 484.893L583.004 435.069L583.145 434.999L633.026 335.228L732.665 285.404L732.806 285.334L782.687 185.563L840.458 156.689V155.683L782.157 184.84L782.016 184.91V184.892ZM806.957 509.125L757.076 608.896L657.437 658.719L657.296 658.79L607.415 758.56L507.777 808.384L507.636 808.455L490.885 841.953H491.891L508.306 809.125L607.945 759.302L608.086 759.231L657.967 659.46L757.605 609.637L757.746 609.566L807.627 509.796L840.458 493.382V492.376L807.098 509.054L806.957 509.125ZM819.436 72.6439L719.797 122.467L719.656 122.538L669.775 222.309L570.137 272.115L569.996 272.185L520.115 371.956L420.476 421.762L420.335 421.832L370.454 521.603L270.816 571.409L270.674 571.479L220.793 671.25L121.155 721.074L121.014 721.144L71.1328 820.915L29.0888 841.935H31.1009L71.68 821.656L71.8212 821.586L121.702 721.815L221.341 671.991L221.482 671.921L271.363 572.15L371.001 522.344L371.142 522.274L421.023 422.503L520.662 372.697L520.803 372.627L570.684 272.856L670.322 223.05L670.464 222.979L720.345 123.209L819.983 73.3852L820.124 73.3146L840.475 32.6156V30.6036L819.453 72.6439H819.436ZM794.478 197.353L744.597 297.123L644.958 346.947L644.817 347.018L594.936 446.788L495.298 496.612L495.156 496.682L445.275 596.453L345.637 646.277L345.496 646.347L295.615 746.118L195.976 795.941L195.835 796.012L172.854 841.97H173.86L196.506 796.683L296.144 746.859L296.286 746.789L346.167 647.018L445.805 597.194L445.946 597.124L495.827 497.353L595.466 447.53L595.607 447.459L645.488 347.688L745.126 297.865L745.267 297.794L795.148 198.023L840.44 175.38V174.374L794.601 197.282L794.46 197.353H794.478ZM769.537 771.003L734.077 841.9H735.083L770.208 771.674L840.458 736.552V735.546L769.678 770.933L769.537 771.003ZM782.016 783.463L752.804 841.9H753.81L782.687 784.134L840.458 755.26V754.254L782.157 783.41L782.016 783.481V783.463ZM744.597 746.065L696.675 841.9H697.681L745.267 746.718L840.458 699.136V698.13L744.738 745.977L744.597 746.047V746.065ZM794.478 795.941L771.496 841.9H772.502L795.148 796.612L840.44 773.968V772.962L794.601 795.871L794.46 795.941H794.478ZM732.259 733.516L732.118 733.587L682.237 833.358L665.133 841.9H667.145L682.766 834.081L682.907 834.011L732.788 734.24L832.427 684.416L832.568 684.346L840.458 668.585V666.573L831.897 683.675L732.259 733.499V733.516ZM831.897 833.358L827.626 841.9H828.632L832.568 834.028L840.458 830.092V829.087L832.038 833.287L831.897 833.358ZM819.436 820.88L808.916 841.9H809.922L820.106 821.55L840.458 811.367V810.361L819.559 820.809L819.418 820.88H819.436ZM794.478 496.647L744.597 596.418L644.958 646.241L644.817 646.312L594.936 746.083L495.298 795.906L495.156 795.977L472.175 841.935H473.181L495.827 796.647L595.466 746.824L595.607 746.753L645.488 646.983L745.126 597.159L745.267 597.088L795.148 497.318L840.44 474.674V473.668L794.601 496.576L794.46 496.647H794.478ZM806.957 808.419L790.206 841.917H791.212L807.627 809.09L840.458 792.676V791.67L807.098 808.349L806.957 808.419ZM719.78 721.056L719.638 721.127L669.758 820.897L627.713 841.917H629.726L670.287 821.639L670.428 821.568L720.309 721.797L819.948 671.974L820.089 671.903L840.44 631.204V629.192L819.418 671.233L719.78 721.056ZM757.076 459.231L707.195 559.002L607.556 608.807L607.415 608.878L557.534 708.649L457.896 758.455L457.755 758.525L416.063 841.9H417.07L458.425 759.196L558.064 709.39L558.205 709.319L608.086 609.549L707.724 559.743L707.865 559.672L757.746 459.902L840.458 418.55V417.544L757.217 459.16L757.076 459.231ZM782.016 484.187L732.135 583.957L632.497 633.781L632.356 633.852L582.475 733.622L482.836 783.428L482.695 783.499L453.483 841.935H454.489L483.366 784.169L583.004 734.363L583.145 734.293L633.026 634.522L732.665 584.699L732.806 584.628L782.687 484.857L840.458 455.983V454.977L782.157 484.134L782.016 484.204V484.187ZM769.537 471.709L719.656 571.479L620.018 621.303L619.877 621.374L569.996 721.144L470.357 770.95L470.216 771.021L434.756 841.917H435.762L470.887 771.691L570.525 721.886L570.666 721.815L620.547 622.044L720.186 572.221L720.327 572.15L770.208 472.38L840.458 437.258V436.252L769.678 471.638L769.537 471.709ZM744.597 446.771L694.716 546.541L595.077 596.347L594.936 596.418L545.055 696.188L445.417 745.994L445.275 746.065L397.354 841.9H398.36L445.946 746.718L545.585 696.912L545.726 696.841L595.607 597.071L695.245 547.265L695.386 547.194L745.267 447.424L840.458 399.841V398.835L744.738 446.7L744.597 446.771ZM707.318 708.578L707.177 708.649L657.296 808.419L590.312 841.917H592.324L657.843 809.161L657.984 809.09L707.865 709.319L807.504 659.496L807.645 659.425L840.475 593.788V591.776L806.974 658.755L707.336 708.578H707.318ZM694.839 696.118L694.698 696.188L644.817 795.959L552.892 841.917H554.904L645.364 796.7L645.505 796.63L695.386 696.859L795.025 647.035L795.166 646.965L840.458 556.372V554.36L794.495 646.294L694.857 696.118H694.839ZM757.076 758.525L715.385 841.9H716.391L757.746 759.196L840.458 717.844V716.838L757.217 758.455L757.076 758.525ZM59.3245 360.149L158.963 310.325L159.104 310.254L208.985 210.484L308.623 160.66L308.765 160.59L358.646 60.819L458.284 11.0131L458.425 10.9425L462.697 2.38263H461.691L457.755 10.2718L358.116 60.0777L357.975 60.1483L308.094 159.919L208.456 209.742L208.314 209.813L158.433 309.584L58.7949 359.407L58.6537 359.478L8.77276 459.249L0.882885 463.184V464.19L9.44349 459.919L59.3245 360.149ZM34.384 484.84L84.265 385.069L183.903 335.246L184.045 335.175L233.926 235.404L333.564 185.598L333.705 185.528L383.586 85.7572L483.225 35.9513L483.366 35.8807L500.116 2.38263H499.11L482.695 35.2101L383.057 85.0159L382.915 85.0865L333.034 184.857L233.396 234.663L233.255 234.734L183.374 334.504L83.7354 384.328L83.5942 384.398L33.7133 484.169L0.882885 500.583V501.589L34.2428 484.91L34.384 484.84ZM121.543 572.203L121.685 572.133L171.565 472.362L271.204 422.538L271.345 422.468L321.226 322.697L420.864 272.874L421.006 272.803L470.887 173.032L570.525 123.209L570.666 123.138L620.547 23.3675L662.609 2.34734H660.597L620.018 22.6439L619.877 22.7145L569.996 122.485L470.357 172.309L470.216 172.379L420.335 272.15L320.697 321.973L320.555 322.044L270.674 421.815L171.036 471.638L170.895 471.709L121.014 571.479L21.3754 621.303L21.2342 621.374L0.882885 662.073V664.085L21.9049 622.044L121.543 572.221V572.203ZM109.082 559.743L109.223 559.672L159.104 459.902L258.742 410.078L258.884 410.007L308.765 310.237L408.403 260.413L408.544 260.343L458.425 160.572L558.064 110.748L558.205 110.678L608.086 10.9072L625.189 2.34734H623.177L607.539 10.1659L607.397 10.2365L557.516 110.007L457.878 159.831L457.737 159.901L407.856 259.672L308.217 309.495L308.076 309.566L258.195 409.337L158.557 459.16L158.416 459.231L108.535 559.002L8.89632 608.825L8.75511 608.896L0.865234 624.656V626.668L9.42584 609.566L109.064 559.76L109.082 559.743ZM26.5471 2.41793H24.5349L8.89632 10.2365L8.75511 10.3071L0.882885 26.0678V28.0798L9.44349 10.9601L26.5471 2.41793ZM71.7859 522.256L121.667 422.485L221.305 372.679L221.446 372.609L271.327 272.838L370.966 223.032L371.107 222.962L420.988 123.191L520.626 73.3675L520.768 73.2969L556.228 2.41793H555.222L520.097 72.6615L420.459 122.485L420.317 122.556L370.436 222.326L270.798 272.132L270.657 272.203L220.776 371.973L121.137 421.779L120.996 421.85L71.1152 521.621L0.882885 556.707V557.713L71.6623 522.327L71.8035 522.256H71.7859ZM59.3245 509.796L109.205 410.025L208.844 360.219L208.985 360.149L258.866 260.378L358.504 210.572L358.646 210.501L408.527 110.731L508.165 60.9072L508.306 60.8366L537.518 2.41793H536.512L507.618 60.1836L407.979 110.007L407.838 110.078L357.957 209.848L258.319 259.654L258.178 259.725L208.297 359.496L108.658 409.301L108.517 409.372L58.6361 509.143L0.882885 537.999V539.005L59.1833 509.849L59.3245 509.778V509.796ZM46.8454 497.318L96.7264 397.547L196.365 347.724L196.506 347.653L246.387 247.882L346.025 198.076L346.167 198.006L396.048 98.2352L495.686 48.4293L495.827 48.3587L518.808 2.40028H517.802L495.156 47.7057L395.518 97.5115L395.377 97.5821L345.496 197.353L245.857 247.159L245.716 247.229L195.835 347L96.1969 396.823L96.0556 396.894L46.1747 496.665L0.882885 519.309V520.315L46.7218 497.406L46.863 497.335L46.8454 497.318ZM34.384 784.134L84.265 684.363L183.903 634.54L184.045 634.469L233.926 534.699L333.564 484.875L333.705 484.805L383.586 385.034L483.225 335.21L483.366 335.14L533.247 235.369L632.885 185.563L633.026 185.493L682.907 85.7219L782.546 35.916L782.687 35.8454L799.437 2.34734H798.431L782.016 35.1748L682.378 84.9807L682.237 85.0512L632.356 184.822L532.717 234.628L532.576 234.698L482.695 334.469L383.057 384.293L382.915 384.363L333.034 484.134L233.396 533.957L233.255 534.028L183.374 633.799L83.7354 683.622L83.5942 683.693L33.7133 783.463L0.882885 799.877V800.883L34.2428 784.205L34.384 784.134ZM21.9049 771.674L71.7859 671.903L171.424 622.08L171.565 622.009L221.446 522.238L321.085 472.415L321.226 472.344L371.107 372.574L470.745 322.75L470.887 322.679L520.768 222.909L620.406 173.085L620.547 173.015L670.428 73.244L770.067 23.4381L770.208 23.3675L780.728 2.34734H779.722L769.537 22.6968L669.899 72.5027L669.758 72.5733L619.877 172.344L520.238 222.167L520.097 222.238L470.216 322.009L370.578 371.832L370.436 371.903L320.555 471.674L220.917 521.497L220.776 521.568L170.895 621.338L71.2564 671.162L71.1152 671.233L21.2342 771.003L0.882885 781.187V782.193L21.7814 771.744L21.9226 771.674H21.9049ZM59.3245 659.443L158.963 609.619L159.104 609.549L208.985 509.778L308.623 459.954L308.765 459.884L358.646 360.113L458.284 310.29L458.425 310.219L508.306 210.448L607.945 160.625L608.086 160.554L657.967 60.7837L757.605 10.9778L757.746 10.9072L762.018 2.34734H761.012L757.076 10.2365L657.437 60.0424L657.296 60.113L607.415 159.884L507.777 209.707L507.636 209.778L457.755 309.548L358.116 359.372L357.975 359.443L308.094 459.213L208.456 509.037L208.314 509.107L158.433 608.878L58.7949 658.702L58.6537 658.772L8.77276 758.543L0.882885 762.479V763.485L9.44349 759.214L59.3245 659.443ZM134.022 584.681L134.164 584.61L184.045 484.84L283.683 435.016L283.824 434.946L333.705 335.175L433.344 285.351L433.485 285.281L483.366 185.51L583.004 135.687L583.145 135.616L633.026 35.8454L700.011 2.41793H697.999L632.479 35.1748L632.338 35.2454L582.457 135.016L482.819 184.84L482.677 184.91L432.796 284.681L333.158 334.504L333.017 334.575L283.136 434.346L183.497 484.169L183.356 484.24L133.475 584.01L33.8368 633.834L33.6956 633.905L0.882885 699.471V701.483L34.384 634.505L134.022 584.681ZM59.3245 809.09L109.205 709.319L208.844 659.496L208.985 659.425L258.866 559.655L358.504 509.831L358.646 509.76L408.527 409.99L508.165 360.184L508.306 360.113L558.187 260.343L657.826 210.537L657.967 210.466L707.848 110.695L807.486 60.8719L807.627 60.8013L836.839 2.41793H835.833L806.939 60.1836L707.301 110.007L707.159 110.078L657.278 209.848L557.64 259.654L557.499 259.725L507.618 359.496L407.979 409.301L407.838 409.372L357.957 509.143L258.319 558.966L258.178 559.037L208.297 658.807L108.658 708.631L108.517 708.702L58.6361 808.472L0.882885 837.293V838.299L59.1833 809.143L59.3245 809.072V809.09ZM146.484 597.141L146.625 597.071L196.506 497.3L296.144 447.477L296.286 447.406L346.167 347.635L445.805 297.812L445.946 297.741L495.827 197.971L595.466 148.147L595.607 148.076L645.488 48.3057L737.43 2.41793H735.418L644.958 47.6527L644.817 47.7233L594.936 147.494L495.298 197.317L495.156 197.388L445.275 297.159L345.637 346.982L345.496 347.053L295.615 446.824L195.976 496.647L195.835 496.718L145.954 596.488L46.3159 646.312L46.1747 646.382L0.882885 736.887V738.899L46.8454 646.965L146.484 597.141ZM84.265 534.734L134.146 434.963L233.784 385.157L233.926 385.087L283.807 285.316L383.445 235.493L383.586 235.422L433.467 135.651L533.106 85.8278L533.247 85.7572L574.938 2.41793H573.932L532.576 85.1218L432.938 134.945L432.796 135.016L382.915 234.787L283.277 284.61L283.136 284.681L233.255 384.451L133.616 434.257L133.475 434.328L83.5942 534.099L0.882885 575.415V576.421L84.1237 534.805L84.265 534.734ZM46.8454 796.612L96.7264 696.841L196.365 647.018L196.506 646.947L246.387 547.177L346.025 497.353L346.167 497.282L396.048 397.512L495.686 347.688L495.827 347.618L545.708 247.847L645.347 198.041L645.488 197.971L695.369 98.1999L795.007 48.3763L795.148 48.3057L818.13 2.34734H817.124L794.478 47.6527L694.839 97.4586L694.698 97.5292L644.817 197.3L545.179 247.123L545.037 247.194L495.156 346.965L395.518 396.788L395.377 396.859L345.496 496.629L245.857 546.453L245.716 546.524L195.835 646.294L96.1969 696.118L96.0556 696.188L46.1747 795.959L0.882885 818.603V819.609L46.7218 796.7L46.863 796.63L46.8454 796.612ZM21.9049 472.38L71.7859 372.609L171.424 322.785L171.565 322.715L221.446 222.944L321.085 173.121L321.226 173.05L371.107 73.2793L470.745 23.4734L470.887 23.4028L481.407 2.38263H480.4L470.216 22.7321L370.578 72.538L370.436 72.6086L320.555 172.379L220.917 222.203L220.776 222.273L170.895 322.044L71.2564 371.868L71.1152 371.938L21.2342 471.709L0.882885 481.892V482.898L21.7814 472.45L21.9226 472.38H21.9049ZM46.8454 198.023L96.7264 98.2528L196.365 48.4469L196.506 48.3763L219.505 2.41793H218.499L195.853 47.7233L96.2145 97.5292L96.0733 97.5998L46.1923 197.37L0.882885 219.997V221.003L46.7218 198.094L46.863 198.023H46.8454ZM71.7859 222.962L121.667 123.191L221.305 73.3675L221.446 73.2969L256.907 2.41793H255.901L220.776 72.6615L121.137 122.485L120.996 122.556L71.1152 222.326L0.882885 257.413V258.419L71.6623 223.032L71.8035 222.962H71.7859ZM84.265 235.44L134.146 135.669L233.784 85.8455L233.926 85.7749L275.617 2.41793H274.61L233.255 85.1218L133.616 134.945L133.475 135.016L83.5942 234.787L0.882885 276.121V277.127L84.1237 235.51L84.265 235.44ZM59.3245 210.501L109.205 110.731L208.844 60.9072L208.985 60.8366L238.197 2.41793H237.191L208.314 60.1836L108.676 110.007L108.535 110.078L58.6537 209.848L0.882885 238.705V239.711L59.1833 210.554L59.3245 210.484V210.501ZM96.744 247.9L146.625 148.129L246.263 98.3058L246.405 98.2352L294.326 2.41793H293.32L245.734 97.5998L146.095 147.423L145.954 147.494L96.0733 247.265L0.882885 294.829V295.835L96.6028 247.971L96.744 247.9ZM63.9666 2.41793H61.9544L21.3754 22.6968L21.2342 22.7674L0.882885 63.4663V65.4783L21.9049 23.4381L63.9666 2.41793ZM138.788 2.41793H136.776L46.3159 47.6351L46.1747 47.7057L0.882885 138.299V140.311L46.8454 48.3763L138.788 2.41793ZM101.369 2.41793H99.3563L33.8368 35.1748L33.6956 35.2454L0.882885 100.883V102.895L34.384 35.8984L101.369 2.41793ZM109.082 260.449L109.223 260.378L159.104 160.607L258.742 110.784L258.884 110.713L308.765 10.9425L325.868 2.38263H323.856L308.217 10.2012L308.076 10.2718L258.195 110.042L158.557 159.866L158.416 159.937L108.535 259.707L8.89632 309.531L8.75511 309.601L0.865234 325.362V327.374L9.42584 310.272L109.064 260.449H109.082ZM34.384 185.546L84.265 85.7749L183.903 35.969L184.045 35.8984L200.795 2.41793H199.789L183.374 35.2454L83.7354 85.0512L83.5942 85.1218L33.7133 184.892L0.882885 201.289V202.295L34.2428 185.616L34.384 185.546ZM146.484 297.847L146.625 297.776L196.506 198.006L296.144 148.182L296.286 148.112L346.167 48.341L438.109 2.41793H436.097L345.637 47.6527L345.496 47.7233L295.615 147.494L195.976 197.317L195.835 197.388L145.954 297.159L46.3159 346.982L46.1747 347.053L0.882885 437.593V439.605L46.8454 347.671L146.484 297.847ZM121.543 272.909L121.685 272.838L171.565 173.068L271.204 123.244L271.345 123.173L321.226 23.4028L363.288 2.38263H361.276L320.697 22.6792L320.555 22.7498L270.674 122.52L171.036 172.344L170.895 172.415L121.014 272.185L21.3754 322.009L21.2342 322.079L0.882885 362.761V364.773L21.9049 322.732L121.543 272.909ZM134.022 285.387L134.164 285.316L184.045 185.546L283.683 135.722L283.824 135.651L333.705 35.8807L400.69 2.41793H398.677L333.158 35.1748L333.017 35.2454L283.136 135.016L183.497 184.84L183.356 184.91L133.475 284.681L33.8368 334.504L33.6956 334.575L0.882885 400.177V402.189L34.384 335.21L134.022 285.387ZM21.9049 173.085L71.7859 73.3146L171.424 23.5087L171.565 23.4381L182.085 2.41793H181.079L170.895 22.7674L71.2564 72.5733L71.1152 72.6439L21.2342 172.415L0.882885 182.598V183.604L21.7814 173.156L21.9226 173.085H21.9049ZM59.3245 60.8543L158.963 11.0307L159.104 10.9601L163.376 2.40028H162.369L158.433 10.2895L58.7949 60.0953L58.6537 60.1659L8.77276 159.937L0.882885 163.872V164.878L9.44349 160.607L59.3245 60.8366V60.8543ZM96.744 547.194L146.625 447.424L246.263 397.618L246.405 397.547L296.286 297.776L395.924 247.953L396.065 247.882L445.946 148.112L545.585 98.2881L545.726 98.2175L593.648 2.41793H592.641L545.055 97.5998L445.417 147.423L445.275 147.494L395.394 247.265L295.756 297.088L295.615 297.159L245.734 396.929L146.095 446.735L145.954 446.806L96.0733 546.577L0.882885 594.123V595.129L96.6028 547.265L96.744 547.194Z" stroke="#8059FF" stroke-opacity="0.5" stroke-miterlimit="10"/>
</g>
<path d="M1305.98 409.249L1305.84 409.319L1255.96 509.09L1156.32 558.913L1156.18 558.984L1106.3 658.755L1006.66 708.578L1006.52 708.649L956.635 808.419L889.651 841.917H891.663L957.182 809.161L957.323 809.09L1007.2 709.319L1106.84 659.496L1106.98 659.425L1156.86 559.655L1256.5 509.831L1256.64 509.76L1306.53 409.99L1406.16 360.184L1406.31 360.113L1439.14 294.476V292.464L1405.63 359.443L1306 409.249H1305.98ZM1293.5 396.788L1293.36 396.859L1243.48 496.629L1143.84 546.453L1143.7 546.524L1093.82 646.294L994.178 696.118L994.037 696.188L944.156 795.959L852.231 841.917H854.243L944.703 796.7L944.844 796.63L994.725 696.859L1094.36 647.036L1094.51 646.965L1144.39 547.194L1244.02 497.371L1244.17 497.3L1294.05 397.529L1393.68 347.706L1393.83 347.635L1439.12 257.042V255.03L1393.16 346.965L1293.52 396.788H1293.5ZM1343.26 147.441L1293.38 247.212L1193.74 297.035L1193.6 297.106L1143.72 396.876L1044.08 446.7L1043.94 446.771L994.055 546.541L894.416 596.347L894.275 596.418L844.394 696.188L744.756 745.994L744.614 746.065L696.693 841.9H697.699L745.285 746.718L844.924 696.912L845.065 696.841L894.946 597.071L994.584 547.265L994.725 547.194L1044.61 447.424L1144.24 397.618L1144.39 397.547L1194.27 297.776L1293.91 247.953L1294.05 247.882L1343.93 148.112L1439.12 100.53V99.5236L1343.4 147.388L1343.26 147.459V147.441ZM1355.74 159.919L1305.85 259.69L1206.22 309.513L1206.08 309.584L1156.19 409.354L1056.56 459.178L1056.41 459.249L1006.53 559.019L906.895 608.843L906.754 608.913L856.873 708.684L757.235 758.49L757.093 758.56L715.402 841.935H716.409L757.764 759.231L857.403 709.425L857.544 709.355L907.425 609.584L1007.06 559.778L1007.2 559.708L1057.09 459.937L1156.72 410.113L1156.86 410.043L1206.75 310.272L1306.38 260.449L1306.53 260.378L1356.41 160.607L1439.12 119.255V118.249L1355.88 159.866L1355.74 159.937V159.919ZM1418.08 521.55L1368.2 621.321L1268.56 671.144L1268.42 671.215L1218.54 770.986L1118.9 820.809L1118.76 820.88L1108.24 841.9H1109.24L1119.43 821.55L1219.07 771.727L1219.21 771.656L1269.09 671.886L1368.73 622.062L1368.87 621.991L1418.75 522.221L1439.1 512.037V511.031L1418.2 521.479L1418.06 521.55H1418.08ZM1430.56 534.028L1380.68 633.799L1281.04 683.622L1280.9 683.693L1231.02 783.463L1131.38 833.287L1131.24 833.358L1126.96 841.9H1127.97L1131.91 834.028L1231.55 784.205L1231.69 784.134L1281.57 684.364L1381.21 634.54L1381.35 634.469L1431.23 534.699L1439.12 530.763V529.757L1430.7 533.957L1430.56 534.028ZM1330.92 434.187L1330.78 434.257L1280.9 534.028L1181.26 583.834L1181.12 583.905L1131.24 683.675L1031.6 733.499L1031.46 733.569L981.576 833.34L964.472 841.882H966.484L982.105 834.064L982.246 833.993L1032.13 734.222L1131.77 684.399L1131.91 684.328L1181.79 584.558L1281.43 534.752L1281.57 534.681L1331.45 434.91L1431.09 385.104L1431.23 385.034L1439.12 369.273V367.261L1430.56 384.363L1330.92 434.169V434.187ZM1318.44 421.726L1318.3 421.797L1268.42 521.568L1168.78 571.374L1168.64 571.444L1118.76 671.215L1019.12 721.038L1018.98 721.109L969.096 820.88L927.052 841.9H929.065L969.644 821.621L969.785 821.55L1019.67 721.78L1119.3 671.956L1119.45 671.886L1169.33 572.115L1268.96 522.309L1269.11 522.238L1318.99 422.468L1418.63 372.662L1418.77 372.591L1439.12 331.892V329.88L1418.1 371.921L1318.46 421.726H1318.44ZM1405.62 209.795L1355.74 309.566L1256.1 359.39L1255.96 359.46L1206.08 459.231L1106.44 509.054L1106.3 509.125L1056.41 608.896L956.776 658.719L956.635 658.79L906.754 758.56L807.116 808.384L806.974 808.455L790.224 841.953H791.23L807.645 809.125L907.284 759.302L907.425 759.231L957.306 659.461L1056.94 609.637L1057.09 609.566L1106.97 509.796L1206.6 459.972L1206.75 459.902L1256.63 360.131L1356.27 310.307L1356.41 310.237L1406.29 210.466L1439.12 194.052V193.046L1405.76 209.725L1405.62 209.795ZM1430.56 234.734L1380.68 334.504L1281.04 384.328L1280.9 384.399L1231.02 484.169L1131.38 533.993L1131.24 534.063L1081.36 633.834L981.717 683.657L981.576 683.728L931.695 783.499L832.056 833.322L831.915 833.393L827.643 841.935H828.65L832.586 834.064L932.224 784.24L932.365 784.169L982.246 684.399L1081.88 634.575L1082.03 634.505L1131.91 534.734L1231.55 484.91L1231.69 484.84L1281.57 385.069L1381.21 335.246L1381.35 335.175L1431.23 235.404L1439.12 231.469V230.463L1430.7 234.663L1430.56 234.734ZM1418.08 222.256L1368.2 322.026L1268.56 371.85L1268.42 371.921L1218.54 471.691L1118.9 521.515L1118.76 521.585L1068.88 621.356L969.238 671.18L969.096 671.25L919.216 771.021L819.577 820.844L819.436 820.915L808.916 841.935H809.922L820.089 821.586L919.727 771.762L919.869 771.691L969.75 671.921L1069.39 622.097L1069.53 622.027L1119.41 522.256L1219.05 472.432L1219.19 472.362L1269.07 372.591L1368.71 322.768L1368.85 322.697L1418.73 222.926L1439.08 212.743V211.737L1418.18 222.185L1418.04 222.256H1418.08ZM1368.2 172.379L1318.32 272.15L1218.68 321.973L1218.54 322.044L1168.66 421.815L1069.02 471.638L1068.88 471.709L1019 571.479L919.357 621.303L919.216 621.374L869.335 721.144L769.696 770.95L769.555 771.021L734.095 841.917H735.101L770.226 771.691L869.864 721.886L870.005 721.815L919.886 622.044L1019.52 572.221L1019.67 572.15L1069.55 472.38L1169.19 422.556L1169.33 422.485L1219.21 322.715L1318.85 272.891L1318.99 272.821L1368.87 173.05L1439.12 137.928V136.922L1368.34 172.309L1368.2 172.379ZM1330.92 134.91L1330.78 134.981L1280.9 234.751L1181.26 284.575L1181.12 284.646L1131.24 384.416L1031.6 434.222L1031.46 434.293L981.576 534.063L881.937 583.869L881.796 583.94L831.915 683.71L732.277 733.534L732.135 733.605L682.254 833.375L665.151 841.917H667.163L682.784 834.099L682.925 834.028L732.806 734.258L832.444 684.434L832.586 684.364L882.467 584.593L982.105 534.787L982.246 534.716L1032.13 434.946L1131.77 385.14L1131.91 385.069L1181.79 285.299L1281.43 235.475L1281.57 235.404L1331.45 135.634L1431.09 85.8102L1431.23 85.7396L1439.12 69.9789V67.9669L1430.56 85.0689L1330.92 134.892V134.91ZM1380.68 184.857L1330.8 284.628L1231.16 334.451L1231.02 334.522L1181.13 434.293L1081.5 484.116L1081.36 484.187L1031.47 583.957L931.836 633.781L931.695 633.852L881.814 733.622L782.175 783.428L782.034 783.499L752.822 841.935H753.828L782.705 784.169L882.343 734.364L882.484 734.293L932.365 634.522L1032 584.699L1032.14 584.628L1082.03 484.857L1181.66 435.034L1181.81 434.963L1231.69 335.193L1331.32 285.369L1331.47 285.299L1381.35 185.528L1439.12 156.654V155.648L1380.82 184.804L1380.68 184.875V184.857ZM1405.62 509.09L1355.74 608.86L1256.1 658.684L1255.96 658.755L1206.08 758.525L1106.44 808.349L1106.3 808.419L1089.55 841.917H1090.55L1106.97 809.09L1206.6 759.267L1206.75 759.196L1256.63 659.425L1356.27 609.602L1356.41 609.531L1406.29 509.76L1439.12 493.347V492.341L1405.76 509.019L1405.62 509.09ZM1418.08 72.6086L1318.44 122.432L1318.3 122.503L1268.42 222.273L1168.78 272.079L1168.64 272.15L1118.76 371.921L1019.12 421.726L1018.98 421.797L969.096 521.568L869.458 571.374L869.317 571.444L819.436 671.215L719.797 721.038L719.656 721.109L669.775 820.88L627.731 841.9H629.743L670.322 821.621L670.464 821.55L720.345 721.78L819.983 671.956L820.124 671.886L870.005 572.115L969.644 522.309L969.785 522.238L1019.67 422.468L1119.3 372.662L1119.45 372.591L1169.33 272.821L1268.96 223.015L1269.11 222.944L1318.99 123.173L1418.63 73.3499L1418.77 73.2793L1439.12 32.5803V30.5683L1418.1 72.6086H1418.08ZM1393.14 197.318L1343.26 297.088L1243.62 346.912L1243.48 346.982L1193.6 446.753L1093.96 496.576L1093.82 496.647L1043.94 596.418L944.297 646.241L944.156 646.312L894.275 746.083L794.637 795.906L794.495 795.977L771.514 841.935H772.52L795.166 796.647L894.805 746.824L894.946 746.753L944.827 646.983L1044.47 597.159L1044.61 597.088L1094.49 497.318L1194.13 447.494L1194.27 447.424L1244.15 347.653L1343.79 297.829L1343.93 297.759L1393.81 197.988L1439.1 175.344V174.338L1393.26 197.247L1393.12 197.318H1393.14ZM1368.2 770.968L1332.74 841.865H1333.74L1368.87 771.639L1439.12 736.517V735.511L1368.34 770.897L1368.2 770.968ZM1380.68 783.446L1351.46 841.882H1352.47L1381.35 784.116L1439.12 755.243V754.236L1380.82 783.393L1380.68 783.463V783.446ZM1343.26 746.03L1295.34 841.865H1296.34L1343.93 746.683L1439.12 699.101V698.095L1343.4 745.941L1343.26 746.012V746.03ZM1393.14 795.906L1370.16 841.865H1371.16L1393.81 796.577L1439.1 773.933V772.927L1393.26 795.836L1393.12 795.906H1393.14ZM1330.92 733.499L1330.78 733.569L1280.9 833.34L1263.79 841.882H1265.81L1281.43 834.064L1281.57 833.993L1331.45 734.222L1431.09 684.399L1431.23 684.328L1439.12 668.567V666.556L1430.56 683.657L1330.92 733.481V733.499ZM1430.56 833.322L1426.29 841.865H1427.29L1431.23 833.993L1439.12 830.057V829.051L1430.7 833.252L1430.56 833.322ZM1418.08 820.844L1407.56 841.865H1408.56L1418.75 821.515L1439.1 811.332V810.325L1418.2 820.774L1418.06 820.844H1418.08ZM1393.14 496.612L1343.26 596.382L1243.62 646.206L1243.48 646.277L1193.6 746.047L1093.96 795.871L1093.82 795.941L1070.84 841.9H1071.84L1094.49 796.612L1194.13 746.789L1194.27 746.718L1244.15 646.947L1343.79 597.124L1343.93 597.053L1393.81 497.283L1439.1 474.639V473.633L1393.26 496.541L1393.12 496.612H1393.14ZM1405.62 808.384L1388.87 841.882H1389.87L1406.29 809.055L1439.12 792.641V791.635L1405.76 808.313L1405.62 808.384ZM1318.44 721.021L1318.3 721.091L1268.42 820.862L1226.37 841.882H1228.39L1268.95 821.603L1269.09 821.533L1318.97 721.762L1418.61 671.938L1418.75 671.868L1439.1 631.169V629.157L1418.08 671.197L1318.44 721.021ZM1355.74 459.196L1305.85 558.966L1206.22 608.772L1206.08 608.843L1156.19 708.613L1056.56 758.419L1056.41 758.49L1014.72 841.865H1015.73L1057.09 759.161L1156.72 709.355L1156.86 709.284L1206.75 609.513L1306.38 559.708L1306.53 559.637L1356.41 459.866L1439.12 418.514V417.508L1355.88 459.125L1355.74 459.196ZM1380.68 484.152L1330.8 583.922L1231.16 633.746L1231.02 633.816L1181.13 733.587L1081.5 783.393L1081.36 783.463L1052.14 841.9H1053.15L1082.03 784.134L1181.66 734.328L1181.81 734.258L1231.69 634.487L1331.32 584.663L1331.47 584.593L1381.35 484.822L1439.12 455.948V454.942L1380.82 484.099L1380.68 484.169V484.152ZM1368.2 471.674L1318.32 571.444L1218.68 621.268L1218.54 621.338L1168.66 721.109L1069.02 770.915L1068.88 770.986L1033.42 841.882H1034.42L1069.55 771.656L1169.19 721.85L1169.33 721.78L1219.21 622.009L1318.85 572.186L1318.99 572.115L1368.87 472.344L1439.12 437.222V436.216L1368.34 471.603L1368.2 471.674ZM1343.26 446.735L1293.38 546.506L1193.74 596.312L1193.6 596.382L1143.72 696.153L1044.08 745.959L1043.94 746.03L996.014 841.865H997.02L1044.61 746.683L1144.24 696.877L1144.39 696.806L1194.27 597.035L1293.91 547.23L1294.05 547.159L1343.93 447.388L1439.12 399.806V398.8L1343.4 446.665L1343.26 446.735ZM1305.98 708.543L1305.84 708.613L1255.96 808.384L1188.97 841.882H1190.98L1256.5 809.125L1256.64 809.055L1306.53 709.284L1406.16 659.461L1406.31 659.39L1439.14 593.753V591.741L1405.63 658.719L1306 708.543H1305.98ZM1293.5 696.083L1293.36 696.153L1243.48 795.924L1151.55 841.882H1153.56L1244.02 796.665L1244.17 796.594L1294.05 696.824L1393.68 647L1393.83 646.93L1439.12 556.337V554.325L1393.16 646.259L1293.52 696.083H1293.5ZM1355.74 758.49L1314.04 841.865H1315.05L1356.41 759.161L1439.12 717.809V716.803L1355.88 758.419L1355.74 758.49ZM657.985 360.113L757.623 310.29L757.764 310.219L807.645 210.448L907.284 160.625L907.425 160.554L957.306 60.7837L1056.94 10.9778L1057.09 10.9072L1061.36 2.34734H1060.35L1056.41 10.2365L956.776 60.0424L956.635 60.113L906.754 159.884L807.116 209.707L806.974 209.778L757.093 309.548L657.455 359.372L657.314 359.443L607.433 459.213L599.543 463.149V464.155L608.104 459.884L657.985 360.113ZM633.044 484.822L682.925 385.052L782.563 335.228L782.705 335.157L832.586 235.387L932.224 185.581L932.365 185.51L982.246 85.7396L1081.88 35.9337L1082.03 35.8631L1098.78 2.36499H1097.77L1081.36 35.1924L981.717 84.9983L981.576 85.0689L931.695 184.84L832.056 234.645L831.915 234.716L782.034 334.487L682.396 384.31L682.254 384.381L632.373 484.152L599.543 500.565V501.571L632.903 484.893L633.044 484.822ZM720.203 572.168L720.345 572.097L770.226 472.327L869.864 422.503L870.005 422.432L919.886 322.662L1019.52 272.838L1019.67 272.768L1069.55 172.997L1169.19 123.173L1169.33 123.103L1219.21 23.3322L1261.27 2.31204H1259.26L1218.68 22.6086L1218.54 22.6792L1168.66 122.45L1069.02 172.273L1068.88 172.344L1019 272.115L919.357 321.938L919.216 322.009L869.335 421.779L769.696 471.603L769.555 471.674L719.674 571.444L620.036 621.268L619.894 621.338L599.543 662.037V664.049L620.565 622.009L720.203 572.186V572.168ZM707.742 559.708L707.883 559.637L757.764 459.866L857.403 410.043L857.544 409.972L907.425 310.201L1007.06 260.378L1007.2 260.307L1057.09 160.537L1156.72 110.713L1156.86 110.643L1206.75 10.8719L1223.85 2.31204H1221.84L1206.2 10.1306L1206.06 10.2012L1156.18 109.972L1056.54 159.795L1056.4 159.866L1006.52 259.637L906.878 309.46L906.736 309.531L856.855 409.301L757.217 459.125L757.076 459.196L707.195 558.966L607.556 608.79L607.415 608.86L599.525 624.621V626.633L608.086 609.531L707.724 559.725L707.742 559.708ZM625.207 2.38264H623.195L607.556 10.2012L607.415 10.2718L599.525 26.0325V28.0445L608.086 10.9425L625.19 2.38264H625.207ZM670.446 522.221L720.327 422.45L819.965 372.644L820.107 372.574L869.988 272.803L969.626 222.997L969.767 222.926L1019.65 123.156L1119.29 73.3322L1119.43 73.2616L1154.89 2.34734H1153.88L1118.76 72.591L1019.12 122.415L1018.98 122.485L969.096 222.256L869.458 272.062L869.317 272.132L819.436 371.903L719.797 421.709L719.656 421.779L669.775 521.55L599.525 556.672V557.678L670.305 522.291L670.446 522.221ZM657.985 509.76L707.866 409.99L807.504 360.184L807.645 360.113L857.526 260.343L957.165 210.537L957.306 210.466L1007.19 110.695L1106.83 60.8719L1106.97 60.8013L1136.2 2.36499H1135.19L1106.3 60.1307L1006.66 109.954L1006.52 110.025L956.635 209.795L856.997 259.601L856.855 259.672L806.974 359.443L707.336 409.249L707.195 409.319L657.314 509.09L599.543 537.964V538.97L657.843 509.813L657.985 509.743V509.76ZM645.506 497.283L695.387 397.512L795.025 347.688L795.166 347.618L845.047 247.847L944.686 198.041L944.827 197.971L994.708 98.1999L1094.35 48.394L1094.49 48.3234L1117.47 2.36499H1116.46L1093.82 47.6704L994.178 97.4763L994.037 97.5469L944.156 197.318L844.518 247.123L844.376 247.194L794.495 346.965L694.857 396.788L694.716 396.859L644.835 496.629L599.543 519.273V520.279L645.382 497.371L645.523 497.3L645.506 497.283ZM633.044 784.116L682.925 684.346L782.563 634.522L782.705 634.452L832.586 534.681L932.224 484.857L932.365 484.787L982.246 385.016L1081.88 335.193L1082.03 335.122L1131.91 235.351L1231.55 185.546L1231.69 185.475L1281.57 85.7043L1381.21 35.8984L1381.35 35.8278L1398.1 2.32969H1397.09L1380.68 35.1571L1281.04 84.963L1280.9 85.0336L1231.02 184.804L1131.38 234.61L1131.24 234.681L1081.36 334.451L981.717 384.275L981.576 384.346L931.695 484.116L832.056 533.94L831.915 534.01L782.034 633.781L682.396 683.605L682.254 683.675L632.373 783.446L599.543 799.86V800.866L632.903 784.187L633.044 784.116ZM620.565 771.639L670.446 671.868L770.084 622.044L770.226 621.974L820.107 522.203L919.745 472.38L919.886 472.309L969.767 372.538L1069.41 322.715L1069.55 322.644L1119.43 222.873L1219.07 173.05L1219.21 172.979L1269.09 73.2087L1368.73 23.4028L1368.87 23.3322L1379.39 2.31204H1378.38L1368.2 22.6615L1268.56 72.4674L1268.42 72.538L1218.54 172.309L1118.9 222.132L1118.76 222.203L1068.88 321.973L969.238 371.797L969.096 371.868L919.216 471.638L819.577 521.462L819.436 521.532L769.555 621.303L669.917 671.127L669.775 671.197L619.894 770.968L599.543 781.151V782.157L620.442 771.709L620.583 771.639H620.565ZM657.985 659.408L757.623 609.584L757.764 609.513L807.645 509.743L907.284 459.919L907.425 459.849L957.306 360.078L1056.94 310.254L1057.09 310.184L1106.97 210.413L1206.6 160.59L1206.75 160.519L1256.63 60.7484L1356.27 10.9425L1356.41 10.8719L1360.68 2.31204H1359.67L1355.74 10.2012L1256.1 60.0071L1255.96 60.0777L1206.08 159.848L1106.44 209.672L1106.3 209.743L1056.41 309.513L956.776 359.337L956.635 359.407L906.754 459.178L807.116 509.002L806.974 509.072L757.093 608.843L657.455 658.666L657.314 658.737L607.433 758.508L599.543 762.443V763.449L608.104 759.178L657.985 659.408ZM732.683 584.646L732.824 584.575L782.705 484.805L882.343 434.981L882.484 434.91L932.365 335.14L1032 285.316L1032.14 285.246L1082.03 185.475L1181.66 135.651L1181.81 135.581L1231.69 35.8101L1298.69 2.31204H1296.68L1231.16 35.0689L1231.02 35.1395L1181.13 134.91L1081.5 184.734L1081.36 184.804L1031.47 284.575L931.836 334.398L931.695 334.469L881.814 434.24L782.175 484.063L782.034 484.134L732.153 583.905L632.515 633.728L632.373 633.799L599.543 699.454V701.466L633.044 634.487L732.683 584.663V584.646ZM657.985 809.055L707.866 709.284L807.504 659.461L807.645 659.39L857.526 559.619L957.165 509.796L957.306 509.725L1007.19 409.954L1106.83 360.149L1106.97 360.078L1156.85 260.307L1256.49 210.501L1256.63 210.431L1306.51 110.66L1406.15 60.8366L1406.29 60.766L1435.52 2.32969H1434.51L1405.62 60.0954L1305.98 109.919L1305.84 109.99L1255.96 209.76L1156.32 259.566L1156.18 259.637L1106.3 359.407L1006.66 409.213L1006.52 409.284L956.635 509.054L856.997 558.878L856.855 558.949L806.974 658.719L707.336 708.543L707.195 708.613L657.314 808.384L599.543 837.276V838.282L657.843 809.125L657.985 809.055ZM745.144 597.124L745.285 597.053L795.166 497.283L894.805 447.459L894.946 447.388L944.827 347.618L1044.47 297.794L1044.61 297.724L1094.49 197.953L1194.13 148.129L1194.27 148.059L1244.15 48.2881L1336.09 2.32969H1334.08L1243.62 47.5645L1243.48 47.6351L1193.6 147.406L1093.96 197.229L1093.82 197.3L1043.94 297.071L944.297 346.894L944.156 346.965L894.275 446.735L794.637 496.559L794.495 496.629L744.614 596.4L644.976 646.224L644.835 646.294L599.543 736.887V738.899L645.506 646.965L745.144 597.141V597.124ZM682.925 534.699L732.806 434.928L832.444 385.122L832.586 385.052L882.467 285.281L982.105 235.457L982.246 235.387L1032.13 135.616L1131.77 85.7925L1131.91 85.7219L1173.6 2.34734H1172.59L1131.24 85.0513L1031.6 134.875L1031.46 134.945L981.576 234.716L881.937 284.54L881.796 284.61L831.915 384.381L732.277 434.187L732.135 434.257L682.254 534.028L599.543 575.38V576.386L682.784 534.769L682.925 534.699ZM645.506 796.577L695.387 696.806L795.025 646.983L795.166 646.912L845.047 547.141L944.686 497.318L944.827 497.247L994.708 397.477L1094.35 347.653L1094.49 347.582L1144.37 247.812L1244.01 198.006L1244.15 197.935L1294.03 98.1646L1393.67 48.341L1393.81 48.2704L1416.79 2.31204H1415.78L1393.14 47.6174L1293.5 97.4233L1293.36 97.4939L1243.48 197.265L1143.84 247.088L1143.7 247.159L1093.82 346.929L994.178 396.753L994.037 396.824L944.156 496.594L844.518 546.418L844.376 546.488L794.495 646.259L694.857 696.083L694.716 696.153L644.835 795.924L599.543 818.568V819.574L645.382 796.665L645.523 796.594L645.506 796.577ZM620.565 472.344L670.446 372.574L770.084 322.75L770.226 322.679L820.107 222.909L919.745 173.085L919.886 173.015L969.767 73.244L1069.41 23.4381L1069.55 23.3675L1080.07 2.34734H1079.06L1068.88 22.6968L969.238 72.5027L969.096 72.5733L919.216 172.344L819.577 222.168L819.436 222.238L769.555 322.009L669.917 371.832L669.775 371.903L619.894 471.674L599.543 481.857V482.863L620.442 472.415L620.583 472.344H620.565ZM645.506 197.988L695.387 98.2175L795.025 48.4116L795.166 48.341L818.147 2.38264H817.141L794.495 47.688L694.857 97.4939L694.716 97.5645L644.835 197.335L599.543 219.979V220.985L645.382 198.076L645.523 198.006L645.506 197.988ZM670.446 222.926L720.327 123.156L819.965 73.3322L820.107 73.2616L855.567 2.38264H854.561L819.436 72.6263L719.797 122.45L719.656 122.52L669.775 222.291L599.525 257.413V258.419L670.305 223.032L670.446 222.962V222.926ZM682.925 235.404L732.806 135.634L832.444 85.8102L832.586 85.7396L874.277 2.38264H873.271L831.915 85.0866L732.277 134.91L732.135 134.981L682.254 234.751L599.543 276.103V277.109L682.784 235.493L682.925 235.422V235.404ZM657.985 210.466L707.866 110.695L807.504 60.8719L807.645 60.8013L836.857 2.38264H835.851L806.974 60.1483L707.336 109.972L707.195 110.042L657.314 209.813L599.543 238.687V239.693L657.843 210.537L657.985 210.466ZM695.387 247.865L745.268 148.094L844.906 98.2705L845.047 98.1999L892.987 2.38264H891.98L844.394 97.5645L744.756 147.388L744.614 147.459L694.733 247.229L599.543 294.811V295.817L695.263 247.953L695.404 247.882L695.387 247.865ZM662.627 2.38264H660.615L620.036 22.6792L619.894 22.7498L599.543 63.4487V65.4607L620.565 23.4204L662.627 2.40028V2.38264ZM737.448 2.38264H735.436L644.976 47.6174L644.835 47.688L599.543 138.281V140.293L645.506 48.3587L737.448 2.38264ZM700.029 2.38264H698.016L632.497 35.1395L632.356 35.2101L599.525 100.865V102.877L633.027 35.8984L700.029 2.38264ZM707.742 260.413L707.883 260.343L757.764 160.572L857.403 110.748L857.544 110.678L907.425 10.9072L924.528 2.34734H922.516L906.878 10.1659L906.736 10.2365L856.855 110.007L757.217 159.831L757.076 159.901L707.195 259.672L607.556 309.496L607.415 309.566L599.525 325.327V327.339L608.086 310.237L707.724 260.413H707.742ZM633.044 185.528L682.925 85.7572L782.563 35.9513L782.705 35.8807L799.455 2.38264H798.449L782.034 35.2101L682.396 85.016L682.254 85.0866L632.373 184.857L599.543 201.271V202.277L632.903 185.598L633.044 185.528ZM745.144 297.829L745.285 297.759L795.166 197.988L894.805 148.165L894.946 148.094L944.827 48.3234L1036.77 2.36499H1034.76L944.297 47.5998L944.156 47.6704L894.275 147.441L794.637 197.265L794.495 197.335L744.614 297.106L644.976 346.929L644.835 347L599.543 437.593V439.605L645.506 347.671L745.144 297.847V297.829ZM720.203 272.874L720.345 272.803L770.226 173.032L869.864 123.209L870.005 123.138L919.886 23.3675L961.948 2.34734H959.936L919.357 22.6439L919.216 22.7145L869.335 122.485L769.696 172.309L769.555 172.379L719.674 272.15L620.036 321.973L619.894 322.044L599.543 362.743V364.755L620.565 322.715L720.203 272.891V272.874ZM732.683 285.351L732.824 285.281L782.705 185.51L882.343 135.687L882.484 135.616L932.365 35.8454L999.367 2.34734H997.355L931.836 35.1042L931.695 35.1748L881.814 134.945L782.175 184.769L782.034 184.84L732.153 284.61L632.515 334.434L632.373 334.504L599.543 400.159V402.171L633.044 335.193L732.683 285.369V285.351ZM620.565 173.05L670.446 73.2793L770.084 23.4734L770.226 23.4028L780.745 2.38264H779.739L769.555 22.7321L669.917 72.538L669.775 72.6086L619.894 172.379L599.543 182.563V183.569L620.442 173.121L620.583 173.05H620.565ZM657.985 60.819L757.623 11.0131L757.764 10.9425L762.036 2.38264H761.03L757.093 10.2718L657.455 60.0777L657.314 60.1483L607.433 159.919L599.543 163.855V164.861L608.104 160.59L657.985 60.819ZM695.387 547.177L745.268 447.406L844.906 397.6L845.047 397.529L894.928 297.759L994.566 247.935L994.708 247.865L1044.59 148.094L1144.23 98.2705L1144.37 98.1999L1192.29 2.34734H1191.28L1143.7 97.5292L1044.06 147.353L1043.92 147.423L994.037 247.194L894.399 297.018L894.257 297.088L844.376 396.859L744.738 446.665L744.597 446.735L694.716 546.506L599.525 594.088V595.094L695.245 547.23L695.387 547.159V547.177Z" stroke="#8059FF" stroke-opacity="0.5" stroke-miterlimit="10"/>
</g>
<defs>
<clipPath id="clip0_5012_110">
<rect width="1440" height="844" fill="white"/>
</clipPath>
</defs>
</svg>
