<?xml version="1.0" encoding="UTF-8"?>
<svg id="Layer_1" data-name="Layer 1" xmlns="http://www.w3.org/2000/svg" xmlns:xlink="http://www.w3.org/1999/xlink" viewBox="0 0 815.83 478.21">
  <defs>
    <style>
      .cls-1, .cls-2 {
        fill: none;
      }

      .cls-2 {
        stroke: #8059ff;
        stroke-miterlimit: 10;
      }

      .cls-3 {
        clip-path: url(#clippath);
      }
    </style>
    <clipPath id="clippath">
      <rect class="cls-1" x=".14" width="339.53" height="478.21"/>
    </clipPath>
  </defs>
  <g class="cls-3">
    <path class="cls-2" d="M400.73,231.9l-.08.04-28.26,56.53-56.45,28.23-.08.04-28.26,56.53-56.45,28.23-.08.04-28.26,56.53-37.95,18.98h1.14l37.12-18.56.08-.04,28.26-56.53,56.45-28.23.08-.04,28.26-56.53,56.45-28.23.08-.04,28.26-56.53,56.45-28.22.08-.04,18.6-37.19v-1.14l-18.98,37.95-56.45,28.22ZM393.66,224.84l-.08.04-28.26,56.53-56.45,28.23-.08.04-28.26,56.53-56.45,28.23-.08.04-28.26,56.53-52.08,26.04h1.14l51.25-25.62.08-.04,28.26-56.53,56.45-28.23.08-.04,28.26-56.53,56.45-28.23.08-.04,28.26-56.53,56.45-28.23.08-.04,25.66-51.33v-1.14l-26.04,52.09-56.45,28.23ZM421.85,83.56l-28.26,56.53-56.45,28.23-.08.04-28.26,56.53-56.45,28.23-.08.04-28.26,56.53-56.45,28.22-.08.04-28.26,56.53-56.45,28.22-.08.04-27.15,54.3h.57l26.96-53.93,56.45-28.22.08-.04,28.26-56.53,56.45-28.22.08-.04,28.26-56.53,56.45-28.22.08-.04,28.26-56.53,56.45-28.23.08-.04,28.26-56.53,53.93-26.96v-.57l-54.23,27.12-.08.04ZM428.92,90.62l-28.26,56.53-56.45,28.23-.08.04-28.26,56.53-56.45,28.23-.08.04-28.26,56.53-56.45,28.23-.08.04-28.26,56.53-56.45,28.22-.08.04-23.62,47.24h.57l23.43-46.86,56.45-28.22.08-.04,28.26-56.53,56.45-28.22.08-.04,28.26-56.53,56.45-28.23.08-.04,28.26-56.53,56.45-28.23.08-.04,28.26-56.53,46.86-23.43v-.57l-47.16,23.58-.08.04ZM464.25,295.53l-28.26,56.53-56.45,28.23-.08.04-28.26,56.53-56.45,28.23-.08.04-5.96,11.91h.57l5.77-11.53,56.45-28.23.08-.04,28.26-56.53,56.45-28.23.08-.04,28.26-56.53,11.53-5.77v-.57l-11.84,5.92-.08.04ZM471.31,302.6l-28.26,56.53-56.45,28.23-.08.04-28.26,56.53-56.45,28.23-.08.04-2.42,4.84h.57l2.23-4.46,56.45-28.23.08-.04,28.26-56.53,56.45-28.23.08-.04,28.26-56.53,4.47-2.23v-.57l-4.77,2.38-.08.04ZM414.86,246.03l-.08.04-28.26,56.53-56.45,28.22-.08.04-28.26,56.53-56.45,28.23-.08.04-28.26,56.53-9.69,4.84h1.14l8.85-4.43.08-.04,28.26-56.53,56.45-28.23.08-.04,28.26-56.53,56.45-28.22.08-.04,28.26-56.53,56.45-28.22.08-.04,4.47-8.93v-1.14l-4.85,9.69-56.45,28.22ZM407.79,238.97l-.08.04-28.26,56.53-56.45,28.22-.08.04-28.26,56.53-56.45,28.23-.08.04-28.26,56.53-23.82,11.91h1.14l22.99-11.49.08-.04,28.26-56.53,56.45-28.23.08-.04,28.26-56.53,56.45-28.22.08-.04,28.26-56.53,56.45-28.22.08-.04,11.53-23.06v-1.14l-11.91,23.82-56.45,28.22ZM457.18,118.89l-28.26,56.53-56.45,28.23-.08.04-28.26,56.53-56.45,28.23-.08.04-28.26,56.53-56.45,28.23-.08.04-28.26,56.53-56.45,28.23-.08.04-9.49,18.98h.57l9.3-18.6,56.45-28.23.08-.04,28.26-56.53,56.45-28.23.08-.04,28.26-56.53,56.45-28.23.08-.04,28.26-56.53,56.45-28.23.08-.04,28.26-56.53,18.6-9.3v-.57l-18.9,9.45-.08.04ZM471.31,133.02l-28.26,56.53-56.45,28.23-.08.04-28.26,56.53-56.45,28.23-.08.04-28.26,56.53-56.45,28.23-.08.04-28.26,56.53-56.45,28.23-.08.04-2.42,4.84h.57l2.23-4.46,56.45-28.23.08-.04,28.26-56.53,56.45-28.23.08-.04,28.26-56.53,56.45-28.23.08-.04,28.26-56.53,56.45-28.23.08-.04,28.26-56.53,4.47-2.23v-.57l-4.77,2.38-.08.04ZM464.25,125.95l-28.26,56.53-56.45,28.23-.08.04-28.26,56.53-56.45,28.23-.08.04-28.26,56.53-56.45,28.23-.08.04-28.26,56.53-56.45,28.23-.08.04-5.96,11.91h.57l5.76-11.53,56.45-28.23.08-.04,28.26-56.53,56.45-28.23.08-.04,28.26-56.53,56.45-28.23.08-.04,28.26-56.53,56.45-28.23.08-.04,28.26-56.53,11.53-5.77v-.57l-11.84,5.92-.08.04ZM435.98,97.69l-28.26,56.53-56.45,28.23-.08.04-28.26,56.53-56.45,28.23-.08.04-28.26,56.53-56.45,28.23-.08.04-28.26,56.53-56.45,28.22-.08.04-20.09,40.17h.57l19.9-39.79,56.45-28.22.08-.04,28.26-56.53,56.45-28.23.08-.04,28.26-56.53,56.45-28.23.08-.04,28.26-56.53,56.45-28.23.08-.04,28.26-56.53,39.8-19.9v-.57l-40.1,20.05-.08.04ZM414.86,76.45l-.08.04-28.26,56.53-56.45,28.23-.08.04-28.26,56.53-56.45,28.22-.08.04-28.26,56.53-56.45,28.22-.08.04-28.26,56.53-56.45,28.23-.08.04-28.26,56.53-9.69,4.84h1.14l8.85-4.43.08-.04,28.26-56.53,56.45-28.23.08-.04,28.26-56.53,56.45-28.22.08-.04,28.26-56.53,56.45-28.22.08-.04,28.26-56.53,56.45-28.23.08-.04,28.26-56.53,56.45-28.23.08-.04,4.47-8.93v-1.14l-4.85,9.69-56.45,28.23ZM443.05,104.76l-28.26,56.53-56.45,28.23-.08.04-28.26,56.53-56.45,28.23-.08.04-28.26,56.53-56.45,28.23-.08.04-28.26,56.53-56.45,28.22-.08.04-16.55,33.11h.57l16.36-32.73,56.45-28.22.08-.04,28.26-56.53,56.45-28.23.08-.04,28.26-56.53,56.45-28.23.08-.04,28.26-56.53,56.45-28.23.08-.04,28.26-56.53,32.73-16.36v-.57l-33.03,16.52-.08.04ZM457.18,288.47l-28.26,56.53-56.45,28.23-.08.04-28.26,56.53-56.45,28.23-.08.04-9.49,18.98h.57l9.3-18.6,56.45-28.23.08-.04,28.26-56.53,56.45-28.23.08-.04,28.26-56.53,18.6-9.3v-.57l-18.9,9.45-.08.04ZM464.25,41.16l-56.45,28.23-.08.04-28.26,56.53-56.45,28.22-.08.04-28.26,56.53-56.45,28.22-.08.04-28.26,56.53-56.45,28.22-.08.04-28.26,56.53-56.45,28.23-.08.04-28.26,56.53-23.82,11.91h1.14l22.99-11.49.08-.04,28.26-56.53,56.45-28.23.08-.04,28.26-56.53,56.45-28.22.08-.04,28.26-56.53,56.45-28.22.08-.04,28.26-56.53,56.45-28.22.08-.04,28.26-56.53,56.45-28.23.08-.04,11.53-23.06v-1.14l-11.91,23.82ZM450.11,111.82l-28.26,56.53-56.45,28.23-.08.04-28.26,56.53-56.45,28.23-.08.04-28.26,56.53-56.45,28.23-.08.04-28.26,56.53-56.45,28.23-.08.04-13.02,26.04h.57l12.83-25.66,56.45-28.23.08-.04,28.26-56.53,56.45-28.23.08-.04,28.26-56.53,56.45-28.23.08-.04,28.26-56.53,56.45-28.23.08-.04,28.26-56.53,25.66-12.83v-.57l-25.97,12.98-.08.04ZM435.98,436.85l-20.09,40.17h.57l19.9-39.79,39.8-19.9v-.57l-40.1,20.05-.08.04ZM443.05,443.91l-16.55,33.11h.57l16.36-32.73,32.73-16.36v-.57l-33.03,16.52-.08.04ZM421.85,422.72l-27.15,54.3h.57l26.96-53.93,53.93-26.96v-.57l-54.23,27.11-.08.04ZM450.11,450.98l-13.02,26.04h.57l12.83-25.66,25.66-12.83v-.57l-25.97,12.98-.08.04ZM414.86,415.61l-.08.04-28.26,56.53-9.69,4.84h1.14l8.85-4.43.08-.04,28.26-56.53,56.45-28.23.08-.04,4.47-8.93v-1.14l-4.85,9.69-56.45,28.23ZM471.31,472.18l-2.42,4.84h.57l2.23-4.46,4.47-2.23v-.57l-4.77,2.38-.08.04ZM464.25,465.11l-5.96,11.91h.57l5.77-11.53,11.53-5.77v-.57l-11.84,5.92-.08.04ZM450.11,281.4l-28.26,56.53-56.45,28.23-.08.04-28.26,56.53-56.45,28.23-.08.04-13.02,26.04h.57l12.83-25.66,56.45-28.23.08-.04,28.26-56.53,56.45-28.23.08-.04,28.26-56.53,25.66-12.83v-.57l-25.97,12.98-.08.04ZM457.18,458.05l-9.49,18.98h.57l9.3-18.6,18.6-9.3v-.57l-18.9,9.45-.08.04ZM407.79,408.55l-.08.04-28.26,56.53-23.82,11.91h1.14l22.98-11.49.08-.04,28.26-56.53,56.45-28.23.08-.04,11.53-23.06v-1.14l-11.91,23.82-56.45,28.23ZM428.92,260.2l-28.26,56.53-56.45,28.22-.08.04-28.26,56.53-56.45,28.22-.08.04-23.62,47.24h.57l23.43-46.86,56.45-28.22.08-.04,28.26-56.53,56.45-28.22.08-.04,28.26-56.53,46.86-23.43v-.57l-47.16,23.58-.08.04ZM443.05,274.34l-28.26,56.53-56.45,28.23-.08.04-28.26,56.53-56.45,28.22-.08.04-16.55,33.11h.57l16.36-32.73,56.45-28.22.08-.04,28.26-56.53,56.45-28.23.08-.04,28.26-56.53,32.73-16.36v-.57l-33.03,16.52-.08.04ZM435.98,267.27l-28.26,56.53-56.45,28.23-.08.04-28.26,56.53-56.45,28.22-.08.04-20.09,40.17h.57l19.9-39.79,56.45-28.22.08-.04,28.26-56.53,56.45-28.23.08-.04,28.26-56.53,39.8-19.9v-.57l-40.1,20.05-.08.04ZM421.85,253.14l-28.26,56.53-56.45,28.22-.08.04-28.26,56.53-56.45,28.22-.08.04-27.15,54.3h.57l26.96-53.93,56.45-28.22.08-.04,28.26-56.53,56.45-28.22.08-.04,28.26-56.53,53.93-26.96v-.57l-54.23,27.12-.08.04ZM400.73,401.48l-.08.04-28.26,56.53-37.95,18.98h1.14l37.12-18.56.08-.04,28.26-56.53,56.45-28.23.08-.04,18.6-37.19v-1.14l-18.98,37.95-56.45,28.23ZM393.66,394.42l-.08.04-28.26,56.53-52.08,26.04h1.14l51.25-25.62.08-.04,28.26-56.53,56.45-28.23.08-.04,25.66-51.33v-1.14l-26.04,52.09-56.45,28.23ZM428.92,429.78l-23.62,47.24h.57l23.43-46.86,46.86-23.43v-.57l-47.16,23.58-.08.04ZM33.61,204.06l56.45-28.23.08-.04,28.26-56.53,56.45-28.23.08-.04,28.26-56.53,56.45-28.22.08-.04,2.42-4.85h-.57l-2.23,4.47-56.45,28.22-.08.04-28.26,56.53-56.45,28.23-.08.04-28.26,56.53-56.45,28.23-.08.04-28.26,56.53-4.47,2.23v.57l4.85-2.42,28.26-56.53ZM19.48,274.71l28.26-56.53,56.45-28.23.08-.04,28.26-56.53,56.45-28.22.08-.04,28.26-56.53,56.45-28.22.08-.04,9.49-18.98h-.57l-9.3,18.6-56.45,28.22-.08.04-28.26,56.53-56.45,28.22-.08.04-28.26,56.53-56.45,28.23-.08.04-28.26,56.53-18.6,9.3v.57l18.9-9.45.08-.04ZM68.86,324.21l.08-.04,28.26-56.53,56.45-28.23.08-.04,28.26-56.53,56.45-28.23.08-.04,28.26-56.53,56.45-28.23.08-.04,28.26-56.53,23.83-11.91h-1.14l-22.99,11.5-.08.04-28.26,56.53-56.45,28.23-.08.04-28.26,56.53-56.45,28.23-.08.04-28.26,56.53-56.45,28.23-.08.04-28.26,56.53-56.45,28.23-.08.04-11.53,23.06v1.14l11.91-23.82,56.45-28.23ZM61.8,317.15l.08-.04,28.26-56.53,56.45-28.23.08-.04,28.26-56.53,56.45-28.23.08-.04,28.26-56.53,56.45-28.23.08-.04,28.26-56.53,9.69-4.85h-1.14l-8.86,4.43-.08.04-28.26,56.53-56.45,28.23-.08.04-28.26,56.53-56.45,28.23-.08.04-28.26,56.53-56.45,28.23-.08.04-28.26,56.53-56.45,28.23-.08.04-4.47,8.93v1.14l4.85-9.69,56.45-28.22ZM15.04,1.37h-1.14L5.04,5.8l-.08.04L.5,14.77v1.14L5.35,6.21,15.04,1.37ZM40.67,295.91l28.26-56.53,56.45-28.22.08-.04,28.26-56.53,56.45-28.22.08-.04,28.26-56.53,56.45-28.23.08-.04L315.13,1.37h-.57l-19.9,39.8-56.45,28.23-.08.04-28.26,56.53-56.45,28.22-.08.04-28.26,56.53-56.45,28.22-.08.04-28.26,56.53L.5,315.43v.57l40.1-20.05.08-.04ZM33.61,288.85l28.26-56.53,56.45-28.22.08-.04,28.26-56.53,56.45-28.22.08-.04,28.26-56.53,56.45-28.23.08-.04L304.53,1.37h-.57l-16.37,32.73-56.45,28.23-.08.04-28.26,56.53-56.45,28.22-.08.04-28.26,56.53-56.45,28.22-.08.04-28.26,56.53L.5,304.83v.57l33.03-16.52.08-.04ZM26.54,281.78l28.26-56.53,56.45-28.23.08-.04,28.26-56.53,56.45-28.22.08-.04,28.26-56.53,56.45-28.22.08-.04,13.02-26.04h-.57l-12.83,25.67-56.45,28.22-.08.04-28.26,56.53-56.45,28.22-.08.04-28.26,56.53-56.45,28.23-.08.04-28.26,56.53-25.66,12.83v.57l25.97-12.98.08-.04ZM19.48,444.29l28.26-56.53,56.45-28.23.08-.04,28.26-56.53,56.45-28.23.08-.04,28.26-56.53,56.45-28.23.08-.04,28.26-56.53,56.45-28.22.08-.04,28.26-56.53,56.45-28.22.08-.04,9.49-18.98h-.57l-9.3,18.6-56.45,28.22-.08.04-28.26,56.53-56.45,28.22-.08.04-28.26,56.53-56.45,28.23-.08.04-28.26,56.53-56.45,28.23-.08.04-28.26,56.53-56.45,28.23-.08.04-28.26,56.53-18.6,9.3v.57l18.9-9.45.08-.04ZM12.41,437.23l28.26-56.53,56.45-28.23.08-.04,28.26-56.53,56.45-28.23.08-.04,28.26-56.53,56.45-28.23.08-.04,28.26-56.53,56.45-28.23.08-.04,28.26-56.53,56.45-28.22.08-.04,5.96-11.91h-.57l-5.77,11.53-56.45,28.22-.08.04-28.26,56.53-56.45,28.23-.08.04-28.26,56.53-56.45,28.23-.08.04-28.26,56.53-56.45,28.23-.08.04-28.26,56.53-56.45,28.23-.08.04-28.26,56.53-11.53,5.77v.57l11.84-5.92.08-.04ZM33.61,373.64l56.45-28.23.08-.04,28.26-56.53,56.45-28.23.08-.04,28.26-56.53,56.45-28.23.08-.04,28.26-56.53,56.45-28.23.08-.04,28.26-56.53,56.45-28.22.08-.04,2.42-4.85h-.57l-2.23,4.47-56.45,28.22-.08.04-28.26,56.53-56.45,28.23-.08.04-28.26,56.53-56.45,28.23-.08.04-28.26,56.53-56.45,28.23-.08.04-28.26,56.53-56.45,28.23-.08.04-28.26,56.53-4.47,2.23v.57l4.85-2.42,28.26-56.53ZM75.93,331.28l.08-.04,28.26-56.53,56.45-28.23.08-.04,28.26-56.53,56.45-28.23.08-.04,28.26-56.53,56.45-28.23.08-.04,28.26-56.53L396.59,1.37h-1.14l-37.12,18.56-.08.04-28.26,56.53-56.45,28.23-.08.04-28.26,56.53-56.45,28.23-.08.04-28.26,56.53-56.45,28.23-.08.04-28.26,56.53-56.45,28.23-.08.04L.5,396.32v1.14l18.98-37.95,56.45-28.23ZM33.61,458.43l28.26-56.53,56.45-28.23.08-.04,28.26-56.53,56.45-28.23.08-.04,28.26-56.53,56.45-28.22.08-.04,28.26-56.53,56.45-28.22.08-.04,28.26-56.53,56.45-28.23.08-.04L474.11,1.37h-.57l-16.37,32.73-56.45,28.23-.08.04-28.26,56.53-56.45,28.22-.08.04-28.26,56.53-56.45,28.22-.08.04-28.26,56.53-56.45,28.23-.08.04-28.26,56.53-56.45,28.23-.08.04-28.26,56.53L.5,474.41v.57l33.03-16.52.08-.04ZM82.99,338.34l.08-.04,28.26-56.53,56.45-28.23.08-.04,28.26-56.53,56.45-28.23.08-.04,28.26-56.53,56.45-28.23.08-.04,28.26-56.53L417.79,1.37h-1.14l-51.25,25.63-.08.04-28.26,56.53-56.45,28.23-.08.04-28.26,56.53-56.45,28.23-.08.04-28.26,56.53-56.45,28.23-.08.04-28.26,56.53-56.45,28.23-.08.04L.5,417.52v1.14l26.04-52.09,56.45-28.23ZM47.74,302.98l28.26-56.53,56.45-28.22.08-.04,28.26-56.53,56.45-28.23.08-.04,28.26-56.53,56.45-28.23.08-.04L325.73,1.37h-.57l-23.43,46.86-56.45,28.23-.08.04-28.26,56.53-56.45,28.23-.08.04-28.26,56.53-56.45,28.22-.08.04-28.26,56.53L.5,326.03v.57l47.16-23.58.08-.04ZM26.54,451.36l28.26-56.53,56.45-28.23.08-.04,28.26-56.53,56.45-28.23.08-.04,28.26-56.53,56.45-28.23.08-.04,28.26-56.53,56.45-28.22.08-.04,28.26-56.53,56.45-28.23.08-.04,13.02-26.04h-.57l-12.83,25.67-56.45,28.22-.08.04-28.26,56.53-56.45,28.23-.08.04-28.26,56.53-56.45,28.23-.08.04-28.26,56.53-56.45,28.23-.08.04-28.26,56.53-56.45,28.23-.08.04-28.26,56.53-25.66,12.83v.57l25.97-12.98.08-.04ZM12.41,267.65l28.26-56.53,56.45-28.23.08-.04,28.26-56.53,56.45-28.23.08-.04,28.26-56.53,56.45-28.22.08-.04,5.96-11.91h-.57l-5.77,11.53-56.45,28.22-.08.04-28.26,56.53-56.45,28.23-.08.04-28.26,56.53-56.45,28.23-.08.04-28.26,56.53-11.53,5.77v.57l11.84-5.92.08-.04ZM26.54,112.2l28.26-56.53,56.45-28.22.08-.04L124.36,1.37h-.57l-12.83,25.67-56.45,28.22-.08.04-28.26,56.53L.5,124.65v.57l25.97-12.98.08-.04ZM40.67,126.33l28.26-56.53,56.45-28.23.08-.04L145.55,1.37h-.57l-19.9,39.8-56.45,28.23-.08.04-28.26,56.53L.5,145.85v.57l40.1-20.05.08-.04ZM47.74,133.4l28.26-56.53,56.45-28.23.08-.04L156.15,1.37h-.57l-23.43,46.86-56.45,28.23-.08.04-28.26,56.53L.5,156.45v.57l47.16-23.58.08-.04ZM33.61,119.27l28.26-56.53,56.45-28.23.08-.04L134.95,1.37h-.57l-16.36,32.73-56.45,28.23-.08.04-28.26,56.53L.5,135.25v.57l33.03-16.52.08-.04ZM54.81,140.46l28.26-56.53,56.45-28.23.08-.04L166.75,1.37h-.57l-26.96,53.93-56.45,28.23-.08.04-28.26,56.53L.5,167.05v.57l54.23-27.12.08-.04ZM36.24,1.37h-1.14L12.11,12.86l-.08.04L.5,35.96v1.14L12.41,13.28,36.24,1.37ZM78.63,1.37h-1.14L26.24,26.99l-.08.04L.5,78.36v1.14L26.54,27.41,78.63,1.37ZM57.43,1.37h-1.14L19.17,19.93l-.08.04L.5,57.16v1.14L19.48,20.34,57.43,1.37ZM61.8,147.57l.08-.04,28.26-56.53,56.45-28.23.08-.04,28.26-56.53,9.69-4.85h-1.14l-8.86,4.43-.08.04-28.26,56.53-56.45,28.23-.08.04-28.26,56.53-56.45,28.23-.08.04-4.47,8.93v1.14l4.85-9.69,56.45-28.23ZM19.48,105.13l28.26-56.53,56.45-28.22.08-.04L113.76,1.37h-.57l-9.3,18.6-56.45,28.22-.08.04-28.26,56.53L.5,114.05v.57l18.9-9.45.08-.04ZM82.99,168.76l.08-.04,28.26-56.53,56.45-28.23.08-.04,28.26-56.53L248.21,1.37h-1.14l-51.25,25.63-.08.04-28.26,56.53-56.45,28.23-.08.04-28.26,56.53-56.45,28.23-.08.04L.5,247.94v1.14l26.04-52.09,56.45-28.23ZM68.86,154.63l.08-.04,28.26-56.53,56.45-28.23.08-.04,28.26-56.53,23.83-11.91h-1.14l-22.99,11.5-.08.04-28.26,56.53-56.45,28.23-.08.04-28.26,56.53-56.45,28.23-.08.04L.5,205.54v1.14l11.91-23.82,56.45-28.23ZM75.93,161.7l.08-.04,28.26-56.53,56.45-28.23.08-.04,28.26-56.53L227.01,1.37h-1.14l-37.12,18.56-.08.04-28.26,56.53-56.45,28.23-.08.04-28.26,56.53-56.45,28.23-.08.04L.5,226.74v1.14l18.98-37.95,56.45-28.23ZM12.41,98.07l28.26-56.53,56.45-28.22.08-.04,5.96-11.91h-.57l-5.77,11.53-56.45,28.22-.08.04-28.26,56.53-11.53,5.77v.57l11.84-5.92.08-.04ZM33.61,34.48L90.06,6.25l.08-.04,2.42-4.85h-.57l-2.23,4.47-56.45,28.22-.08.04L4.97,90.62l-4.47,2.23v.57l4.85-2.42,28.26-56.53ZM54.81,310.04l28.26-56.53,56.45-28.22.08-.04,28.26-56.53,56.45-28.23.08-.04,28.26-56.53,56.45-28.23.08-.04L336.33,1.37h-.57l-26.96,53.93-56.45,28.23-.08.04-28.26,56.53-56.45,28.23-.08.04-28.26,56.53-56.45,28.22-.08.04-28.26,56.53L.5,336.63v.57l54.23-27.12.08-.04Z"/>
  </g>
  <path class="cls-2" d="M739.9,231.88l-.08.04-28.26,56.53-56.45,28.23-.08.04-28.26,56.53-56.45,28.23-.08.04-28.26,56.53-37.95,18.98h1.14l37.12-18.56.08-.04,28.26-56.53,56.45-28.23.08-.04,28.26-56.53,56.45-28.23.08-.04,28.26-56.53,56.45-28.22.08-.04,18.6-37.19v-1.14l-18.98,37.95-56.45,28.22ZM732.83,224.82l-.08.04-28.26,56.53-56.45,28.23-.08.04-28.26,56.53-56.45,28.23-.08.04-28.26,56.53-52.08,26.04h1.14l51.25-25.62.08-.04,28.26-56.53,56.45-28.23.08-.04,28.26-56.53,56.45-28.23.08-.04,28.26-56.53,56.45-28.23.08-.04,25.66-51.33v-1.14l-26.04,52.09-56.45,28.23ZM761.02,83.54l-28.26,56.53-56.45,28.23-.08.04-28.26,56.53-56.45,28.23-.08.04-28.26,56.53-56.45,28.22-.08.04-28.26,56.53-56.45,28.22-.08.04-27.15,54.3h.57l26.96-53.93,56.45-28.22.08-.04,28.26-56.53,56.45-28.22.08-.04,28.26-56.53,56.45-28.22.08-.04,28.26-56.53,56.45-28.23.08-.04,28.26-56.53,53.93-26.96v-.57l-54.23,27.12-.08.04ZM768.09,90.61l-28.26,56.53-56.45,28.23-.08.04-28.26,56.53-56.45,28.23-.08.04-28.26,56.53-56.45,28.23-.08.04-28.26,56.53-56.45,28.22-.08.04-23.62,47.24h.57l23.43-46.86,56.45-28.22.08-.04,28.26-56.53,56.45-28.22.08-.04,28.26-56.53,56.45-28.23.08-.04,28.26-56.53,56.45-28.23.08-.04,28.26-56.53,46.86-23.43v-.57l-47.16,23.58-.08.04ZM803.41,295.51l-28.26,56.53-56.45,28.23-.08.04-28.26,56.53-56.45,28.23-.08.04-5.96,11.91h.57l5.77-11.53,56.45-28.23.08-.04,28.26-56.53,56.45-28.23.08-.04,28.26-56.53,11.53-5.77v-.57l-11.84,5.92-.08.04ZM810.48,302.58l-28.26,56.53-56.45,28.23-.08.04-28.26,56.53-56.45,28.23-.08.04-2.42,4.84h.57l2.23-4.46,56.45-28.23.08-.04,28.26-56.53,56.45-28.23.08-.04,28.26-56.53,4.47-2.23v-.57l-4.77,2.38-.08.04ZM754.03,246.01l-.08.04-28.26,56.53-56.45,28.22-.08.04-28.26,56.53-56.45,28.23-.08.04-28.26,56.53-9.69,4.84h1.14l8.85-4.43.08-.04,28.26-56.53,56.45-28.23.08-.04,28.26-56.53,56.45-28.22.08-.04,28.26-56.53,56.45-28.22.08-.04,4.47-8.93v-1.14l-4.85,9.69-56.45,28.22ZM746.96,238.95l-.08.04-28.26,56.53-56.45,28.22-.08.04-28.26,56.53-56.45,28.23-.08.04-28.26,56.53-23.82,11.91h1.14l22.99-11.49.08-.04,28.26-56.53,56.45-28.23.08-.04,28.26-56.53,56.45-28.22.08-.04,28.26-56.53,56.45-28.22.08-.04,11.53-23.06v-1.14l-11.91,23.82-56.45,28.22ZM796.35,118.87l-28.26,56.53-56.45,28.23-.08.04-28.26,56.53-56.45,28.23-.08.04-28.26,56.53-56.45,28.23-.08.04-28.26,56.53-56.45,28.23-.08.04-9.49,18.98h.57l9.3-18.6,56.45-28.23.08-.04,28.26-56.53,56.45-28.23.08-.04,28.26-56.53,56.45-28.23.08-.04,28.26-56.53,56.45-28.23.08-.04,28.26-56.53,18.6-9.3v-.57l-18.9,9.45-.08.04ZM810.48,133l-28.26,56.53-56.45,28.23-.08.04-28.26,56.53-56.45,28.23-.08.04-28.26,56.53-56.45,28.23-.08.04-28.26,56.53-56.45,28.23-.08.04-2.42,4.84h.57l2.23-4.46,56.45-28.23.08-.04,28.26-56.53,56.45-28.23.08-.04,28.26-56.53,56.45-28.23.08-.04,28.26-56.53,56.45-28.23.08-.04,28.26-56.53,4.47-2.23v-.57l-4.77,2.38-.08.04ZM803.41,125.93l-28.26,56.53-56.45,28.23-.08.04-28.26,56.53-56.45,28.23-.08.04-28.26,56.53-56.45,28.23-.08.04-28.26,56.53-56.45,28.23-.08.04-5.96,11.91h.57l5.76-11.53,56.45-28.23.08-.04,28.26-56.53,56.45-28.23.08-.04,28.26-56.53,56.45-28.23.08-.04,28.26-56.53,56.45-28.23.08-.04,28.26-56.53,11.53-5.77v-.57l-11.84,5.92-.08.04ZM775.15,97.67l-28.26,56.53-56.45,28.23-.08.04-28.26,56.53-56.45,28.23-.08.04-28.26,56.53-56.45,28.23-.08.04-28.26,56.53-56.45,28.22-.08.04-20.09,40.17h.57l19.9-39.79,56.45-28.22.08-.04,28.26-56.53,56.45-28.23.08-.04,28.26-56.53,56.45-28.23.08-.04,28.26-56.53,56.45-28.23.08-.04,28.26-56.53,39.8-19.9v-.57l-40.1,20.05-.08.04ZM754.03,76.44l-.08.04-28.26,56.53-56.45,28.23-.08.04-28.26,56.53-56.45,28.22-.08.04-28.26,56.53-56.45,28.22-.08.04-28.26,56.53-56.45,28.23-.08.04-28.26,56.53-9.69,4.84h1.14l8.85-4.43.08-.04,28.26-56.53,56.45-28.23.08-.04,28.26-56.53,56.45-28.22.08-.04,28.26-56.53,56.45-28.22.08-.04,28.26-56.53,56.45-28.23.08-.04,28.26-56.53,56.45-28.23.08-.04,4.47-8.93v-1.14l-4.85,9.69-56.45,28.23ZM782.22,104.74l-28.26,56.53-56.45,28.23-.08.04-28.26,56.53-56.45,28.23-.08.04-28.26,56.53-56.45,28.23-.08.04-28.26,56.53-56.45,28.22-.08.04-16.55,33.11h.57l16.36-32.73,56.45-28.22.08-.04,28.26-56.53,56.45-28.23.08-.04,28.26-56.53,56.45-28.23.08-.04,28.26-56.53,56.45-28.23.08-.04,28.26-56.53,32.73-16.36v-.57l-33.03,16.52-.08.04ZM796.35,288.45l-28.26,56.53-56.45,28.23-.08.04-28.26,56.53-56.45,28.23-.08.04-9.49,18.98h.57l9.3-18.6,56.45-28.23.08-.04,28.26-56.53,56.45-28.23.08-.04,28.26-56.53,18.6-9.3v-.57l-18.9,9.45-.08.04ZM803.41,41.14l-56.45,28.23-.08.04-28.26,56.53-56.45,28.22-.08.04-28.26,56.53-56.45,28.22-.08.04-28.26,56.53-56.45,28.22-.08.04-28.26,56.53-56.45,28.23-.08.04-28.26,56.53-23.82,11.91h1.14l22.99-11.49.08-.04,28.26-56.53,56.45-28.23.08-.04,28.26-56.53,56.45-28.22.08-.04,28.26-56.53,56.45-28.22.08-.04,28.26-56.53,56.45-28.22.08-.04,28.26-56.53,56.45-28.23.08-.04,11.53-23.06v-1.14l-11.91,23.82ZM789.28,111.8l-28.26,56.53-56.45,28.23-.08.04-28.26,56.53-56.45,28.23-.08.04-28.26,56.53-56.45,28.23-.08.04-28.26,56.53-56.45,28.23-.08.04-13.02,26.04h.57l12.83-25.66,56.45-28.23.08-.04,28.26-56.53,56.45-28.23.08-.04,28.26-56.53,56.45-28.23.08-.04,28.26-56.53,56.45-28.23.08-.04,28.26-56.53,25.66-12.83v-.57l-25.97,12.98-.08.04ZM775.15,436.83l-20.09,40.17h.57l19.9-39.79,39.8-19.9v-.57l-40.1,20.05-.08.04ZM782.22,443.9l-16.55,33.11h.57l16.36-32.73,32.73-16.36v-.57l-33.03,16.52-.08.04ZM761.02,422.7l-27.15,54.3h.57l26.96-53.93,53.93-26.96v-.57l-54.23,27.11-.08.04ZM789.28,450.96l-13.02,26.04h.57l12.83-25.66,25.66-12.83v-.57l-25.97,12.98-.08.04ZM754.03,415.6l-.08.04-28.26,56.53-9.69,4.84h1.14l8.85-4.43.08-.04,28.26-56.53,56.45-28.23.08-.04,4.47-8.93v-1.14l-4.85,9.69-56.45,28.23ZM810.48,472.16l-2.42,4.84h.57l2.23-4.46,4.47-2.23v-.57l-4.77,2.38-.08.04ZM803.41,465.09l-5.96,11.91h.57l5.77-11.53,11.53-5.77v-.57l-11.84,5.92-.08.04ZM789.28,281.38l-28.26,56.53-56.45,28.23-.08.04-28.26,56.53-56.45,28.23-.08.04-13.02,26.04h.57l12.83-25.66,56.45-28.23.08-.04,28.26-56.53,56.45-28.23.08-.04,28.26-56.53,25.66-12.83v-.57l-25.97,12.98-.08.04ZM796.35,458.03l-9.49,18.98h.57l9.3-18.6,18.6-9.3v-.57l-18.9,9.45-.08.04ZM746.96,408.53l-.08.04-28.26,56.53-23.82,11.91h1.14l22.98-11.49.08-.04,28.26-56.53,56.45-28.23.08-.04,11.53-23.06v-1.14l-11.91,23.82-56.45,28.23ZM768.09,260.18l-28.26,56.53-56.45,28.22-.08.04-28.26,56.53-56.45,28.22-.08.04-23.62,47.24h.57l23.43-46.86,56.45-28.22.08-.04,28.26-56.53,56.45-28.22.08-.04,28.26-56.53,46.86-23.43v-.57l-47.16,23.58-.08.04ZM782.22,274.32l-28.26,56.53-56.45,28.23-.08.04-28.26,56.53-56.45,28.22-.08.04-16.55,33.11h.57l16.36-32.73,56.45-28.22.08-.04,28.26-56.53,56.45-28.23.08-.04,28.26-56.53,32.73-16.36v-.57l-33.03,16.52-.08.04ZM775.15,267.25l-28.26,56.53-56.45,28.23-.08.04-28.26,56.53-56.45,28.22-.08.04-20.09,40.17h.57l19.9-39.79,56.45-28.22.08-.04,28.26-56.53,56.45-28.23.08-.04,28.26-56.53,39.8-19.9v-.57l-40.1,20.05-.08.04ZM761.02,253.12l-28.26,56.53-56.45,28.22-.08.04-28.26,56.53-56.45,28.22-.08.04-27.15,54.3h.57l26.96-53.93,56.45-28.22.08-.04,28.26-56.53,56.45-28.22.08-.04,28.26-56.53,53.93-26.96v-.57l-54.23,27.12-.08.04ZM739.9,401.46l-.08.04-28.26,56.53-37.95,18.98h1.14l37.12-18.56.08-.04,28.26-56.53,56.45-28.23.08-.04,18.6-37.19v-1.14l-18.98,37.95-56.45,28.23ZM732.83,394.4l-.08.04-28.26,56.53-52.08,26.04h1.14l51.25-25.62.08-.04,28.26-56.53,56.45-28.23.08-.04,25.66-51.33v-1.14l-26.04,52.09-56.45,28.23ZM768.09,429.76l-23.62,47.24h.57l23.43-46.86,46.86-23.43v-.57l-47.16,23.58-.08.04ZM372.78,204.04l56.45-28.23.08-.04,28.26-56.53,56.45-28.23.08-.04,28.26-56.53,56.45-28.22.08-.04,2.42-4.85h-.57l-2.23,4.47-56.45,28.22-.08.04-28.26,56.53-56.45,28.23-.08.04-28.26,56.53-56.45,28.23-.08.04-28.26,56.53-4.47,2.23v.57l4.85-2.42,28.26-56.53ZM358.65,274.7l28.26-56.53,56.45-28.23.08-.04,28.26-56.53,56.45-28.22.08-.04,28.26-56.53,56.45-28.22.08-.04,9.49-18.98h-.57l-9.3,18.6-56.45,28.22-.08.04-28.26,56.53-56.45,28.22-.08.04-28.26,56.53-56.45,28.23-.08.04-28.26,56.53-18.6,9.3v.57l18.9-9.45.08-.04ZM408.03,324.19l.08-.04,28.26-56.53,56.45-28.23.08-.04,28.26-56.53,56.45-28.23.08-.04,28.26-56.53,56.45-28.23.08-.04,28.26-56.53,23.83-11.91h-1.14l-22.99,11.5-.08.04-28.26,56.53-56.45,28.23-.08.04-28.26,56.53-56.45,28.23-.08.04-28.26,56.53-56.45,28.23-.08.04-28.26,56.53-56.45,28.23-.08.04-11.53,23.06v1.14l11.91-23.82,56.45-28.23ZM400.97,317.13l.08-.04,28.26-56.53,56.45-28.23.08-.04,28.26-56.53,56.45-28.23.08-.04,28.26-56.53,56.45-28.23.08-.04,28.26-56.53,9.69-4.85h-1.14l-8.86,4.43-.08.04-28.26,56.53-56.45,28.23-.08.04-28.26,56.53-56.45,28.23-.08.04-28.26,56.53-56.45,28.23-.08.04-28.26,56.53-56.45,28.23-.08.04-4.47,8.93v1.14l4.85-9.69,56.45-28.22ZM354.21,1.35h-1.14l-8.86,4.43-.08.04-4.47,8.93v1.14l4.85-9.69,9.69-4.85ZM379.84,295.89l28.26-56.53,56.45-28.22.08-.04,28.26-56.53,56.45-28.22.08-.04,28.26-56.53,56.45-28.23.08-.04,20.09-40.18h-.57l-19.9,39.8-56.45,28.23-.08.04-28.26,56.53-56.45,28.22-.08.04-28.26,56.53-56.45,28.22-.08.04-28.26,56.53-39.8,19.9v.57l40.1-20.05.08-.04ZM372.78,288.83l28.26-56.53,56.45-28.22.08-.04,28.26-56.53,56.45-28.22.08-.04,28.26-56.53,56.45-28.23.08-.04,16.56-33.11h-.57l-16.37,32.73-56.45,28.23-.08.04-28.26,56.53-56.45,28.22-.08.04-28.26,56.53-56.45,28.22-.08.04-28.26,56.53-32.73,16.36v.57l33.03-16.52.08-.04ZM365.71,281.76l28.26-56.53,56.45-28.23.08-.04,28.26-56.53,56.45-28.22.08-.04,28.26-56.53,56.45-28.22.08-.04,13.02-26.04h-.57l-12.83,25.67-56.45,28.22-.08.04-28.26,56.53-56.45,28.22-.08.04-28.26,56.53-56.45,28.23-.08.04-28.26,56.53-25.66,12.83v.57l25.97-12.98.08-.04ZM358.65,444.28l28.26-56.53,56.45-28.23.08-.04,28.26-56.53,56.45-28.23.08-.04,28.26-56.53,56.45-28.23.08-.04,28.26-56.53,56.45-28.22.08-.04,28.26-56.53,56.45-28.22.08-.04,9.49-18.98h-.57l-9.3,18.6-56.45,28.22-.08.04-28.26,56.53-56.45,28.22-.08.04-28.26,56.53-56.45,28.23-.08.04-28.26,56.53-56.45,28.23-.08.04-28.26,56.53-56.45,28.23-.08.04-28.26,56.53-18.6,9.3v.57l18.9-9.45.08-.04ZM351.58,437.21l28.26-56.53,56.45-28.23.08-.04,28.26-56.53,56.45-28.23.08-.04,28.26-56.53,56.45-28.23.08-.04,28.26-56.53,56.45-28.23.08-.04,28.26-56.53,56.45-28.22.08-.04,5.96-11.91h-.57l-5.77,11.53-56.45,28.22-.08.04-28.26,56.53-56.45,28.23-.08.04-28.26,56.53-56.45,28.23-.08.04-28.26,56.53-56.45,28.23-.08.04-28.26,56.53-56.45,28.23-.08.04-28.26,56.53-11.53,5.77v.57l11.84-5.92.08-.04ZM372.78,373.62l56.45-28.23.08-.04,28.26-56.53,56.45-28.23.08-.04,28.26-56.53,56.45-28.23.08-.04,28.26-56.53,56.45-28.23.08-.04,28.26-56.53,56.45-28.22.08-.04,2.42-4.85h-.57l-2.23,4.47-56.45,28.22-.08.04-28.26,56.53-56.45,28.23-.08.04-28.26,56.53-56.45,28.23-.08.04-28.26,56.53-56.45,28.23-.08.04-28.26,56.53-56.45,28.23-.08.04-28.26,56.53-4.47,2.23v.57l4.85-2.42,28.26-56.53ZM415.1,331.26l.08-.04,28.26-56.53,56.45-28.23.08-.04,28.26-56.53,56.45-28.23.08-.04,28.26-56.53,56.45-28.23.08-.04,28.26-56.53,37.96-18.98h-1.14l-37.12,18.56-.08.04-28.26,56.53-56.45,28.23-.08.04-28.26,56.53-56.45,28.23-.08.04-28.26,56.53-56.45,28.23-.08.04-28.26,56.53-56.45,28.23-.08.04-18.6,37.2v1.14l18.98-37.95,56.45-28.23ZM372.78,458.41l28.26-56.53,56.45-28.23.08-.04,28.26-56.53,56.45-28.23.08-.04,28.26-56.53,56.45-28.22.08-.04,28.26-56.53,56.45-28.22.08-.04,28.26-56.53,56.45-28.23.08-.04,16.56-33.11h-.57l-16.37,32.73-56.45,28.23-.08.04-28.26,56.53-56.45,28.22-.08.04-28.26,56.53-56.45,28.22-.08.04-28.26,56.53-56.45,28.23-.08.04-28.26,56.53-56.45,28.23-.08.04-28.26,56.53-32.73,16.37v.57l33.03-16.52.08-.04ZM422.16,338.33l.08-.04,28.26-56.53,56.45-28.23.08-.04,28.26-56.53,56.45-28.23.08-.04,28.26-56.53,56.45-28.23.08-.04,28.26-56.53,52.09-26.04h-1.14l-51.25,25.63-.08.04-28.26,56.53-56.45,28.23-.08.04-28.26,56.53-56.45,28.23-.08.04-28.26,56.53-56.45,28.23-.08.04-28.26,56.53-56.45,28.23-.08.04-25.66,51.33v1.14l26.04-52.09,56.45-28.23ZM386.91,302.96l28.26-56.53,56.45-28.22.08-.04,28.26-56.53,56.45-28.23.08-.04,28.26-56.53,56.45-28.23.08-.04,23.62-47.24h-.57l-23.43,46.86-56.45,28.23-.08.04-28.26,56.53-56.45,28.23-.08.04-28.26,56.53-56.45,28.22-.08.04-28.26,56.53-46.86,23.43v.57l47.16-23.58.08-.04ZM365.71,451.34l28.26-56.53,56.45-28.23.08-.04,28.26-56.53,56.45-28.23.08-.04,28.26-56.53,56.45-28.23.08-.04,28.26-56.53,56.45-28.22.08-.04,28.26-56.53,56.45-28.23.08-.04,13.02-26.04h-.57l-12.83,25.67-56.45,28.22-.08.04-28.26,56.53-56.45,28.23-.08.04-28.26,56.53-56.45,28.23-.08.04-28.26,56.53-56.45,28.23-.08.04-28.26,56.53-56.45,28.23-.08.04-28.26,56.53-25.66,12.83v.57l25.97-12.98.08-.04ZM351.58,267.63l28.26-56.53,56.45-28.23.08-.04,28.26-56.53,56.45-28.23.08-.04,28.26-56.53,56.45-28.22.08-.04,5.96-11.91h-.57l-5.77,11.53-56.45,28.22-.08.04-28.26,56.53-56.45,28.23-.08.04-28.26,56.53-56.45,28.23-.08.04-28.26,56.53-11.53,5.77v.57l11.84-5.92.08-.04ZM365.71,112.18l28.26-56.53,56.45-28.22.08-.04,13.02-26.04h-.57l-12.83,25.67-56.45,28.22-.08.04-28.26,56.53-25.66,12.83v.57l25.97-12.98.08-.04ZM379.84,126.31l28.26-56.53,56.45-28.23.08-.04L484.72,1.35h-.57l-19.9,39.8-56.45,28.23-.08.04-28.26,56.53-39.8,19.9v.57l40.1-20.05.08-.04ZM386.91,133.38l28.26-56.53,56.45-28.23.08-.04L495.32,1.35h-.57l-23.43,46.86-56.45,28.23-.08.04-28.26,56.53-46.86,23.43v.57l47.16-23.58.08-.04ZM372.78,119.25l28.26-56.53,56.45-28.23.08-.04L474.12,1.35h-.57l-16.36,32.73-56.45,28.23-.08.04-28.26,56.53-32.73,16.36v.57l33.03-16.52.08-.04ZM393.97,140.44l28.26-56.53,56.45-28.23.08-.04L505.92,1.35h-.57l-26.96,53.93-56.45,28.23-.08.04-28.26,56.53-53.93,26.96v.57l54.23-27.12.08-.04ZM375.41,1.35h-1.14l-22.99,11.5-.08.04-11.53,23.06v1.14l11.91-23.82,23.83-11.91ZM417.8,1.35h-1.14l-51.25,25.63-.08.04-25.66,51.33v1.14l26.04-52.09L417.8,1.35ZM396.6,1.35h-1.14l-37.12,18.56-.08.04-18.6,37.2v1.14l18.98-37.95L396.6,1.35ZM400.97,147.55l.08-.04,28.26-56.53,56.45-28.23.08-.04,28.26-56.53,9.69-4.85h-1.14l-8.86,4.43-.08.04-28.26,56.53-56.45,28.23-.08.04-28.26,56.53-56.45,28.23-.08.04-4.47,8.93v1.14l4.85-9.69,56.45-28.23ZM358.65,105.12l28.26-56.53,56.45-28.22.08-.04,9.49-18.98h-.57l-9.3,18.6-56.45,28.22-.08.04-28.26,56.53-18.6,9.3v.57l18.9-9.45.08-.04ZM422.16,168.75l.08-.04,28.26-56.53,56.45-28.23.08-.04,28.26-56.53,52.09-26.04h-1.14l-51.25,25.63-.08.04-28.26,56.53-56.45,28.23-.08.04-28.26,56.53-56.45,28.23-.08.04-25.66,51.33v1.14l26.04-52.09,56.45-28.23ZM408.03,154.61l.08-.04,28.26-56.53,56.45-28.23.08-.04,28.26-56.53,23.83-11.91h-1.14l-22.99,11.5-.08.04-28.26,56.53-56.45,28.23-.08.04-28.26,56.53-56.45,28.23-.08.04-11.53,23.06v1.14l11.91-23.82,56.45-28.23ZM415.1,161.68l.08-.04,28.26-56.53,56.45-28.23.08-.04,28.26-56.53,37.96-18.98h-1.14l-37.12,18.56-.08.04-28.26,56.53-56.45,28.23-.08.04-28.26,56.53-56.45,28.23-.08.04-18.6,37.2v1.14l18.98-37.95,56.45-28.23ZM351.58,98.05l28.26-56.53,56.45-28.22.08-.04,5.96-11.91h-.57l-5.77,11.53-56.45,28.22-.08.04-28.26,56.53-11.53,5.77v.57l11.84-5.92.08-.04ZM372.78,34.46l56.45-28.22.08-.04,2.42-4.85h-.57l-2.23,4.47-56.45,28.22-.08.04-28.26,56.53-4.47,2.23v.57l4.85-2.42,28.26-56.53ZM393.97,310.03l28.26-56.53,56.45-28.22.08-.04,28.26-56.53,56.45-28.23.08-.04,28.26-56.53,56.45-28.23.08-.04,27.15-54.31h-.57l-26.96,53.93-56.45,28.23-.08.04-28.26,56.53-56.45,28.23-.08.04-28.26,56.53-56.45,28.22-.08.04-28.26,56.53-53.93,26.96v.57l54.23-27.12.08-.04Z"/>
</svg>