<svg id="Group_3356" data-name="Group 3356" xmlns="http://www.w3.org/2000/svg" width="18.146" height="18.178" viewBox="0 0 18.146 18.178">
  <path id="Path_3159" data-name="Path 3159" d="M17.587,0a2.691,2.691,0,0,1,.369.161,1.114,1.114,0,0,1,.552,1.006q0,4.233,0,8.466V9.88c.067-.062.114-.1.156-.144.643-.644,1.28-1.295,1.931-1.93a1.128,1.128,0,0,1,1.891.512A1.068,1.068,0,0,1,22.21,9.4q-2.016,2.034-4.046,4.054a1.1,1.1,0,0,1-1.579,0Q14.554,11.437,12.54,9.4a1.135,1.135,0,0,1,1.613-1.6c.645.634,1.28,1.278,1.917,1.919a1.353,1.353,0,0,1,.116.155l.054-.026v-.2c0-2.751.011-5.5-.008-8.253A1.257,1.257,0,0,1,17.162,0Z" transform="translate(-8.3)" fill="#fff"/>
  <path id="Path_3160" data-name="Path 3160" d="M.925,51.877a3.264,3.264,0,0,1-.483-.244A1.114,1.114,0,0,1,.06,50.38a1.12,1.12,0,0,1,1.056-.774q7.96,0,15.92,0a1.113,1.113,0,0,1,1.042.742c.022.06.046.12.069.179v.426a4.192,4.192,0,0,1-.179.4,1.23,1.23,0,0,1-.742.525Z" transform="translate(0 -33.698)" fill="#fff"/>
  <path id="Path_3161" data-name="Path 3161" d="M53.715,54.733a1.23,1.23,0,0,0,.742-.525,4.194,4.194,0,0,0,.179-.4v.923Z" transform="translate(-36.491 -36.555)" fill="#fff"/>
</svg>
