<svg xmlns="http://www.w3.org/2000/svg" width="35" height="32" viewBox="0 0 35 32">
  <g id="Group_3509" data-name="Group 3509" transform="translate(-904.852 -2596.673)">
    <g id="Polygon_1" data-name="Polygon 1" transform="translate(904.852 2596.673)" fill="none">
      <path d="M13.991,6.417a4,4,0,0,1,7.019,0L31.763,26.081A4,4,0,0,1,28.253,32H6.747a4,4,0,0,1-3.509-5.919Z" stroke="none"/>
      <path d="M 17.5 6.836584091186523 C 17.23259925842285 6.836584091186523 16.56908988952637 6.912614822387695 16.18395042419434 7.616874694824219 L 5.430519104003906 27.2802734375 C 5.060470581054688 27.95692443847656 5.325279235839844 28.54399490356445 5.456310272216797 28.76499557495117 C 5.587329864501953 28.98598480224609 5.975349426269531 29.4999942779541 6.746570587158203 29.4999942779541 L 28.25341987609863 29.4999942779541 C 29.02465057373047 29.4999942779541 29.41266059875488 28.98598480224609 29.5436897277832 28.76498413085938 C 29.67472076416016 28.54399490356445 29.93951988220215 27.95692443847656 29.56948089599609 27.2802734375 L 18.81605911254883 7.616874694824219 C 18.4309196472168 6.912614822387695 17.76740074157715 6.836584091186523 17.5 6.836584091186523 M 17.50000190734863 4.336589813232422 C 18.87544059753418 4.336589813232422 20.25088119506836 5.030174255371094 21.00949096679688 6.41734504699707 L 31.76290893554688 26.08074569702148 C 33.22066116333008 28.7463550567627 31.29158973693848 31.9999942779541 28.25341987609863 31.9999942779541 L 6.746570587158203 31.9999942779541 C 3.708400726318359 31.9999942779541 1.779338836669922 28.7463550567627 3.237089157104492 26.08074569702148 L 13.99052047729492 6.41734504699707 C 14.74912452697754 5.030174255371094 16.12456321716309 4.336589813232422 17.50000190734863 4.336589813232422 Z" stroke="none" fill="#fff"/>
    </g>
    <path id="Path_15621" data-name="Path 15621" d="M920.5,2608.726v7.3" transform="translate(1.852 1.914)" fill="none" stroke="#fff" stroke-linecap="round" stroke-width="2.5"/>
    <circle id="Ellipse_5" data-name="Ellipse 5" cx="1.399" cy="1.399" r="1.399" transform="translate(920.953 2620.509)" fill="#fff"/>
  </g>
</svg>
