<svg xmlns="http://www.w3.org/2000/svg" width="25.997" height="26.04" viewBox="0 0 25.997 26.04">
  <g id="Group_3505" data-name="Group 3505" transform="translate(25.997 0) rotate(90)">
    <path id="Path_15613" data-name="Path 15613" d="M7.133,90.936h6.828c.21,0,.246-.03.324-.231a4.1,4.1,0,0,1,.859-1.411,4.037,4.037,0,0,1,2.247-1.254,3.794,3.794,0,0,1,2.722.508,4.021,4.021,0,0,1,1.417,1.391,6.51,6.51,0,0,1,.353.771c.078.192.115.232.323.232l3.42,0c.085,0,.169.011.254.011.128,0,.168.073.168.187,0,.263,0,.525,0,.788,0,.314,0,.627,0,.94,0,.2-.026.227-.224.24-.135.009-.271.007-.407.007H22.225c-.2,0-.259.035-.323.232a4.062,4.062,0,0,1-1.4,1.938,3.472,3.472,0,0,1-2.093.778,3.987,3.987,0,0,1-1.8-.243,4.1,4.1,0,0,1-2.276-2.368c-.124-.335-.119-.336-.474-.336H.725c-.17,0-.339,0-.509,0s-.193-.036-.2-.195c0-.1,0-.195,0-.292q0-.705,0-1.411c0-.246.029-.277.278-.277H7.133ZM19.98,92.031a1.9,1.9,0,0,0-1.888-1.906,1.894,1.894,0,1,0-.006,3.788,1.892,1.892,0,0,0,1.894-1.882" transform="translate(-0.012 -79.008)" fill="#fff"/>
    <path id="Path_15614" data-name="Path 15614" d="M18.94,5.143H12.151c-.321-.008-.316-.006-.421.295A3.882,3.882,0,0,1,10.157,7.45c-.232.153-.485.274-.73.406a4.089,4.089,0,0,1-1.12.253,2.475,2.475,0,0,1-.856-.035A3.068,3.068,0,0,1,7,8.016a4.394,4.394,0,0,1-.7-.247A4.2,4.2,0,0,1,4.287,5.745a3.417,3.417,0,0,1-.154-.416.244.244,0,0,0-.248-.179c-.157,0-.314-.008-.47-.008l-3.242.01C.027,5.153,0,5.129,0,4.986c0-.61,0-1.22,0-1.83,0-.122.052-.171.16-.18s.2-.018.3-.018q1.627,0,3.255,0a1.069,1.069,0,0,1,.138.011.248.248,0,0,0,.259-.154A4.191,4.191,0,0,1,6.09.489,3.381,3.381,0,0,1,7.273.056,3.819,3.819,0,0,1,8.9.121a4.193,4.193,0,0,1,2.766,2.373c.044.1.076.2.115.3a.266.266,0,0,0,.287.182c.131-.007.263-.012.394-.012H25.72c.283.009.316.043.316.323q0,.832,0,1.665c0,.18-.015.2-.192.2h-6.9M6.071,4.054A1.92,1.92,0,0,0,7.9,5.98,1.953,1.953,0,0,0,9.85,4.069a2.049,2.049,0,0,0-.539-1.313,1.884,1.884,0,0,0-3.239,1.3" transform="translate(0 0)" fill="#fff"/>
    <path id="Path_15615" data-name="Path 15615" d="M18.849,181.07H12.466c-.119,0-.237,0-.356-.009-.213-.012-.281.031-.35.23a3.9,3.9,0,0,1-.681,1.238,4.2,4.2,0,0,1-1.367,1.058,3.873,3.873,0,0,1-2.319.36A4.059,4.059,0,0,1,4.8,182.466a3.531,3.531,0,0,1-.632-1.179.285.285,0,0,0-.325-.233c-.453.007-.907.014-1.36.015q-.973,0-1.945,0c-.127,0-.254-.013-.38-.023a.137.137,0,0,1-.144-.155q0-.941,0-1.881a.1.1,0,0,1,.1-.114c.059,0,.119,0,.178,0h3.56c.2,0,.244-.039.3-.219a3.674,3.674,0,0,1,1.73-2.152,4.277,4.277,0,0,1,1.149-.5,4.033,4.033,0,0,1,1.34-.065,3.919,3.919,0,0,1,2.852,1.631,3.079,3.079,0,0,1,.531,1.032c.065.245.113.269.37.269H25.745c.366,0,.3,0,.3.3,0,.555,0,1.11,0,1.665,0,.12-.048.173-.157.186a2.817,2.817,0,0,1-.316.026q-3.363,0-6.727,0M6.082,180a1.88,1.88,0,0,0,1.927,1.839,1.948,1.948,0,0,0,1.851-1.819,1.854,1.854,0,0,0-1.906-1.939A1.793,1.793,0,0,0,6.082,180" transform="translate(-0.01 -157.993)" fill="#fff"/>
  </g>
</svg>
