<svg xmlns="http://www.w3.org/2000/svg" width="25.992" height="26.997" viewBox="0 0 25.992 26.997">
  <g id="Group_3508" data-name="Group 3508" transform="translate(0 0)">
    <path id="Path_15619" data-name="Path 15619" d="M13.011,26.992c-2.509,0-5.019.012-7.528,0a5.34,5.34,0,0,1-4.3-2.063A5.221,5.221,0,0,1,.022,21.858C.007,21.579,0,21.3,0,21.021c0-4.127,0-9.253,0-13.38A5.447,5.447,0,0,1,.384,5.61,5.376,5.376,0,0,1,2.46,3.067a5.568,5.568,0,0,1,1.588-.711,6.535,6.535,0,0,1,1.733-.181c.169,0,.339-.006.508,0A.166.166,0,0,0,6.486,2c.005-.076.006-.152.01-.228A8.864,8.864,0,0,1,6.554.826,1.05,1.05,0,0,1,8.246.253a1.1,1.1,0,0,1,.4.891c0,.25,0,.5,0,.749,0,.212.054.27.268.275q.254.007.508.007l7.68,0c.177,0,.234-.057.237-.235.006-.338,0-.678.023-1.014a1.1,1.1,0,0,1,.879-.913,1.1,1.1,0,0,1,1.22.952c.022.295.03.591.044.886,0,.038,0,.076,0,.114.015.161.039.192.2.2.292.008.584.007.876.012a5.455,5.455,0,0,1,2.221.49,5.546,5.546,0,0,1,1.249.791,5.217,5.217,0,0,1,1.357,1.721,5.567,5.567,0,0,1,.511,1.613,5.674,5.674,0,0,1,.064.834c0,4.283.007,9.566,0,13.849A5.425,5.425,0,0,1,24.8,24.931a5.438,5.438,0,0,1-3.908,2.039c-.224.013-.448.021-.672.021q-3.605,0-7.211,0m0-16.163v0H2.5c-.316,0-.336.016-.336.327,0,3.187-.007,7.373,0,10.56a2.677,2.677,0,0,0,.41,1.447,3.348,3.348,0,0,0,2.982,1.68q7.5-.005,14.991-.006a3.011,3.011,0,0,0,1.114-.195,3.658,3.658,0,0,0,1.38-.94,3.013,3.013,0,0,0,.735-1.437,6.1,6.1,0,0,0,.062-1.3c0-2.641,0-6.281,0-8.922q0-.508-.01-1.015c0-.149-.04-.185-.19-.194-.1-.006-.2,0-.3,0H13.006m0-2.168H23.493c.072,0,.144,0,.216-.008a.112.112,0,0,0,.12-.129c0-.19,0-.381.008-.571a3.713,3.713,0,0,0-.264-1.675,3.223,3.223,0,0,0-1.459-1.582,3.317,3.317,0,0,0-1.589-.367q-7.554,0-15.107,0a3.134,3.134,0,0,0-1.933.617,3.12,3.12,0,0,0-1.3,2.269c-.042.431-.01.87-.014,1.305,0,.091.052.121.125.127.105.009.211.011.317.011h10.4" transform="translate(0 0)" fill="#fff"/>
    <path id="Path_15620" data-name="Path 15620" d="M107.582,133.536a3.11,3.11,0,0,0-1.528-.408l.084-.56H108.1a.509.509,0,0,0,.509-.509v-.716a.509.509,0,0,0-.509-.509h-3.011a.509.509,0,0,0-.5.441l-.407,3.02a.509.509,0,0,0,.568.573l.049-.006a5.709,5.709,0,0,1,.759-.058c1.29,0,1.3.67,1.3.885a.891.891,0,0,1-.981.855,2.315,2.315,0,0,1-1.086-.277.509.509,0,0,0-.743.279l-.213.648a.509.509,0,0,0,.208.587,3.569,3.569,0,0,0,1.844.468,2.7,2.7,0,0,0,2.852-2.658,2.3,2.3,0,0,0-1.153-2.056" transform="translate(-93.229 -116.504)" fill="#fff"/>
  </g>
</svg>
