<?xml version="1.0" encoding="UTF-8"?>
<svg id="Layer_1" data-name="Layer 1" xmlns="http://www.w3.org/2000/svg" viewBox="0 0 147.56 47.96">
  <defs>
    <style>
      .cls-1 {
        fill: #fff;
      }
    </style>
  </defs>
  <g>
    <path class="cls-1" d="M0,26.16L3.59.62h7.44c3.79,0,6.7.92,8.76,2.77,2.05,1.84,3.08,4.46,3.08,7.86,0,2.15-.31,4.13-.92,5.95-.61,1.82-1.54,3.4-2.78,4.74-1.25,1.34-2.82,2.38-4.73,3.11-1.9.73-4.16,1.1-6.78,1.1H0ZM5.94,21.36h1.65c2.15,0,3.9-.31,5.24-.93,1.34-.62,2.36-1.45,3.06-2.47.7-1.03,1.17-2.14,1.43-3.33.26-1.2.38-2.36.38-3.48,0-1.47-.29-2.61-.86-3.44-.57-.83-1.39-1.42-2.45-1.76s-2.35-.51-3.87-.51h-2.34l-2.23,15.94Z"/>
    <path class="cls-1" d="M24.66,33.63l5.06-9.01-4.4-16.52h5.46l2.23,11.5,5.64-11.5h5.5l-13.96,25.54h-5.53Z"/>
    <path class="cls-1" d="M44.14,26.16l2.56-18.06h4.73l-.29,4.18-.77-.15c.46-1.15,1.04-2.04,1.74-2.69.7-.65,1.45-1.09,2.25-1.34.81-.24,1.59-.37,2.34-.37,1.93,0,3.41.49,4.45,1.47,1.04.98,1.56,2.31,1.56,3.99v.57c0,.21-.02.42-.07.64l-1.65,11.76h-5.06l1.43-10.18c.05-.27.08-.51.09-.71.01-.21.02-.42.02-.64,0-.88-.19-1.52-.57-1.92-.38-.4-.98-.6-1.81-.6-1.29,0-2.34.46-3.13,1.39-.79.93-1.33,2.36-1.59,4.29l-1.21,8.39h-5.02Z"/>
    <path class="cls-1" d="M72.06,26.52c-1.42,0-2.62-.32-3.61-.97s-1.73-1.55-2.23-2.71c-.5-1.16-.75-2.5-.75-4.01,0-1.42.21-2.79.64-4.12.43-1.33,1.04-2.52,1.83-3.57.79-1.05,1.74-1.88,2.84-2.49s2.32-.92,3.66-.92c.95,0,1.83.2,2.64.59.81.39,1.44,1,1.91,1.83.46.83.66,1.92.59,3.26l-.88-.59.95-4.73h4.69l-2.53,18.06h-4.73l.33-4.65,1.25-.59c-.54,1.54-1.17,2.72-1.9,3.54s-1.51,1.37-2.33,1.65c-.82.28-1.61.42-2.36.42ZM73.64,21.91c.83,0,1.56-.18,2.18-.53.62-.35,1.15-.84,1.58-1.45.43-.61.74-1.28.95-2,.21-.72.31-1.43.31-2.14s-.12-1.36-.37-1.87-.6-.91-1.06-1.19c-.46-.28-1.03-.42-1.69-.42-.83,0-1.56.18-2.2.55-.64.37-1.16.85-1.58,1.45-.42.6-.73,1.26-.93,2-.21.73-.31,1.45-.31,2.16s.12,1.33.35,1.85c.23.53.59.92,1.06,1.19.48.27,1.04.4,1.7.4Z"/>
    <path class="cls-1" d="M105,26.67c-1.86,0-3.5-.34-4.95-1.03-1.44-.68-2.57-1.63-3.39-2.84-.82-1.21-1.24-2.61-1.26-4.19l5.2-.99c.05,1.51.51,2.63,1.39,3.33.88.71,1.95,1.06,3.22,1.06.83,0,1.54-.13,2.14-.38.6-.26,1.06-.62,1.39-1.1.33-.48.49-1.03.49-1.67,0-.56-.13-1.05-.4-1.47-.27-.42-.7-.8-1.28-1.15-.59-.35-1.36-.71-2.31-1.08-1.49-.61-2.72-1.28-3.7-2.02-.98-.73-1.7-1.55-2.16-2.45-.46-.9-.7-1.92-.7-3.04,0-1.46.36-2.78,1.08-3.94.72-1.16,1.72-2.07,2.99-2.73,1.27-.66,2.74-.99,4.4-.99,1.9,0,3.58.45,5.02,1.34,1.44.89,2.43,2.11,2.97,3.65l-4.4,2.27c-.37-.88-.85-1.53-1.45-1.96-.6-.43-1.31-.64-2.14-.64-.71,0-1.29.13-1.76.38-.46.26-.82.59-1.06.99-.24.4-.37.86-.37,1.37s.13.92.38,1.3c.26.38.68.73,1.28,1.06.6.33,1.41.71,2.44,1.15,1.42.56,2.59,1.18,3.54,1.87.94.68,1.66,1.48,2.16,2.4.5.92.75,2,.75,3.24,0,1.64-.4,3.08-1.21,4.32-.81,1.25-1.92,2.21-3.35,2.89-1.43.68-3.08,1.03-4.96,1.03Z"/>
    <path class="cls-1" d="M116.94,26.16l3.59-25.54h5.24l-3.59,25.54h-5.24Z"/>
    <path class="cls-1" d="M126.79,26.16l3.59-25.54h17.18l-.62,4.69h-11.94l-.77,5.39h10.37l-.66,4.69h-10.37l-1.54,10.77h-5.24Z"/>
  </g>
  <g>
    <path class="cls-1" d="M47.4,45.66c-.66,0-1.17-.13-1.54-.39-.37-.26-.64-.55-.81-.88h-.15v1.1h-.72v-8.64h.74v3.69h.15c.11-.21.26-.4.45-.59.19-.18.44-.34.75-.46s.68-.18,1.12-.18c.54,0,1.03.13,1.47.38.44.25.78.61,1.04,1.07.25.46.38,1.01.38,1.65v.15c0,.63-.13,1.18-.39,1.65s-.61.82-1.04,1.07c-.44.25-.92.38-1.46.38ZM47.22,45c.68,0,1.24-.22,1.66-.65.42-.44.64-1.04.64-1.8v-.1c0-.77-.21-1.37-.64-1.8-.42-.44-.98-.65-1.66-.65s-1.23.22-1.65.65c-.43.44-.64,1.04-.64,1.8v.1c0,.77.21,1.37.64,1.8.43.44.98.65,1.65.65Z"/>
    <path class="cls-1" d="M52.91,47.96v-.67h3.51c.25,0,.37-.12.37-.37v-2.47h-.15c-.1.2-.24.38-.41.56-.18.18-.41.32-.69.43-.28.11-.64.17-1.07.17s-.83-.09-1.19-.27c-.37-.18-.66-.45-.88-.81-.22-.36-.33-.82-.33-1.37v-3.67h.74v3.62c0,.65.16,1.12.49,1.41s.77.43,1.32.43c.62,0,1.13-.2,1.54-.61.41-.4.62-1.02.62-1.84v-3.01h.74v7.53c0,.3-.08.53-.24.69-.16.17-.4.25-.72.25h-3.65Z"/>
  </g>
  <g>
    <path class="cls-1" d="M65.56,45.66c-.64,0-1.21-.12-1.71-.35s-.89-.56-1.17-.99c-.28-.43-.42-.95-.42-1.55v-.22h1.43v.19c0,.5.17.9.51,1.2.34.3.79.44,1.35.44s1-.14,1.31-.41c.31-.28.47-.62.47-1.04v-.11c0-.3-.07-.54-.22-.72-.14-.18-.34-.32-.58-.4-.24-.09-.52-.13-.82-.13h-1.65v-1.6l2.93-1.64v-.18h-4.52v-1.28h6.1v1.93l-2.77,1.56v.19h.51c.41,0,.8.08,1.18.24.37.16.68.41.92.73s.36.76.36,1.28v.14c0,.56-.13,1.04-.4,1.46-.27.41-.64.73-1.12.96-.48.23-1.04.34-1.69.34Z"/>
    <path class="cls-1" d="M73.14,45.66c-.64,0-1.2-.12-1.68-.36-.48-.24-.85-.58-1.12-1.02-.27-.44-.4-.94-.4-1.52v-2.97c0-.68.14-1.25.42-1.72s.66-.81,1.15-1.04c.49-.23,1.06-.35,1.7-.35s1.2.11,1.66.33c.46.22.82.53,1.07.93.25.4.38.87.38,1.41h-1.46c0-.38-.13-.7-.39-.98s-.68-.41-1.27-.41-1.04.15-1.35.46-.48.73-.48,1.28v.96h.21c.14-.19.36-.36.67-.52.3-.16.74-.24,1.3-.24.51,0,.98.11,1.4.32s.77.53,1.03.94c.26.41.4.91.4,1.48v.15c0,.58-.14,1.08-.41,1.51-.27.43-.65.77-1.14,1.01-.49.24-1.05.36-1.7.36ZM73.16,44.38c.54,0,.98-.15,1.3-.44.32-.29.48-.68.48-1.17v-.1c0-.34-.07-.63-.22-.86-.14-.24-.35-.43-.62-.56-.27-.14-.58-.2-.94-.2s-.67.07-.94.2-.48.32-.62.56-.22.53-.22.86v.1c0,.49.16.87.48,1.17.32.29.75.44,1.3.44Z"/>
    <path class="cls-1" d="M80.9,45.66c-1.01,0-1.82-.28-2.43-.85-.61-.57-.91-1.42-.91-2.57v-2.15c0-1.12.3-1.97.91-2.55.61-.58,1.42-.87,2.43-.87s1.83.29,2.44.87c.6.58.91,1.43.91,2.55v2.15c0,1.14-.3,2-.91,2.57-.6.57-1.42.85-2.44.85ZM80.9,44.38c.65,0,1.13-.18,1.44-.54s.46-.88.46-1.54v-2.26c0-.67-.17-1.19-.51-1.54-.34-.35-.8-.53-1.4-.53s-1.08.18-1.41.54-.49.87-.49,1.53v2.26c0,.68.16,1.2.48,1.56.32.35.79.53,1.43.53Z"/>
    <path class="cls-1" d="M92.2,45.66c-1.07,0-1.92-.3-2.56-.9-.64-.6-.96-1.45-.96-2.57v-2.05c0-1.12.32-1.98.96-2.57s1.49-.9,2.56-.9,1.93.3,2.57.9.95,1.45.95,2.57v2.05c0,1.12-.32,1.98-.95,2.57-.63.6-1.49.9-2.57.9ZM92.2,44.33c.64,0,1.14-.19,1.5-.56.36-.38.54-.88.54-1.53v-2.15c0-.64-.18-1.15-.54-1.52-.36-.38-.86-.56-1.5-.56s-1.13.19-1.49.56c-.36.37-.54.88-.54,1.52v2.15c0,.64.18,1.15.54,1.53.36.37.85.56,1.49.56Z"/>
    <path class="cls-1" d="M97.21,45.49v-8.64h2.84l2.04,7.64h.2v-7.64h1.47v8.64h-2.83l-2.04-7.64h-.21v7.64h-1.47Z"/>
    <path class="cls-1" d="M105.45,45.49v-8.64h5.51v1.35h-4.01v2.27h3.67v1.35h-3.67v2.33h4.07v1.35h-5.57Z"/>
    <path class="cls-1" d="M114.72,45.49l2.37-8.64h2.58l2.37,8.64h-1.53l-.52-1.98h-3.22l-.52,1.98h-1.53ZM117.12,42.16h2.53l-1.16-4.38h-.21l-1.16,4.38Z"/>
    <path class="cls-1" d="M125.71,45.66c-.79,0-1.44-.17-1.95-.52-.51-.35-.82-.85-.93-1.52l1.31-.33c.06.31.16.56.31.74.15.18.33.31.55.38.22.07.46.11.71.11.39,0,.68-.07.87-.21s.29-.32.29-.53-.09-.39-.28-.49c-.19-.11-.47-.2-.85-.27l-.38-.06c-.42-.08-.8-.2-1.15-.34s-.62-.34-.83-.59c-.21-.25-.31-.57-.31-.96,0-.59.22-1.05.66-1.37.44-.32,1.02-.48,1.73-.48s1.25.15,1.69.46c.45.3.73.71.87,1.22l-1.31.4c-.07-.35-.21-.59-.43-.73s-.49-.22-.81-.22-.58.06-.76.17c-.18.12-.27.28-.27.49s.09.38.27.48c.18.11.42.19.73.23l.38.07c.45.08.86.19,1.23.32.37.13.66.32.87.57.21.25.32.58.32,1,0,.63-.23,1.12-.69,1.46-.46.34-1.07.51-1.84.51Z"/>
    <path class="cls-1" d="M132.19,45.66c-.79,0-1.44-.17-1.95-.52-.51-.35-.82-.85-.93-1.52l1.31-.33c.06.31.16.56.31.74.15.18.33.31.55.38.22.07.45.11.71.11.39,0,.68-.07.87-.21s.29-.32.29-.53-.09-.39-.28-.49c-.18-.11-.47-.2-.84-.27l-.38-.06c-.42-.08-.8-.2-1.15-.34s-.62-.34-.83-.59-.32-.57-.32-.96c0-.59.22-1.05.66-1.37.44-.32,1.02-.48,1.73-.48s1.25.15,1.69.46.73.71.86,1.22l-1.31.4c-.07-.35-.21-.59-.43-.73-.22-.14-.49-.22-.81-.22s-.58.06-.76.17-.26.28-.26.49.09.38.27.48c.18.11.42.19.73.23l.38.07c.45.08.86.19,1.23.32s.66.32.87.57c.21.25.32.58.32,1,0,.63-.23,1.12-.69,1.46-.46.34-1.07.51-1.84.51Z"/>
    <path class="cls-1" d="M138.95,45.66c-.61,0-1.15-.13-1.61-.39-.46-.26-.83-.63-1.09-1.1-.26-.47-.39-1.03-.39-1.66v-.15c0-.64.13-1.2.38-1.67.25-.47.61-.83,1.07-1.09.46-.26.99-.39,1.59-.39s1.11.13,1.56.39c.44.26.79.62,1.04,1.09.25.47.37,1.02.37,1.64v.51h-4.58c.02.48.18.86.51,1.15.32.29.72.43,1.19.43s.8-.1,1.02-.3c.22-.2.39-.43.51-.68l1.17.6c-.12.22-.28.46-.5.71s-.51.46-.87.64-.82.27-1.37.27ZM137.3,41.78h3.12c-.03-.4-.19-.72-.46-.96-.28-.24-.63-.36-1.07-.36s-.81.12-1.09.36c-.27.24-.44.56-.51.96Z"/>
    <path class="cls-1" d="M145.45,45.49c-.39,0-.71-.12-.94-.35s-.35-.55-.35-.96v-3.62h-1.59v-1.17h1.59v-1.96h1.42v1.96h1.75v1.17h-1.75v3.38c0,.25.12.37.35.37h1.22v1.17h-1.69Z"/>
  </g>
</svg>