<svg xmlns="http://www.w3.org/2000/svg" width="18.645" height="28.999" viewBox="0 0 18.645 28.999">
  <g id="Group_3378" data-name="Group 3378" transform="translate(0 -0.001)">
    <path id="Path_3197" data-name="Path 3197" d="M0,28.988V0H18.645c0,.147-.013.295-.013.442q0,14.043,0,28.086V29H.416c-.139,0-.277-.008-.416-.012m9.31-16.9q1.933,0,3.865,0c.823,0,1.209-.343,1.21-1.082q0-3.461,0-6.922c0-.745-.381-1.094-1.2-1.095q-3.865,0-7.731,0c-.823,0-1.207.347-1.208,1.083q0,3.461,0,6.923c0,.756.382,1.093,1.233,1.094q1.914,0,3.827,0m.013,4.5c1.325,0,2.65,0,3.975,0a1.018,1.018,0,0,0,1.023-.618c.23-.621-.256-1.2-1.038-1.214-.934-.013-1.868,0-2.8,0q-2.518,0-5.035,0a1.081,1.081,0,0,0-1.113.611.927.927,0,0,0,.976,1.222c1.338.012,2.675,0,4.013,0m-.041,9.2c1.338,0,2.676.006,4.014,0a.979.979,0,0,0,1.073-.93.965.965,0,0,0-1.024-.9q-4.032-.011-8.065,0a1,1,0,0,0-.955.609c-.24.617.25,1.217,1.021,1.223,1.313.01,2.625,0,3.938,0m.033-6.43h0c-.618,0-1.237,0-1.855,0-.757,0-1.515-.01-2.271.016a.936.936,0,0,0-.93.874.948.948,0,0,0,.874.923,3.513,3.513,0,0,0,.453.02q3.729,0,7.457,0a3.5,3.5,0,0,0,.453-.02.936.936,0,0,0,.864-.822c.057-.545-.4-.982-1.071-.987-1.325-.011-2.65,0-3.975,0" fill="#fff"/>
    <rect id="Rectangle_900" data-name="Rectangle 900" width="5.403" height="5.378" transform="translate(6.615 4.839)" fill="#fff"/>
  </g>
</svg>
