<svg xmlns="http://www.w3.org/2000/svg" width="27.505" height="27.51" viewBox="0 0 27.505 27.51">
  <path id="Path_3199" data-name="Path 3199" d="M27.5,12.951v1.612a1.821,1.821,0,0,0-.046.232,12.937,12.937,0,0,1-1.57,5.416,13.573,13.573,0,0,1-9.74,7.082c-.524.1-1.059.146-1.59.217H12.946a1.456,1.456,0,0,0-.207-.044A12.725,12.725,0,0,1,7.32,25.9,13.493,13.493,0,0,1,.024,14.33,12.742,12.742,0,0,1,1.936,6.743,13.473,13.473,0,0,1,13.174.024,12.809,12.809,0,0,1,20.2,1.618a13.55,13.55,0,0,1,7.086,9.744c.1.524.146,1.059.217,1.589M16.835,20.4c-.411.088-.781.2-1.159.243-1.071.123-1.539-.35-1.345-1.4.151-.815.375-1.618.577-2.423a16.335,16.335,0,0,0,.762-3.392,2.088,2.088,0,0,0-.933-1.983,3.276,3.276,0,0,0-2.25-.4,10.457,10.457,0,0,0-2.5.771c-.054.021-.129.06-.141.106-.078.286-.141.575-.219.9l.508-.163a2.564,2.564,0,0,1,1.349-.086c.362.077.58.255.6.624A4.842,4.842,0,0,1,12,14.5c-.216.94-.489,1.866-.751,2.8a10.679,10.679,0,0,0-.5,2.545,2.085,2.085,0,0,0,1.316,2.079,3.567,3.567,0,0,0,2.238.176c.751-.181,1.474-.482,2.207-.737a.218.218,0,0,0,.125-.122c.075-.274.136-.551.2-.831M14.961,5.272a6.673,6.673,0,0,0-.73.153,1.906,1.906,0,0,0-1.046,2.866,2.112,2.112,0,0,0,2.178.9,1.98,1.98,0,0,0,1.682-2.207,2.1,2.1,0,0,0-2.084-1.711" transform="translate(0.001 0)" fill="#fff"/>
</svg>
