<svg xmlns="http://www.w3.org/2000/svg" width="28.1" height="24.593" viewBox="0 0 28.1 24.593">
  <path id="Path_3198" data-name="Path 3198" d="M16.9,24.592h-.439c-.23-.144-.463-.283-.689-.431-.51-.335-1.021-.668-1.521-1.016a.305.305,0,0,0-.409,0c-.731.49-1.472.966-2.21,1.447H11.2c-.011-.013-.02-.034-.034-.039a.845.845,0,0,1-.618-.761.909.909,0,0,1,.491-.882c.523-.336,1.016-.723,1.559-1.02a1,1,0,0,0,.589-1.109,13.964,13.964,0,0,1-.011-1.457H3.7A1.775,1.775,0,0,1,1.757,17.39q0-6.761,0-13.522V3.519c-.3,0-.569,0-.841,0A.879.879,0,0,1,0,2.6c0-.494,0-.987,0-1.481C0,.309.3.007,1.1.007Q14.035.007,26.968,0A1.078,1.078,0,0,1,28.1.666v2.2a1.022,1.022,0,0,1-1.132.661c-.2-.018-.411,0-.624,0v.373q0,6.761,0,13.522a1.767,1.767,0,0,1-1.916,1.91h-9.5c0,.653.008,1.274,0,1.893a.424.424,0,0,0,.22.419q1.014.653,2.007,1.337a.872.872,0,0,1-.133,1.552c-.039.019-.076.044-.114.066M17.56,12.3V7.148a4.353,4.353,0,0,0-3.5,4.566,4.4,4.4,0,0,0,4.6,4.094c1.951-.076,4.07-1.909,4.036-3.507ZM8.8,15.794h1.722V7.044H8.8Zm-3.508,0H7.012V10.557H5.289Zm14.038-5.259h3.386a4.213,4.213,0,0,0-3.386-3.363Z" transform="translate(0)" fill="#fff"/>
</svg>
