<svg xmlns="http://www.w3.org/2000/svg" width="23.106" height="30.353" viewBox="0 0 23.106 30.353">
  <g id="Group_3379" data-name="Group 3379" transform="translate(-528.949 -2574.325)">
    <path id="Path_3200" data-name="Path 3200" d="M17.036,8.892a2.672,2.672,0,0,1-2.817-2.829q0-2.859,0-5.718V0H2.857A2.675,2.675,0,0,0,0,2.848Q0,15.173,0,27.5a2.66,2.66,0,0,0,2.232,2.814.372.372,0,0,1,.078.04H20.8c.178-.052.361-.092.535-.158a2.651,2.651,0,0,0,1.712-1.929c.019-.076.043-.15.064-.225V8.893q-3.035,0-6.07,0M5.41,13.045a.9.9,0,0,1,.907-.538c1.756,0,3.512,0,5.268,0s3.492,0,5.238,0a.891.891,0,1,1-.019,1.778q-2.515,0-5.031,0-2.738,0-5.475,0a.888.888,0,0,1-.888-1.241m0,3.559a.9.9,0,0,1,.905-.54c1.746,0,3.492,0,5.238,0s3.512,0,5.268,0a.891.891,0,1,1-.013,1.778q-2.175,0-4.35,0-3.078,0-6.156,0A.889.889,0,0,1,5.408,16.6m7.826,8.353q-1.745,0-3.491,0-1.7,0-3.4,0a.9.9,0,1,1-.01-1.778q3.447,0,6.893,0a.894.894,0,1,1,.01,1.777m4.463-4.1a.9.9,0,0,1-.9.541q-2.619-.005-5.238,0c-1.756,0-3.512,0-5.268,0A.891.891,0,1,1,6.3,19.622q2.382,0,4.765,0c1.924,0,3.847,0,5.771,0a.885.885,0,0,1,.864,1.237" transform="translate(528.949 2574.325)" fill="#fff"/>
    <path id="Path_3201" data-name="Path 3201" d="M270.317,17.73q2.471,0,4.942,0h.491l-6.443-6.444c0,1.771,0,3.606,0,5.441a.905.905,0,0,0,1.01,1" transform="translate(275.639 2563.709)" fill="#fff"/>
  </g>
</svg>
