<?xml version="1.0" encoding="UTF-8"?>
<svg id="Layer_1" data-name="Layer 1" xmlns="http://www.w3.org/2000/svg" viewBox="0 0 152.68 24.26">
  <defs>
    <style>
      .cls-1 {
        fill: #129f4a;
      }

      .cls-2 {
        fill: #fff;
      }

      .cls-3 {
        fill: #7d1b13;
      }

      .cls-4 {
        fill: #e46c0a;
      }

      .cls-5 {
        fill: #92c53f;
      }

      .cls-6 {
        fill: #f2ea3b;
      }
    </style>
  </defs>
  <g>
    <rect class="cls-1" y="4.17" width="30.54" height="10.14"/>
    <rect class="cls-5" x="30.54" y="4.17" width="30.54" height="10.14"/>
    <rect class="cls-6" x="61.07" y="4.17" width="30.54" height="10.14"/>
    <rect class="cls-4" x="91.61" y="4.17" width="30.54" height="10.14"/>
    <rect class="cls-3" x="122.14" y="4.17" width="30.54" height="10.14"/>
    <g>
      <path d="M.38,19.84h.44v3.01h1.44v.37H.38v-3.37Z"/>
      <path d="M4.92,21.98c0,.9-.62,1.29-1.21,1.29-.66,0-1.16-.48-1.16-1.25,0-.81.53-1.29,1.2-1.29s1.17.51,1.17,1.25ZM3,22.01c0,.53.31.93.74.93s.74-.4.74-.94c0-.41-.21-.93-.73-.93s-.75.48-.75.94Z"/>
      <path d="M5.59,20.79l.32,1.23c.07.27.14.52.18.77h.01c.05-.25.13-.5.21-.77l.4-1.24h.37l.38,1.21c.09.29.16.54.21.79h.02c.04-.25.1-.5.18-.79l.35-1.22h.44l-.78,2.42h-.4l-.37-1.16c-.08-.27-.16-.51-.21-.8h-.01c-.06.29-.13.54-.22.8l-.39,1.15h-.4l-.73-2.42h.45Z"/>
      <path d="M9.28,22.08c0,.6.39.84.83.84.32,0,.5-.06.67-.12l.08.31c-.16.07-.42.15-.81.15-.75,0-1.19-.49-1.19-1.22s.43-1.31,1.14-1.31c.79,0,1,.7,1,1.14,0,.09,0,.16-.02.21h-1.7ZM10.57,21.77c0-.28-.12-.72-.61-.72-.45,0-.64.41-.68.72h1.29Z"/>
      <path d="M11.54,21.54c0-.29,0-.53-.02-.76h.39v.48h.04c.11-.33.38-.53.67-.53.05,0,.08,0,.12.02v.42s-.09-.01-.15-.01c-.31,0-.53.23-.59.57,0,.06-.02.13-.02.21v1.29h-.44v-1.67Z"/>
      <path d="M14.25,19.88c.22-.04.54-.07.84-.07.46,0,.77.08.98.28.17.15.27.38.27.64,0,.45-.28.74-.64.86v.02c.26.09.42.33.5.68.11.47.19.8.26.93h-.45c-.05-.09-.13-.39-.22-.81-.1-.47-.28-.64-.68-.66h-.41v1.46h-.44v-3.33ZM14.68,21.42h.45c.46,0,.76-.25.76-.64,0-.44-.32-.62-.78-.63-.21,0-.36.02-.43.04v1.23Z"/>
      <path d="M17.41,20.11c0,.15-.11.27-.28.27-.16,0-.27-.12-.27-.27s.12-.28.28-.28.27.12.27.28ZM16.92,23.21v-2.42h.44v2.42h-.44Z"/>
      <path d="M18.03,22.76c.13.08.36.17.58.17.32,0,.47-.16.47-.36s-.13-.33-.45-.45c-.44-.16-.64-.4-.64-.69,0-.39.32-.71.84-.71.25,0,.46.07.6.15l-.11.32c-.09-.06-.27-.14-.5-.14-.26,0-.41.15-.41.33,0,.2.14.29.46.41.42.16.64.37.64.73,0,.43-.33.73-.91.73-.27,0-.51-.06-.68-.17l.11-.33Z"/>
      <path d="M20.51,21.9h0c.06-.08.15-.19.22-.28l.71-.84h.53l-.94,1,1.07,1.43h-.54l-.84-1.16-.23.25v.91h-.44v-3.55h.44v2.24Z"/>
    </g>
    <g>
      <path d="M127.48,19.84v1.41h1.63v-1.41h.44v3.37h-.44v-1.58h-1.63v1.58h-.43v-3.37h.43Z"/>
      <path d="M130.78,20.11c0,.15-.1.27-.28.27-.16,0-.26-.12-.26-.27s.12-.28.28-.28.27.12.27.28ZM130.29,23.21v-2.42h.44v2.42h-.44Z"/>
      <path d="M133.54,20.79c0,.18-.02.37-.02.67v1.41c0,.56-.11.9-.35,1.11-.24.22-.58.29-.88.29s-.61-.07-.81-.2l.11-.33c.16.1.41.19.71.19.45,0,.78-.23.78-.85v-.27h0c-.14.22-.4.41-.77.41-.6,0-1.03-.51-1.03-1.18,0-.82.54-1.29,1.09-1.29.42,0,.65.22.76.42h0l.02-.37h.38ZM133.09,21.75c0-.08,0-.14-.03-.2-.08-.25-.29-.46-.62-.46-.42,0-.72.36-.72.92,0,.47.24.87.72.87.27,0,.52-.17.61-.45.03-.08.04-.16.04-.24v-.44Z"/>
      <path d="M134.25,19.66h.44v1.51h0c.07-.12.18-.24.32-.31.13-.08.29-.12.45-.12.33,0,.85.2.85,1.04v1.44h-.44v-1.39c0-.39-.15-.72-.56-.72-.29,0-.51.2-.59.44-.03.06-.03.12-.03.21v1.46h-.44v-3.55Z"/>
      <path d="M137.27,22.08c.01.6.39.84.83.84.32,0,.51-.06.67-.12l.08.31c-.16.07-.42.15-.81.15-.75,0-1.19-.49-1.19-1.22s.43-1.31,1.14-1.31c.79,0,1,.7,1,1.14,0,.09,0,.16-.01.21h-1.7ZM138.56,21.77c0-.28-.12-.72-.61-.72-.45,0-.64.41-.68.72h1.29Z"/>
      <path d="M139.53,21.54c0-.29,0-.53-.02-.76h.38l.02.48h.02c.11-.33.38-.53.67-.53.05,0,.08,0,.12.02v.42s-.09-.01-.15-.01c-.31,0-.53.23-.59.57-.01.06-.02.13-.02.21v1.29h-.44v-1.67Z"/>
      <path d="M142.24,19.88c.22-.04.54-.07.84-.07.47,0,.77.08.98.28.17.15.26.38.26.64,0,.45-.28.74-.64.86v.02c.26.09.42.33.5.68.11.47.19.8.26.93h-.45c-.05-.09-.13-.39-.23-.81-.1-.47-.28-.64-.67-.66h-.41v1.46h-.44v-3.33ZM142.68,21.42h.45c.47,0,.76-.25.76-.64,0-.44-.32-.62-.78-.63-.21,0-.36.02-.43.04v1.23Z"/>
      <path d="M145.41,20.11c0,.15-.1.27-.28.27-.15,0-.26-.12-.26-.27s.12-.28.28-.28.27.12.27.28ZM144.92,23.21v-2.42h.44v2.42h-.44Z"/>
      <path d="M146.03,22.76c.13.08.36.17.58.17.32,0,.47-.16.47-.36s-.12-.33-.45-.45c-.44-.16-.64-.4-.64-.69,0-.39.32-.71.83-.71.25,0,.46.07.6.15l-.11.32c-.1-.06-.27-.14-.5-.14-.26,0-.41.15-.41.33,0,.2.15.29.46.41.42.16.64.37.64.73,0,.43-.33.73-.91.73-.27,0-.51-.06-.68-.17l.11-.33Z"/>
      <path d="M148.5,21.9h0c.06-.08.15-.19.22-.28l.71-.84h.53l-.94,1,1.07,1.43h-.54l-.84-1.16-.23.25v.91h-.44v-3.55h.44v2.24Z"/>
    </g>
    <path class="cls-2" d="M14.91,8.15h-.01l-.85.46-.13-.5,1.07-.57h.56v4.88h-.64v-4.26Z"/>
    <path class="cls-2" d="M44.01,12.42v-.41l.52-.5c1.25-1.19,1.81-1.82,1.82-2.55,0-.5-.24-.95-.97-.95-.44,0-.81.22-1.04.41l-.21-.47c.34-.29.82-.5,1.38-.5,1.05,0,1.49.72,1.49,1.42,0,.9-.65,1.63-1.68,2.62l-.39.36v.02h2.19v.55h-3.12Z"/>
    <path class="cls-2" d="M74.71,11.66c.19.12.62.31,1.08.31.85,0,1.11-.54,1.1-.95,0-.68-.62-.98-1.26-.98h-.37v-.5h.37c.48,0,1.09-.25,1.09-.83,0-.39-.25-.74-.86-.74-.39,0-.77.17-.98.32l-.17-.48c.25-.19.75-.38,1.28-.38.96,0,1.4.57,1.4,1.16,0,.5-.3.93-.9,1.15v.02c.6.12,1.09.57,1.09,1.25,0,.78-.61,1.46-1.78,1.46-.55,0-1.03-.17-1.27-.33l.18-.51Z"/>
    <path class="cls-2" d="M107.13,12.42v-1.33h-2.27v-.44l2.18-3.12h.71v3.03h.68v.52h-.68v1.33h-.62ZM107.13,10.57v-1.63c0-.26,0-.51.02-.77h-.02c-.15.29-.27.5-.41.72l-1.19,1.66v.02h1.6Z"/>
    <path class="cls-2" d="M138.53,8.09h-1.86l-.19,1.25c.11-.02.22-.03.4-.03.38,0,.75.08,1.05.26.38.22.7.64.7,1.25,0,.95-.76,1.67-1.82,1.67-.53,0-.98-.15-1.22-.3l.17-.5c.2.12.6.27,1.04.27.62,0,1.16-.41,1.16-1.06,0-.63-.43-1.08-1.4-1.08-.28,0-.5.03-.68.05l.32-2.34h2.33v.56Z"/>
  </g>
  <path d="M137.11,18.75c-5.17,0-9.38-4.21-9.38-9.38s4.21-9.38,9.38-9.38,9.38,4.21,9.38,9.38-4.21,9.38-9.38,9.38ZM137.11,1c-4.62,0-8.38,3.76-8.38,8.38s3.76,8.38,8.38,8.38,8.38-3.76,8.38-8.38-3.76-8.38-8.38-8.38Z"/>
</svg>